<svg xmlns="http://www.w3.org/2000/svg" xmlns:xlink="http://www.w3.org/1999/xlink" width="104" zoomAndPan="magnify" viewBox="0 0 78 74.999997" height="100" preserveAspectRatio="xMidYMid meet" version="1.0"><defs><clipPath id="50c56bf0cb"><path d="M 6.71875 19.605469 L 71.203125 19.605469 L 71.203125 55.601562 L 6.71875 55.601562 Z M 6.71875 19.605469 " clip-rule="nonzero"/></clipPath></defs><g clip-path="url(#50c56bf0cb)"><path fill="#5253f4" d="M 9.402344 45.058594 L 9.394531 45.039062 L 9.402344 45.058594 C 9.542969 45 9.621094 44.90625 9.675781 44.777344 C 9.734375 44.644531 9.757812 44.476562 9.757812 44.304688 C 9.757812 44.304688 9.757812 44.300781 9.757812 44.300781 C 9.757812 44.296875 9.757812 44.296875 9.757812 44.296875 C 9.757812 44.082031 9.722656 43.867188 9.699219 43.714844 C 9.625 43.28125 9.511719 42.859375 9.507812 42.839844 C 9.015625 40.964844 8.84375 38.847656 8.84375 36.789062 C 8.84375 33.375 9.320312 30.125 9.640625 28.433594 C 9.746094 27.867188 9.832031 27.480469 9.886719 27.304688 C 9.933594 27.144531 9.953125 27.003906 9.953125 26.882812 C 9.953125 26.703125 9.910156 26.5625 9.824219 26.445312 C 9.699219 26.28125 9.515625 26.1875 9.261719 26.1875 C 9.261719 26.1875 9.261719 26.1875 9.257812 26.1875 C 9.054688 26.1875 8.855469 26.257812 8.824219 26.273438 L 8.792969 26.285156 L 8.757812 26.304688 L 7.585938 27.070312 L 7.574219 27.078125 C 7.375 27.488281 7.242188 27.925781 7.183594 28.417969 C 7.054688 29.460938 6.71875 33.378906 6.71875 37.660156 C 6.71875 39.007812 6.753906 40.394531 6.835938 41.738281 C 6.835938 41.738281 6.835938 41.742188 6.835938 41.746094 C 6.835938 41.84375 6.851562 42.671875 7.425781 43.25 C 7.722656 43.550781 7.953125 43.828125 8.105469 44.027344 C 8.261719 44.230469 8.339844 44.355469 8.339844 44.355469 C 8.339844 44.355469 8.433594 44.53125 8.582031 44.804688 L 8.589844 44.8125 C 8.6875 44.890625 8.773438 44.953125 8.859375 45 C 8.980469 45.066406 9.082031 45.101562 9.203125 45.101562 C 9.273438 45.101562 9.339844 45.085938 9.402344 45.058594 Z M 23.035156 20.777344 C 23.066406 20.777344 23.101562 20.777344 23.136719 20.777344 C 24.96875 20.777344 26.515625 20.902344 27.734375 21.152344 C 30.972656 21.820312 32.675781 21.917969 32.738281 21.921875 L 33.164062 21.945312 C 33.167969 21.945312 33.175781 21.945312 33.183594 21.9375 C 33.1875 21.933594 33.1875 21.925781 33.1875 21.917969 L 33.089844 21.332031 L 33.402344 21.398438 C 34.519531 21.636719 36.605469 21.996094 38.960938 21.996094 C 41.316406 21.996094 43.402344 21.632812 44.519531 21.398438 L 44.832031 21.332031 L 44.734375 21.917969 C 44.734375 21.925781 44.738281 21.933594 44.742188 21.9375 C 44.746094 21.945312 44.753906 21.945312 44.761719 21.945312 L 45.183594 21.921875 C 45.246094 21.917969 46.949219 21.820312 50.1875 21.152344 C 51.410156 20.902344 52.953125 20.777344 54.789062 20.777344 C 54.820312 20.777344 54.855469 20.777344 54.890625 20.777344 C 54.902344 20.777344 54.914062 20.765625 54.914062 20.753906 L 54.941406 20.382812 C 54.941406 20.371094 54.933594 20.359375 54.921875 20.355469 C 50.519531 19.746094 46.160156 19.605469 43.113281 19.605469 C 40.585938 19.605469 38.960938 19.703125 38.960938 19.703125 C 38.960938 19.703125 37.335938 19.605469 34.8125 19.605469 C 31.765625 19.605469 27.40625 19.746094 23.003906 20.355469 C 22.988281 20.359375 22.980469 20.371094 22.984375 20.382812 L 23.011719 20.753906 C 23.011719 20.765625 23.019531 20.777344 23.035156 20.777344 Z M 71.203125 37.660156 C 71.203125 33.375 70.867188 29.460938 70.742188 28.417969 C 70.683594 27.925781 70.546875 27.488281 70.347656 27.078125 L 70.339844 27.070312 L 69.164062 26.304688 L 69.132812 26.285156 L 69.097656 26.273438 C 69.070312 26.257812 68.871094 26.1875 68.664062 26.1875 C 68.664062 26.1875 68.660156 26.1875 68.660156 26.1875 C 68.410156 26.1875 68.222656 26.28125 68.101562 26.445312 C 68.015625 26.5625 67.96875 26.699219 67.96875 26.882812 C 67.96875 27.007812 67.988281 27.144531 68.035156 27.304688 C 68.089844 27.480469 68.175781 27.867188 68.285156 28.433594 C 68.390625 29 68.515625 29.734375 68.632812 30.59375 C 68.867188 32.3125 69.078125 34.511719 69.078125 36.789062 C 69.078125 38.847656 68.90625 40.964844 68.414062 42.84375 C 68.410156 42.859375 68.296875 43.28125 68.226562 43.714844 C 68.203125 43.867188 68.167969 44.082031 68.167969 44.300781 L 68.167969 44.304688 C 68.167969 44.476562 68.191406 44.644531 68.246094 44.777344 C 68.300781 44.90625 68.378906 45 68.519531 45.058594 C 68.582031 45.085938 68.648438 45.101562 68.71875 45.101562 C 68.839844 45.101562 68.941406 45.066406 69.066406 45 C 69.148438 44.953125 69.238281 44.890625 69.335938 44.8125 L 69.339844 44.804688 C 69.488281 44.53125 69.585938 44.355469 69.585938 44.355469 C 69.582031 44.355469 69.664062 44.230469 69.816406 44.027344 C 69.96875 43.828125 70.199219 43.550781 70.5 43.25 C 71.070312 42.671875 71.085938 41.84375 71.085938 41.746094 C 71.085938 41.738281 71.085938 41.738281 71.085938 41.738281 C 71.171875 40.394531 71.203125 39.007812 71.203125 37.660156 Z M 68.902344 45.523438 C 68.84375 45.535156 68.785156 45.542969 68.722656 45.542969 L 68.71875 45.542969 C 68.589844 45.542969 68.464844 45.515625 68.347656 45.464844 C 68.097656 45.359375 67.929688 45.160156 67.84375 44.949219 C 67.753906 44.734375 67.730469 44.507812 67.730469 44.300781 C 67.730469 44.039062 67.769531 43.796875 67.792969 43.644531 C 67.871094 43.179688 67.988281 42.75 67.992188 42.726562 C 68.46875 40.90625 68.640625 38.824219 68.640625 36.789062 C 68.640625 36.785156 68.640625 36.785156 68.640625 36.785156 C 68.640625 33.417969 68.167969 30.1875 67.855469 28.515625 C 67.75 27.960938 67.660156 27.574219 67.617188 27.429688 C 67.5625 27.238281 67.53125 27.058594 67.53125 26.882812 L 67.53125 26.878906 C 67.53125 26.621094 67.601562 26.378906 67.75 26.183594 C 67.957031 25.898438 68.289062 25.746094 68.652344 25.746094 L 68.660156 25.746094 C 68.957031 25.746094 69.199219 25.839844 69.257812 25.859375 L 69.335938 25.890625 L 69.402344 25.933594 L 69.675781 26.113281 C 69.683594 26.121094 69.699219 26.117188 69.707031 26.109375 C 69.714844 26.101562 69.714844 26.085938 69.707031 26.078125 C 69.410156 25.699219 69.058594 25.324219 68.664062 24.925781 C 67.710938 23.964844 67.109375 23.878906 66.925781 23.878906 C 66.902344 23.878906 66.886719 23.882812 66.878906 23.882812 C 63.785156 22.097656 59.59375 21.042969 55.402344 20.425781 C 55.394531 20.425781 55.386719 20.425781 55.382812 20.429688 C 55.378906 20.433594 55.375 20.441406 55.375 20.449219 L 55.316406 21.21875 L 55.113281 21.21875 C 55.019531 21.21875 54.925781 21.214844 54.828125 21.214844 C 54.816406 21.214844 54.800781 21.214844 54.785156 21.214844 C 54.785156 21.214844 54.785156 21.214844 54.78125 21.214844 C 52.972656 21.214844 51.453125 21.339844 50.273438 21.585938 C 47.015625 22.253906 45.292969 22.359375 45.210938 22.363281 L 44.207031 22.417969 L 44.289062 21.925781 C 44.292969 21.917969 44.289062 21.910156 44.285156 21.90625 C 44.277344 21.902344 44.269531 21.898438 44.261719 21.898438 C 43.070312 22.136719 41.132812 22.4375 38.960938 22.4375 C 36.789062 22.4375 34.851562 22.136719 33.660156 21.898438 C 33.652344 21.898438 33.644531 21.902344 33.640625 21.90625 C 33.632812 21.910156 33.632812 21.917969 33.632812 21.925781 L 33.714844 22.417969 L 32.714844 22.363281 C 32.632812 22.359375 30.90625 22.253906 27.648438 21.585938 C 26.46875 21.339844 24.949219 21.214844 23.136719 21.214844 C 23.023438 21.214844 22.917969 21.21875 22.808594 21.21875 L 22.605469 21.21875 L 22.546875 20.449219 C 22.546875 20.441406 22.546875 20.433594 22.539062 20.429688 C 22.535156 20.425781 22.527344 20.425781 22.519531 20.425781 C 18.328125 21.042969 14.136719 22.097656 11.042969 23.882812 C 11.035156 23.882812 11.019531 23.878906 10.996094 23.878906 C 10.8125 23.878906 10.210938 23.964844 9.261719 24.925781 C 8.863281 25.324219 8.511719 25.699219 8.214844 26.078125 C 8.207031 26.085938 8.210938 26.097656 8.21875 26.109375 C 8.226562 26.117188 8.238281 26.121094 8.25 26.113281 L 8.519531 25.933594 L 8.59375 25.890625 L 8.667969 25.859375 C 8.722656 25.839844 8.964844 25.746094 9.261719 25.746094 L 9.269531 25.746094 C 9.632812 25.746094 9.964844 25.898438 10.171875 26.183594 C 10.320312 26.378906 10.390625 26.621094 10.390625 26.878906 C 10.390625 26.878906 10.390625 26.882812 10.390625 26.886719 C 10.390625 27.058594 10.363281 27.238281 10.304688 27.429688 C 10.261719 27.574219 10.171875 27.960938 10.070312 28.515625 C 9.964844 29.074219 9.839844 29.804688 9.722656 30.65625 C 9.492188 32.355469 9.28125 34.539062 9.28125 36.785156 C 9.28125 36.785156 9.28125 36.789062 9.28125 36.792969 C 9.28125 36.789062 9.28125 36.792969 9.28125 36.792969 C 9.28125 38.824219 9.453125 40.910156 9.929688 42.722656 C 9.9375 42.753906 10.054688 43.179688 10.128906 43.644531 C 10.152344 43.796875 10.191406 44.039062 10.195312 44.300781 C 10.191406 44.507812 10.167969 44.734375 10.082031 44.949219 C 9.992188 45.160156 9.828125 45.359375 9.578125 45.464844 C 9.457031 45.515625 9.332031 45.542969 9.203125 45.542969 C 9.203125 45.542969 9.203125 45.542969 9.199219 45.542969 C 9.136719 45.542969 9.078125 45.535156 9.019531 45.523438 C 9.011719 45.523438 9 45.527344 8.996094 45.535156 C 8.988281 45.542969 8.988281 45.550781 8.992188 45.558594 C 9.503906 46.484375 10.15625 47.636719 10.375 47.859375 C 10.75 48.234375 14.292969 50.546875 16.824219 51.796875 C 19.351562 53.046875 22.21875 54.371094 23.429688 55.175781 C 23.4375 55.179688 24.285156 55.601562 26.160156 55.601562 C 26.445312 55.601562 26.757812 55.59375 27.089844 55.570312 C 29.621094 55.398438 32.988281 54.613281 35.226562 50.785156 C 36.175781 49.167969 36.84375 48.296875 37.359375 47.835938 C 37.875 47.371094 38.234375 47.3125 38.585938 47.3125 C 38.710938 47.3125 38.832031 47.320312 38.960938 47.320312 C 39.089844 47.320312 39.214844 47.3125 39.339844 47.3125 C 39.6875 47.3125 40.046875 47.371094 40.566406 47.835938 C 41.082031 48.296875 41.75 49.167969 42.695312 50.785156 C 44.9375 54.613281 48.300781 55.398438 50.832031 55.570312 C 51.164062 55.59375 51.476562 55.601562 51.761719 55.601562 C 53.640625 55.601562 54.484375 55.179688 54.488281 55.175781 C 55.703125 54.371094 58.570312 53.046875 61.097656 51.796875 C 63.628906 50.546875 67.171875 48.234375 67.546875 47.859375 C 67.765625 47.636719 68.417969 46.484375 68.929688 45.558594 C 68.933594 45.550781 68.933594 45.542969 68.929688 45.535156 C 68.921875 45.527344 68.914062 45.523438 68.902344 45.523438 Z M 65.101562 46.109375 C 62.828125 49.277344 54.613281 52.390625 50.710938 52.386719 C 46.820312 52.390625 44.316406 47.605469 42.8125 44.25 C 41.574219 41.496094 39.785156 41.238281 39.171875 41.238281 C 39.171875 41.238281 39.167969 41.238281 39.167969 41.238281 C 39.050781 41.238281 38.980469 41.246094 38.960938 41.25 C 38.945312 41.246094 38.871094 41.238281 38.753906 41.238281 C 38.148438 41.238281 36.351562 41.492188 35.113281 44.25 C 33.605469 47.605469 31.101562 52.390625 27.210938 52.386719 C 23.308594 52.390625 15.09375 49.277344 12.820312 46.109375 C 10.832031 43.335938 10.28125 40.054688 10.28125 36.921875 C 10.28125 36.464844 10.292969 36.011719 10.316406 35.5625 C 10.476562 32.039062 10.738281 28.039062 14.351562 26.414062 C 16.96875 25.238281 20.605469 24.296875 25.4375 24.296875 C 27.292969 24.296875 29.324219 24.433594 31.542969 24.75 C 31.542969 24.75 36.78125 25.566406 38.960938 25.566406 C 41.140625 25.566406 46.378906 24.75 46.382812 24.75 C 48.601562 24.433594 50.632812 24.296875 52.484375 24.296875 C 57.320312 24.296875 60.953125 25.238281 63.574219 26.414062 C 67.1875 28.039062 67.445312 32.039062 67.609375 35.5625 C 67.628906 36.011719 67.640625 36.464844 67.640625 36.921875 C 67.640625 40.054688 67.089844 43.335938 65.101562 46.109375 Z M 66.332031 30.457031 C 66.050781 29.597656 65.675781 28.898438 65.183594 28.320312 C 64.6875 27.734375 64.082031 27.285156 63.335938 26.949219 C 60.285156 25.578125 56.632812 24.882812 52.484375 24.882812 C 50.582031 24.882812 48.558594 25.035156 46.472656 25.332031 L 46.464844 25.332031 C 46.25 25.367188 41.144531 26.15625 38.960938 26.15625 C 36.777344 26.15625 31.671875 25.367188 31.457031 25.332031 L 31.449219 25.332031 C 29.367188 25.035156 27.34375 24.882812 25.4375 24.882812 C 21.289062 24.882812 17.636719 25.578125 14.589844 26.949219 C 13.84375 27.285156 13.238281 27.734375 12.738281 28.320312 C 12.25 28.898438 11.875 29.597656 11.59375 30.457031 C 11.097656 31.972656 10.984375 33.679688 10.898438 35.589844 C 10.875 36.046875 10.867188 36.488281 10.867188 36.921875 C 10.867188 40.636719 11.648438 43.46875 13.292969 45.761719 C 13.785156 46.449219 14.609375 47.167969 15.742188 47.898438 C 16.824219 48.597656 18.167969 49.289062 19.628906 49.894531 C 22.414062 51.050781 25.386719 51.800781 27.210938 51.800781 C 28.066406 51.800781 28.914062 51.527344 29.722656 50.988281 C 30.40625 50.535156 31.078125 49.882812 31.726562 49.046875 C 32.976562 47.441406 33.953125 45.402344 34.582031 44.007812 C 35.164062 42.710938 35.933594 41.765625 36.871094 41.203125 C 37.675781 40.722656 38.394531 40.652344 38.753906 40.652344 C 38.8125 40.652344 38.867188 40.652344 38.921875 40.65625 L 38.960938 40.660156 L 39 40.65625 C 39.054688 40.652344 39.109375 40.652344 39.167969 40.652344 C 39.527344 40.652344 40.25 40.722656 41.050781 41.203125 C 41.988281 41.765625 42.757812 42.710938 43.34375 44.007812 C 43.96875 45.402344 44.945312 47.441406 46.195312 49.046875 C 46.84375 49.882812 47.519531 50.535156 48.199219 50.988281 C 49.011719 51.527344 49.855469 51.800781 50.710938 51.800781 C 52.535156 51.800781 55.507812 51.050781 58.296875 49.894531 C 59.753906 49.289062 61.097656 48.597656 62.179688 47.898438 C 63.3125 47.167969 64.136719 46.449219 64.628906 45.761719 C 66.277344 43.46875 67.058594 40.636719 67.058594 36.921875 C 67.058594 36.488281 67.046875 36.046875 67.027344 35.589844 C 66.9375 33.679688 66.824219 31.972656 66.332031 30.457031 Z M 12.191406 30.65625 C 12.699219 29.109375 13.539062 28.121094 14.84375 27.53125 C 15.738281 27.128906 16.6875 26.789062 17.6875 26.507812 L 11.796875 32.386719 C 11.890625 31.777344 12.015625 31.203125 12.191406 30.65625 Z M 13.804688 45.390625 C 13.535156 45.011719 13.289062 44.621094 13.066406 44.207031 L 31.347656 25.960938 C 31.351562 25.960938 31.359375 25.960938 31.363281 25.960938 C 31.488281 25.980469 32.515625 26.140625 33.816406 26.3125 L 14.21875 45.878906 C 14.058594 45.714844 13.917969 45.550781 13.804688 45.390625 Z M 16.4375 47.585938 C 16.078125 47.363281 15.742188 47.140625 15.433594 46.917969 L 35.828125 26.5625 C 36.351562 26.617188 36.867188 26.671875 37.351562 26.710938 Z M 41.296875 40.613281 C 40.394531 40.09375 39.578125 40.015625 39.167969 40.015625 C 39.089844 40.015625 39.019531 40.019531 38.960938 40.019531 C 38.90625 40.019531 38.835938 40.015625 38.753906 40.015625 C 38.332031 40.015625 37.480469 40.097656 36.546875 40.65625 C 35.496094 41.289062 34.640625 42.328125 34.003906 43.746094 C 32.574219 46.9375 30.304688 51.167969 27.210938 51.164062 C 25.621094 51.164062 23.082031 50.558594 20.585938 49.59375 L 43.878906 26.34375 C 45.289062 26.160156 46.425781 25.984375 46.5625 25.960938 C 48.617188 25.667969 50.609375 25.519531 52.484375 25.519531 C 53.777344 25.519531 55.019531 25.589844 56.207031 25.726562 Z M 47.226562 49.289062 C 46.585938 48.585938 46.003906 47.734375 45.484375 46.84375 L 64.160156 28.199219 C 64.871094 28.789062 65.382812 29.589844 65.730469 30.65625 C 65.746094 30.699219 65.757812 30.738281 65.769531 30.777344 Z M 65.238281 43.433594 C 65.199219 43.519531 65.160156 43.605469 65.117188 43.691406 C 65.035156 43.863281 64.953125 44.03125 64.863281 44.199219 C 64.640625 44.613281 64.390625 45.011719 64.117188 45.390625 C 63.226562 46.632812 60.957031 48.101562 58.054688 49.308594 C 57.824219 49.402344 57.59375 49.496094 57.359375 49.585938 L 66.042969 40.917969 C 65.847656 41.824219 65.582031 42.65625 65.238281 43.433594 " fill-opacity="1" fill-rule="nonzero"/></g></svg>