<svg xmlns="http://www.w3.org/2000/svg" xmlns:xlink="http://www.w3.org/1999/xlink" width="183" zoomAndPan="magnify" viewBox="0 0 137.25 349.499992" height="466" preserveAspectRatio="xMidYMid meet" version="1.0"><defs><clipPath id="130fea48ea"><path d="M 23 282 L 42 282 L 42 305.171875 L 23 305.171875 Z M 23 282 " clip-rule="nonzero"/></clipPath><clipPath id="10d5ee3b92"><path d="M 107.410156 90.039062 L 133.382812 90.039062 L 133.382812 108.273438 L 107.410156 108.273438 Z M 107.410156 90.039062 " clip-rule="nonzero"/></clipPath><clipPath id="415725af46"><path d="M 3.707031 90 L 18 90 L 18 120 L 3.707031 120 Z M 3.707031 90 " clip-rule="nonzero"/></clipPath><clipPath id="17718d3a14"><path d="M 19 44.097656 L 50 44.097656 L 50 66 L 19 66 Z M 19 44.097656 " clip-rule="nonzero"/></clipPath></defs><path fill="#5253f4" d="M 45.050781 84.890625 C 45.050781 84.890625 33.449219 79.738281 27.949219 83.941406 L 30.46875 92.4375 L 47.640625 94.953125 L 50.632812 89.898438 L 45.050781 84.890625 " fill-opacity="1" fill-rule="nonzero"/><path fill="#fde4d4" d="M 44.082031 272.546875 L 43.945312 273.214844 L 42.949219 275.382812 C 42.300781 276.792969 42.820312 278.457031 44.144531 279.257812 C 45.410156 280.027344 47.097656 280.769531 48.878906 280.777344 C 52.554688 280.792969 56.003906 278.769531 56.003906 278.769531 L 57.199219 277.976562 L 55.808594 275.71875 L 55.714844 274.265625 L 44.082031 272.546875 " fill-opacity="1" fill-rule="nonzero"/><g clip-path="url(#130fea48ea)"><path fill="#5253f4" d="M 24.292969 282.207031 C 24.292969 282.207031 24.148438 285.199219 23.667969 286.167969 C 23.1875 287.128906 23.042969 288.382812 23.042969 289.6875 C 23.042969 290.988281 23.28125 294.65625 23.28125 294.65625 L 24.582031 296.488281 C 24.582031 296.488281 24.050781 299.816406 26.269531 301.988281 C 28.480469 304.15625 32.332031 305.171875 36.375 305.171875 C 40.421875 305.171875 41.769531 303.144531 41.867188 302.324219 C 41.960938 301.503906 41.960938 298.707031 40.855469 295.1875 C 39.746094 291.664062 38.878906 288.09375 37.339844 286.019531 C 35.800781 283.945312 33.632812 282.207031 33.632812 282.207031 L 24.292969 282.207031 " fill-opacity="1" fill-rule="nonzero"/></g><path fill="#fde4d4" d="M 37.339844 286.019531 C 34.644531 284.378906 32.898438 285.152344 30.585938 285.632812 C 28.277344 286.117188 27.519531 289.058594 27.519531 289.058594 C 27.085938 287.609375 24.089844 284.40625 24.089844 284.40625 L 23.835938 282.207031 L 34.570312 282.4375 L 37.339844 286.019531 " fill-opacity="1" fill-rule="nonzero"/><g clip-path="url(#10d5ee3b92)"><path fill="#fde4d4" d="M 107.832031 103.457031 C 107.832031 103.457031 108.507812 101.929688 108.507812 101.042969 C 108.507812 100.160156 108.828125 98.277344 110.113281 97.167969 C 111.398438 96.058594 113.082031 95.351562 115.070312 93.46875 C 117.0625 91.589844 118.550781 89.332031 119.457031 90.683594 C 119.976562 91.453125 117.898438 94.160156 117.496094 94.757812 C 117.09375 95.351562 115.96875 96.15625 116.46875 96.542969 C 116.964844 96.929688 121.21875 95.589844 123.257812 94.773438 C 125.292969 93.953125 130.058594 89.804688 130.78125 90.304688 C 131.503906 90.800781 129.675781 92.601562 128.855469 93.339844 C 128.039062 94.082031 127.605469 94.355469 127.605469 94.355469 C 127.605469 94.355469 130.234375 94.050781 131.40625 93.421875 C 132.578125 92.792969 133.09375 92.808594 133.347656 93.179688 C 133.605469 93.550781 132.273438 94.835938 131.824219 95.046875 C 131.375 95.253906 132.613281 96.382812 131.007812 97.3125 C 129.402344 98.246094 127.734375 99.019531 127.734375 99.019531 C 127.734375 99.019531 127.8125 99.710938 126.464844 100.222656 C 125.117188 100.738281 121.234375 103.359375 120.382812 103.90625 C 119.53125 104.453125 117.976562 106.785156 114.15625 107.523438 C 110.335938 108.261719 109.519531 108.167969 109.519531 108.167969 L 107.832031 103.457031 " fill-opacity="1" fill-rule="nonzero"/></g><path fill="#5253f4" d="M 22.09375 158.238281 C 22.09375 158.238281 21.453125 181.585938 20.972656 185.15625 C 20.492188 188.722656 20.457031 195.089844 21.53125 200.785156 C 22.609375 206.476562 23.019531 222.296875 22.09375 226.351562 C 21.164062 230.402344 18.371094 241.59375 18.660156 246.222656 C 18.949219 250.855469 21.742188 282.59375 21.742188 282.59375 C 21.742188 282.59375 25.207031 284.523438 29.058594 285.007812 C 32.910156 285.492188 36.761719 285.007812 36.761719 285.007812 C 36.761719 285.007812 34.738281 280.375 36.375 277.386719 C 38.011719 274.394531 35.992188 270.921875 35.414062 267.351562 C 34.835938 263.78125 37.628906 248.25 38.109375 243.8125 C 38.59375 239.375 41.382812 230.207031 42.441406 224.132812 C 43.503906 218.054688 44.753906 206.476562 46.292969 204.738281 C 46.292969 204.738281 47.929688 219.597656 47.449219 224.613281 C 46.96875 229.628906 45.042969 243.234375 44.558594 252.109375 C 44.078125 260.984375 44.078125 274.007812 44.078125 274.007812 C 44.078125 274.007812 48.414062 276.324219 51.972656 276.421875 C 55.539062 276.519531 58.425781 273.238281 58.425781 273.238281 C 58.425781 273.238281 59.96875 258.378906 61.796875 252.398438 C 63.625 246.417969 64.492188 230.015625 65.453125 224.902344 C 66.417969 219.789062 69.015625 200.398438 70.363281 194.222656 C 71.710938 188.046875 73.445312 180.652344 73.445312 174.894531 C 73.445312 169.140625 69.882812 155.246094 69.882812 155.246094 C 69.882812 155.246094 60.449219 160.070312 50.628906 159.976562 C 40.804688 159.878906 22.09375 158.238281 22.09375 158.238281 " fill-opacity="1" fill-rule="nonzero"/><path fill="#000000" d="M 52.671875 164.152344 C 52.964844 165.507812 54.667969 173.660156 54.195312 178.132812 C 53.773438 182.160156 53.214844 186.191406 53.035156 187.449219 C 53.765625 187.019531 55.519531 185.875 56.917969 184.035156 C 58.121094 182.453125 57.277344 178.410156 56.597656 175.164062 C 56.265625 173.578125 55.980469 172.210938 55.980469 171.359375 C 55.980469 169.097656 55.109375 164.71875 54.917969 163.800781 C 54.171875 163.929688 53.421875 164.042969 52.671875 164.152344 Z M 52.777344 188.023438 L 52.660156 187.984375 C 52.601562 187.941406 52.566406 187.871094 52.578125 187.792969 C 52.585938 187.746094 53.289062 182.917969 53.796875 178.089844 C 54.265625 173.644531 52.542969 165.457031 52.273438 164.210938 C 37.363281 166.285156 22.105469 164.839844 21.882812 164.816406 C 21.773438 164.804688 21.691406 164.707031 21.703125 164.597656 C 21.714844 164.484375 21.804688 164.40625 21.921875 164.417969 C 22.242188 164.449219 54.0625 167.46875 70.613281 158.457031 C 70.710938 158.40625 70.832031 158.441406 70.882812 158.535156 C 70.9375 158.636719 70.898438 158.757812 70.800781 158.8125 C 66.417969 161.199219 60.964844 162.75 55.316406 163.734375 C 55.511719 164.699219 56.378906 169.039062 56.378906 171.359375 C 56.378906 172.167969 56.664062 173.519531 56.988281 175.082031 C 57.6875 178.40625 58.554688 182.550781 57.238281 184.28125 C 55.371094 186.730469 52.96875 187.953125 52.867188 188.003906 L 52.777344 188.023438 " fill-opacity="1" fill-rule="nonzero"/><path fill="#f44c4a" d="M 48.414062 88.132812 C 48.414062 88.132812 43.011719 84.582031 39.289062 85.164062 C 35.566406 85.742188 31.980469 89.289062 29.21875 89.738281 C 29.21875 89.738281 39.941406 123.128906 38.011719 132.066406 C 36.089844 141 36.089844 157.59375 36.089844 157.59375 C 36.089844 157.59375 42.636719 159.300781 49.28125 159.394531 C 55.921875 159.492188 66.609375 156.984375 66.609375 156.984375 C 66.609375 156.984375 57.558594 114.53125 56.597656 103.828125 C 55.632812 93.117188 48.414062 88.132812 48.414062 88.132812 " fill-opacity="1" fill-rule="nonzero"/><path fill="#5253f4" d="M 28.191406 83.984375 C 28.191406 83.984375 27.933594 83.550781 26.941406 84.972656 C 25.949219 86.394531 23.347656 89.804688 19.429688 90.960938 C 15.515625 92.117188 8.714844 90.382812 7.265625 96.558594 C 5.824219 102.730469 7.78125 113.085938 6.050781 118.683594 C 4.316406 124.277344 9.996094 130.355469 11.921875 130.933594 C 13.847656 131.511719 17.023438 130.835938 18.085938 129.875 C 19.140625 128.910156 20.296875 128.039062 20.296875 128.039062 C 20.296875 128.039062 18.855469 141.835938 18.179688 143.089844 C 17.503906 144.347656 13.75 149.199219 14.007812 149.554688 C 14.265625 149.910156 15.226562 149.972656 15.324219 150.199219 C 15.421875 150.425781 7.847656 175.667969 7.460938 176.054688 C 7.074219 176.4375 12.917969 177.660156 15.421875 178.433594 C 17.921875 179.207031 28.257812 181.328125 30.824219 179.460938 C 33.390625 177.597656 34.804688 175.089844 37.566406 166.019531 C 40.324219 156.953125 43.664062 140.679688 43.855469 133.285156 C 44.046875 125.886719 40.582031 114.757812 37.628906 106.269531 C 34.675781 97.777344 35.171875 84.554688 28.191406 83.984375 " fill-opacity="1" fill-rule="nonzero"/><path fill="#5253f4" d="M 45.457031 84.921875 C 45.191406 84.78125 44.921875 85.113281 45.117188 85.347656 C 46.34375 86.816406 48.566406 89.695312 49.40625 92.152344 C 50.59375 95.625 52.777344 100.160156 53.128906 106.140625 C 53.484375 112.121094 55.378906 118.875 55.921875 121.351562 C 56.46875 123.828125 58.136719 131.804688 59.96875 139.90625 C 61.796875 148.011719 63.722656 153.316406 65.261719 161.132812 C 66.800781 168.945312 71.183594 178.882812 73.109375 179.222656 C 75.035156 179.558594 77.394531 176.375 77.394531 174.542969 C 77.394531 172.707031 75.5625 167.210938 75.179688 163.15625 C 74.792969 159.105469 72.433594 151.582031 72.433594 151.050781 C 72.433594 150.519531 73.058594 150.859375 73.109375 149.699219 C 73.15625 148.542969 70.992188 141.0625 70.796875 137.351562 C 70.625 133.996094 70.726562 125.882812 70.746094 124.339844 C 70.746094 124.191406 70.867188 124.070312 71.011719 124.066406 C 71.722656 124.054688 73.875 124.203125 77.394531 126.0625 C 81.773438 128.378906 86.347656 129.777344 88.464844 129.585938 C 90.585938 129.390625 94.722656 126.449219 99.828125 124.664062 C 104.929688 122.878906 111.71875 118.925781 113.113281 118.34375 C 114.511719 117.765625 113.066406 112.75 111.960938 108.601562 C 110.890625 104.597656 109.730469 103.15625 108.269531 102.28125 C 108.171875 102.222656 108.050781 102.230469 107.960938 102.296875 C 107.050781 103 102.0625 106.800781 99.445312 107.976562 C 96.554688 109.277344 93.953125 110.867188 93.136719 112.265625 C 92.316406 113.667969 84.613281 113.472656 83.21875 112.21875 C 81.824219 110.964844 77.539062 107.734375 75.515625 105.996094 C 73.496094 104.257812 72.195312 101.171875 70.074219 98.375 C 67.957031 95.578125 69.210938 93.019531 62.757812 91.234375 C 56.308594 89.449219 54.140625 90.414062 51.640625 88.773438 C 49.675781 87.488281 47.152344 85.828125 45.457031 84.921875 " fill-opacity="1" fill-rule="nonzero"/><path fill="#000000" d="M 8.742188 105.246094 C 8.742188 105.246094 7.65625 107.25 8.234375 109.238281 C 8.808594 111.21875 10.734375 116.304688 12.019531 118.296875 C 13.300781 120.289062 11.824219 122.605469 13.878906 122.027344 C 15.933594 121.449219 16.960938 120.417969 16.960938 116.304688 C 16.960938 112.1875 17.34375 112.316406 16.960938 109.679688 C 16.574219 107.042969 11.632812 104.152344 8.742188 105.246094 " fill-opacity="1" fill-rule="nonzero"/><g clip-path="url(#415725af46)"><path fill="#fde4d4" d="M 16.609375 119.519531 C 16.609375 119.519531 13.171875 118.265625 11.246094 115.015625 C 9.324219 111.769531 8.777344 109.839844 8.777344 108.167969 C 8.777344 106.492188 8.488281 104.886719 8.101562 104.566406 C 7.71875 104.242188 5.824219 99.550781 5.953125 96.71875 C 6.082031 93.886719 3.867188 93.664062 3.964844 91.828125 C 4.058594 89.996094 6.59375 91.539062 7.238281 92.34375 C 7.878906 93.148438 7.425781 94.082031 9.289062 95.238281 C 11.152344 96.394531 13.238281 97.488281 14.585938 99.710938 C 15.933594 101.929688 15.195312 103.828125 16.476562 105.046875 C 17.761719 106.269531 17.820312 109.199219 17.433594 109.746094 C 17.050781 110.292969 17.320312 111.027344 17.417969 113.785156 C 17.523438 116.820312 16.609375 119.519531 16.609375 119.519531 " fill-opacity="1" fill-rule="nonzero"/></g><path fill="#5253f4" d="M 43.945312 273.214844 C 43.945312 273.214844 42.0625 274.949219 41.902344 276.398438 C 41.746094 277.84375 41.347656 281.75 41.417969 283.21875 C 41.492188 284.691406 41.417969 287.222656 41.417969 287.222656 C 41.417969 287.222656 46.34375 289.035156 47.859375 289.058594 C 49.375 289.085938 49.085938 288.144531 49.085938 288.144531 C 49.085938 288.144531 51.589844 288.289062 53.25 289.710938 C 54.914062 291.132812 57.414062 293.640625 61.722656 293.859375 C 66.03125 294.074219 71.351562 294.316406 72.796875 293.375 C 74.242188 292.433594 73.132812 289.976562 73.132812 289.976562 C 73.132812 289.976562 73.253906 288.648438 71.566406 287.445312 C 69.882812 286.238281 64.527344 283.605469 62.453125 281.796875 C 60.386719 279.988281 59.496094 278.617188 58.390625 277.1875 C 57.761719 276.378906 55.808594 275.71875 55.808594 275.71875 L 55.839844 276.230469 C 55.839844 276.230469 54.8125 276.476562 53.933594 276.660156 C 50.878906 277.308594 52.847656 278.753906 50.957031 279.230469 C 49.011719 279.722656 47.171875 279.460938 45.230469 278.082031 C 43.875 277.117188 43.414062 275.832031 43.488281 275.421875 C 43.558594 275.011719 43.945312 273.214844 43.945312 273.214844 " fill-opacity="1" fill-rule="nonzero"/><path fill="#fde4d4" d="M 47.144531 90.503906 C 48.421875 92.800781 46.785156 95.675781 44.164062 95.5625 C 43.878906 95.546875 43.582031 95.523438 43.261719 95.480469 C 38.15625 94.804688 34.71875 93.40625 34.71875 93.40625 C 34.71875 93.40625 33.578125 89.527344 32.300781 86.644531 C 31.652344 85.1875 29.742188 84.757812 29.546875 83.039062 C 28.972656 77.921875 27.734375 73.378906 27.734375 73.378906 C 27.734375 73.378906 25.519531 73.863281 24.703125 73.042969 C 23.882812 72.222656 22.101562 70.148438 22.246094 68.121094 C 22.390625 66.097656 22.824219 65.730469 22.824219 65.730469 C 20.769531 61.632812 21.890625 53.539062 25.683594 51.070312 C 29.476562 48.605469 38.6875 47.695312 43.925781 50.855469 C 49.167969 54.019531 48.503906 61.0625 48.503906 61.0625 C 48.269531 61.886719 48.0625 62.617188 48.097656 63.394531 C 48.195312 65.421875 48.386719 71.882812 48.003906 73.957031 C 47.617188 76.03125 44.726562 77.960938 44.75 79.796875 C 44.773438 81.371094 44.351562 85.496094 47.144531 90.503906 " fill-opacity="1" fill-rule="nonzero"/><g clip-path="url(#17718d3a14)"><path fill="#000000" d="M 48.917969 55.867188 C 48.242188 52.105469 45.644531 51.480469 44.34375 49.597656 C 43.042969 47.714844 42.371094 47.089844 41.117188 47.28125 C 39.867188 47.476562 38.855469 45.738281 35.679688 44.871094 C 32.804688 44.085938 30.484375 46.613281 29.355469 48.066406 C 27.210938 48.484375 26.800781 48.828125 23.261719 50.570312 C 19.339844 52.5 19.480469 60.144531 19.480469 60.144531 L 20.410156 57.714844 C 20.410156 57.714844 20.265625 59.21875 20.410156 61.289062 C 20.550781 63.363281 22.824219 65.730469 22.824219 65.730469 C 21.320312 60.3125 23.90625 57.433594 23.90625 57.433594 L 23.476562 59.433594 C 23.476562 59.433594 25.402344 57.144531 28.539062 56 C 31.679688 54.859375 30.90625 55.792969 33.1875 55.222656 C 35.472656 54.648438 36.8125 52.859375 36.8125 52.859375 L 34.28125 56.359375 L 35.371094 56.003906 C 38.246094 55.066406 40.847656 53.417969 42.925781 51.214844 L 44.46875 52.777344 C 46.226562 54.5625 47.464844 56.785156 48.058594 59.21875 L 48.503906 61.0625 L 48.507812 61.0625 C 48.886719 59.742188 49.332031 58.191406 48.917969 55.867188 " fill-opacity="1" fill-rule="nonzero"/></g><path fill="#000000" d="M 30.929688 54.445312 C 30.929688 54.445312 31.195312 60.613281 29.484375 62.433594 C 27.773438 64.257812 27.699219 64.085938 27.699219 64.085938 L 28.253906 70.207031 L 25.613281 66.683594 C 24.96875 65.824219 23.863281 65.445312 22.824219 65.730469 C 22.824219 65.730469 21.515625 61.898438 21.835938 58.949219 C 22.15625 56 28.203125 53.480469 28.203125 53.480469 L 30.929688 54.445312 " fill-opacity="1" fill-rule="nonzero"/><path fill="#000000" d="M 42.410156 61.265625 C 42.359375 61.265625 42.304688 61.246094 42.265625 61.203125 C 42.1875 61.121094 42.191406 60.996094 42.273438 60.917969 C 42.3125 60.882812 43.214844 60.039062 44.28125 59.839844 C 45.414062 59.632812 46.347656 60.894531 46.386719 60.945312 C 46.453125 61.035156 46.433594 61.160156 46.34375 61.226562 C 46.257812 61.292969 46.132812 61.273438 46.066406 61.183594 C 46.058594 61.171875 45.238281 60.074219 44.355469 60.238281 C 43.40625 60.410156 42.558594 61.203125 42.546875 61.210938 C 42.507812 61.25 42.460938 61.265625 42.410156 61.265625 Z M 32.320312 61.882812 L 32.214844 61.855469 C 32.121094 61.796875 32.089844 61.675781 32.148438 61.578125 C 32.195312 61.503906 33.292969 59.726562 34.929688 59.527344 C 36.585938 59.332031 37.691406 60.585938 37.738281 60.640625 C 37.8125 60.722656 37.804688 60.851562 37.722656 60.921875 C 37.636719 60.996094 37.511719 60.988281 37.4375 60.90625 C 37.425781 60.894531 36.410156 59.753906 34.976562 59.925781 C 33.53125 60.097656 32.503906 61.773438 32.492188 61.789062 C 32.453125 61.847656 32.386719 61.882812 32.320312 61.882812 Z M 41.710938 68.953125 C 40.871094 68.953125 40.109375 68.417969 40.0625 68.386719 C 39.972656 68.320312 39.949219 68.195312 40.015625 68.105469 C 40.078125 68.015625 40.203125 67.992188 40.296875 68.058594 C 40.308594 68.066406 41.679688 69.027344 42.5625 68.234375 C 43.214844 67.648438 41.867188 64.722656 40.867188 63.015625 C 40.808594 62.921875 40.84375 62.800781 40.9375 62.742188 C 41.03125 62.683594 41.15625 62.71875 41.210938 62.8125 C 41.671875 63.597656 43.914062 67.5625 42.832031 68.535156 C 42.480469 68.847656 42.089844 68.953125 41.710938 68.953125 Z M 115.230469 100.230469 C 115.171875 100.230469 115.109375 100.199219 115.070312 100.148438 C 115.003906 100.058594 115.023438 99.933594 115.113281 99.867188 C 116.527344 98.808594 116.148438 96.378906 116.144531 96.351562 C 116.125 96.242188 116.203125 96.140625 116.3125 96.121094 C 116.417969 96.105469 116.523438 96.175781 116.539062 96.289062 C 116.558594 96.394531 116.964844 98.984375 115.351562 100.1875 Z M 131.546875 95.445312 Z M 131.546875 95.445312 L 131.546875 95.449219 Z M 131.546875 95.449219 Z M 122.503906 101.015625 C 122.40625 101.015625 122.320312 100.941406 122.304688 100.839844 L 121.609375 95.335938 C 121.59375 95.226562 121.671875 95.125 121.78125 95.113281 C 121.882812 95.097656 121.992188 95.175781 122.007812 95.285156 L 122.09375 95.976562 C 124.140625 95.292969 127.578125 94.15625 127.707031 94.140625 C 127.820312 94.125 127.917969 94.203125 127.929688 94.3125 C 127.945312 94.417969 127.871094 94.515625 127.769531 94.535156 C 127.5625 94.585938 124.339844 95.652344 122.210938 96.359375 L 122.144531 96.367188 L 122.359375 98.074219 C 123.203125 97.691406 128.085938 95.484375 129.820312 95.21875 C 131.492188 94.960938 131.75 95.152344 131.835938 95.21875 C 131.878906 95.25 131.9375 95.335938 131.945312 95.390625 C 131.960938 95.5 131.882812 95.601562 131.773438 95.617188 C 131.699219 95.625 131.625 95.59375 131.585938 95.535156 C 131.515625 95.507812 131.175781 95.414062 129.882812 95.617188 C 128.089844 95.894531 122.558594 98.429688 122.414062 98.496094 L 122.574219 99.757812 C 123.109375 99.464844 124.789062 98.578125 125.921875 98.332031 C 127.371094 98.015625 127.886719 98.878906 127.90625 98.917969 C 127.960938 99.015625 127.929688 99.136719 127.832031 99.191406 C 127.738281 99.246094 127.617188 99.214844 127.558594 99.121094 C 127.542969 99.085938 127.148438 98.476562 126.007812 98.722656 C 124.804688 98.984375 122.867188 100.054688 122.628906 100.1875 L 122.707031 100.789062 C 122.71875 100.898438 122.640625 100.996094 122.53125 101.011719 Z M 14.011719 110.332031 C 13.765625 110.332031 13.597656 110.261719 13.5 110.199219 C 13.398438 110.226562 13.296875 110.238281 13.199219 110.234375 C 12.507812 110.199219 12.09375 109.316406 11.960938 108.976562 C 11.746094 108.953125 11.5 108.890625 11.226562 108.78125 C 9.902344 108.269531 6.898438 101.722656 6.5625 100.976562 C 6.515625 100.878906 6.5625 100.757812 6.660156 100.710938 C 6.761719 100.664062 6.882812 100.710938 6.925781 100.8125 C 8.226562 103.675781 10.484375 108.0625 11.371094 108.410156 C 11.65625 108.519531 11.898438 108.578125 12.089844 108.582031 L 12.117188 108.582031 C 12.253906 108.578125 12.363281 108.550781 12.449219 108.492188 C 12.636719 108.363281 12.730469 108.0625 12.734375 107.597656 C 12.734375 107.183594 12.390625 106.558594 12.058594 105.953125 C 11.683594 105.273438 11.332031 104.636719 11.332031 104.117188 C 11.335938 103.238281 10.625 101.53125 10.617188 101.515625 C 10.574219 101.414062 10.621094 101.296875 10.722656 101.253906 C 10.828125 101.210938 10.941406 101.257812 10.984375 101.359375 C 11.019531 101.433594 11.738281 103.160156 11.734375 104.121094 C 11.730469 104.53125 12.074219 105.15625 12.410156 105.761719 C 12.78125 106.4375 13.136719 107.078125 13.136719 107.597656 C 13.132812 108.214844 12.984375 108.613281 12.675781 108.824219 C 12.585938 108.882812 12.492188 108.925781 12.382812 108.953125 C 12.539062 109.308594 12.84375 109.8125 13.21875 109.832031 C 13.289062 109.835938 13.367188 109.824219 13.441406 109.796875 L 13.488281 109.78125 C 13.625 109.726562 13.757812 109.625 13.878906 109.488281 C 14.171875 109.152344 14.324219 108.667969 14.257812 108.28125 C 14.117188 107.484375 12.757812 103.277344 12.742188 103.234375 C 12.710938 103.128906 12.769531 103.015625 12.871094 102.980469 C 12.980469 102.945312 13.089844 103.003906 13.125 103.109375 C 13.179688 103.285156 14.511719 107.386719 14.652344 108.210938 C 14.742188 108.71875 14.554688 109.324219 14.175781 109.753906 C 14.121094 109.820312 14.0625 109.878906 14 109.929688 C 14.105469 109.925781 14.269531 109.914062 14.464844 109.84375 L 14.566406 109.769531 L 14.625 109.6875 C 14.929688 109.210938 15.214844 107.753906 15.324219 106.441406 C 15.335938 106.332031 15.417969 106.25 15.542969 106.257812 C 15.652344 106.269531 15.734375 106.367188 15.726562 106.476562 C 15.679688 107.003906 15.542969 108.328125 15.238281 109.253906 C 15.539062 108.824219 15.882812 108.109375 16.121094 107.429688 C 16.160156 107.324219 16.273438 107.269531 16.375 107.304688 C 16.480469 107.34375 16.539062 107.457031 16.5 107.5625 C 16.296875 108.140625 15.59375 109.964844 14.839844 110.042969 C 14.765625 110.128906 14.683594 110.191406 14.597656 110.222656 C 14.367188 110.304688 14.171875 110.332031 14.011719 110.332031 Z M 87.808594 117.664062 C 87.757812 117.664062 87.707031 117.644531 87.667969 117.605469 C 87.585938 117.527344 87.589844 117.398438 87.667969 117.320312 L 91.800781 113.238281 C 91.15625 113.394531 90.234375 113.625 89.765625 113.773438 C 89.03125 114 87.378906 115.179688 87.363281 115.1875 C 87.273438 115.253906 87.148438 115.234375 87.085938 115.140625 C 87.019531 115.050781 87.039062 114.925781 87.132812 114.863281 C 87.203125 114.8125 88.851562 113.636719 89.648438 113.386719 C 90.359375 113.164062 92.019531 112.769531 92.351562 112.691406 L 93.125 111.925781 C 93.203125 111.847656 93.332031 111.847656 93.40625 111.929688 C 93.484375 112.007812 93.484375 112.132812 93.40625 112.214844 L 92.601562 113.007812 L 92.585938 113.023438 L 87.949219 117.609375 C 87.910156 117.644531 87.859375 117.664062 87.808594 117.664062 Z M 70.730469 125.886719 C 70.621094 125.886719 70.53125 125.796875 70.53125 125.683594 C 70.546875 117.496094 70.03125 100.984375 70.027344 100.820312 C 70.023438 100.707031 70.113281 100.617188 70.222656 100.613281 C 70.328125 100.601562 70.425781 100.695312 70.429688 100.804688 C 70.433594 100.972656 70.949219 117.492188 70.929688 125.683594 C 70.929688 125.796875 70.839844 125.886719 70.730469 125.886719 Z M 57.746094 127.527344 L 57.738281 127.527344 C 57.628906 127.523438 57.542969 127.425781 57.546875 127.316406 L 59.039062 95.652344 L 52.074219 91.136719 C 52.019531 91.101562 51.988281 91.039062 51.984375 90.972656 C 51.984375 90.90625 52.015625 90.84375 52.070312 90.804688 L 53.886719 89.542969 C 53.976562 89.480469 54.105469 89.5 54.167969 89.59375 C 54.230469 89.683594 54.207031 89.808594 54.117188 89.871094 L 52.542969 90.960938 L 59.355469 95.375 C 59.414062 95.414062 59.449219 95.480469 59.445312 95.554688 L 57.949219 127.335938 C 57.941406 127.445312 57.855469 127.527344 57.746094 127.527344 Z M 20.296875 128.242188 L 20.203125 128.214844 C 20.105469 128.164062 20.070312 128.042969 20.121094 127.945312 C 20.15625 127.882812 23.539062 121.554688 22.3125 114.664062 C 21.085938 107.742188 17.003906 101.296875 16.964844 101.230469 C 16.902344 101.136719 16.929688 101.015625 17.023438 100.957031 C 17.117188 100.894531 17.238281 100.921875 17.300781 101.015625 C 17.339844 101.078125 21.464844 107.59375 22.710938 114.597656 C 23.960938 121.625 20.507812 128.074219 20.476562 128.136719 C 20.4375 128.203125 20.367188 128.242188 20.296875 128.242188 Z M 43.511719 128.242188 C 43.441406 128.242188 43.375 128.207031 43.335938 128.140625 C 43.28125 128.046875 37.945312 118.726562 34.878906 114.703125 C 31.890625 110.78125 28.765625 105.09375 26.898438 101.691406 C 26.550781 101.058594 26.25 100.511719 26.015625 100.089844 C 24.539062 97.46875 22.214844 93.253906 22.191406 93.214844 C 22.140625 93.117188 22.175781 92.996094 22.269531 92.941406 L 24.667969 91.554688 C 23.347656 91.222656 21.136719 90.535156 21.03125 90.5 C 20.921875 90.46875 20.863281 90.355469 20.898438 90.25 C 20.929688 90.140625 21.042969 90.085938 21.148438 90.117188 C 21.179688 90.125 24.117188 91.042969 25.25 91.28125 C 25.328125 91.296875 25.394531 91.359375 25.40625 91.445312 C 25.417969 91.527344 25.378906 91.609375 25.308594 91.648438 L 22.640625 93.191406 C 23.09375 94.011719 25.058594 97.574219 26.363281 99.894531 C 26.601562 100.316406 26.902344 100.863281 27.25 101.496094 C 29.109375 104.886719 32.226562 110.5625 35.195312 114.460938 C 38.28125 118.503906 43.632812 127.847656 43.683594 127.941406 C 43.738281 128.039062 43.707031 128.160156 43.609375 128.214844 Z M 26.921875 151.773438 C 24.234375 151.773438 18.554688 151.277344 15.273438 150.390625 C 15.164062 150.363281 15.101562 150.253906 15.128906 150.144531 C 15.160156 150.039062 15.269531 149.972656 15.375 150.003906 C 19.757812 151.1875 27.40625 151.480469 28.125 151.320312 C 28.382812 150.699219 29.019531 144.835938 28.398438 144.15625 L 28.335938 144.144531 C 27.097656 144.667969 19.269531 143.285156 18.378906 143.125 C 18.269531 143.105469 18.199219 143 18.214844 142.890625 C 18.238281 142.78125 18.339844 142.710938 18.449219 142.730469 C 20.832031 143.15625 27.222656 144.175781 28.179688 143.773438 C 28.402344 143.679688 28.613281 143.75 28.753906 143.964844 C 29.441406 144.984375 28.765625 151.257812 28.398438 151.625 C 28.300781 151.722656 27.757812 151.773438 26.921875 151.773438 Z M 45.050781 209.066406 L 45.003906 209.0625 C 44.894531 209.035156 44.832031 208.925781 44.855469 208.820312 L 49.496094 189.667969 C 49.519531 189.558594 49.625 189.492188 49.738281 189.519531 C 49.84375 189.546875 49.910156 189.652344 49.882812 189.761719 L 45.246094 208.914062 C 45.222656 209.007812 45.140625 209.066406 45.050781 209.066406 Z M 60.765625 238.90625 L 60.652344 238.871094 C 60.5625 238.808594 60.539062 238.683594 60.601562 238.59375 L 63.140625 234.855469 C 63.203125 234.765625 63.324219 234.742188 63.417969 234.804688 C 63.507812 234.867188 63.53125 234.992188 63.46875 235.082031 L 60.933594 238.820312 C 60.894531 238.875 60.828125 238.90625 60.765625 238.90625 Z M 29.707031 242.492188 C 29.632812 242.492188 29.5625 242.449219 29.527344 242.375 C 29.480469 242.277344 29.519531 242.15625 29.621094 242.109375 C 32.578125 240.679688 35.125 238.488281 36.984375 235.777344 C 37.050781 235.683594 37.171875 235.660156 37.265625 235.726562 C 37.355469 235.789062 37.378906 235.914062 37.316406 236.003906 C 35.417969 238.773438 32.816406 241.011719 29.796875 242.46875 Z M 51.71875 274.492188 C 49.625 274.492188 47.328125 273.644531 45.300781 272.894531 C 44.855469 272.730469 44.425781 272.570312 44.007812 272.425781 C 43.902344 272.386719 43.847656 272.273438 43.882812 272.167969 C 43.921875 272.0625 44.035156 272.007812 44.140625 272.046875 C 44.558594 272.191406 44.992188 272.351562 45.4375 272.515625 C 47.464844 273.265625 49.769531 274.109375 51.808594 274.09375 C 54.050781 274.0625 56.234375 273.183594 58.488281 271.40625 C 58.574219 271.335938 58.699219 271.351562 58.765625 271.4375 C 58.835938 271.527344 58.820312 271.652344 58.734375 271.722656 C 56.410156 273.558594 54.148438 274.464844 51.8125 274.492188 Z M 52.878906 280.980469 L 52.808594 280.964844 L 48.957031 279.472656 C 48.855469 279.429688 48.804688 279.316406 48.84375 279.210938 C 48.886719 279.109375 49 279.058594 49.105469 279.097656 L 51.664062 280.089844 L 50.40625 279.113281 C 50.316406 279.046875 50.300781 278.921875 50.367188 278.832031 C 50.433594 278.746094 50.5625 278.726562 50.648438 278.796875 L 53.003906 280.621094 C 53.082031 280.679688 53.101562 280.789062 53.054688 280.878906 C 53.019531 280.941406 52.949219 280.980469 52.878906 280.980469 Z M 35.039062 283.105469 C 27.445312 283.105469 21.4375 279.753906 21.375 279.714844 C 21.277344 279.660156 21.246094 279.539062 21.300781 279.445312 C 21.355469 279.347656 21.476562 279.3125 21.574219 279.367188 C 21.636719 279.402344 28.109375 283.011719 36.070312 282.679688 C 36.199219 282.671875 36.273438 282.761719 36.277344 282.875 C 36.285156 282.984375 36.199219 283.078125 36.089844 283.082031 C 35.734375 283.097656 35.382812 283.105469 35.039062 283.105469 Z M 27.007812 292.359375 L 27.003906 292.359375 C 26.902344 292.359375 26.820312 292.277344 26.808594 292.175781 L 26.378906 287.417969 C 26.367188 287.308594 26.449219 287.210938 26.558594 287.203125 C 26.679688 287.191406 26.765625 287.273438 26.777344 287.386719 L 27.03125 290.199219 L 27.164062 289.035156 C 27.179688 288.925781 27.269531 288.851562 27.390625 288.859375 C 27.5 288.871094 27.578125 288.972656 27.5625 289.082031 L 27.207031 292.179688 C 27.195312 292.28125 27.109375 292.359375 27.007812 292.359375 Z M 68.363281 292.664062 C 66.339844 292.664062 64.035156 292.390625 61.566406 292.09375 L 60.453125 291.964844 C 56.648438 291.519531 54.894531 289.792969 53.734375 288.652344 C 53.199219 288.125 52.777344 287.710938 52.347656 287.597656 C 51.5625 287.390625 51.132812 287.445312 50.535156 287.523438 C 50.046875 287.585938 49.441406 287.660156 48.480469 287.601562 C 46.386719 287.476562 41.5625 285.492188 41.359375 285.40625 C 41.253906 285.363281 41.207031 285.25 41.25 285.144531 C 41.289062 285.042969 41.40625 284.996094 41.507812 285.039062 C 41.558594 285.058594 46.476562 287.078125 48.503906 287.203125 C 49.429688 287.257812 49.988281 287.1875 50.484375 287.121094 C 51.097656 287.042969 51.589844 286.980469 52.449219 287.207031 C 52.984375 287.347656 53.4375 287.796875 54.015625 288.363281 C 55.203125 289.535156 56.832031 291.136719 60.5 291.566406 L 61.617188 291.695312 C 66.507812 292.277344 70.734375 292.78125 73.34375 291.214844 C 73.4375 291.160156 73.5625 291.191406 73.617188 291.285156 C 73.671875 291.382812 73.644531 291.503906 73.546875 291.5625 C 72.179688 292.382812 70.414062 292.664062 68.363281 292.664062 Z M 35.226562 303.84375 C 32.160156 303.84375 28.519531 302.539062 26.582031 300.644531 C 25.050781 299.148438 24.675781 296.804688 24.597656 295.367188 L 23.011719 293.058594 C 22.949219 292.964844 22.972656 292.84375 23.066406 292.78125 C 23.15625 292.714844 23.28125 292.738281 23.34375 292.832031 L 24.578125 294.632812 C 24.582031 294.332031 24.59375 294.144531 24.597656 294.109375 C 24.605469 294 24.703125 293.917969 24.8125 293.921875 C 24.921875 293.929688 25.007812 294.027344 24.996094 294.136719 C 24.996094 294.179688 24.710938 298.253906 26.863281 300.355469 C 28.972656 302.421875 33.378906 303.792969 36.484375 303.359375 C 39.4375 302.941406 41.75 301.011719 41.773438 300.992188 C 41.859375 300.921875 41.984375 300.929688 42.054688 301.015625 C 42.128906 301.097656 42.121094 301.226562 42.035156 301.300781 C 41.9375 301.378906 39.613281 303.324219 36.539062 303.753906 C 36.117188 303.8125 35.679688 303.84375 35.226562 303.84375 " fill-opacity="1" fill-rule="nonzero"/><path fill="#f44c4a" d="M 41.609375 75.867188 C 40.859375 75.867188 40.09375 75.527344 39.644531 75.230469 C 39.550781 75.171875 39.527344 75.046875 39.589844 74.957031 C 39.648438 74.863281 39.773438 74.835938 39.867188 74.898438 C 39.886719 74.910156 41.808594 76.144531 42.769531 74.9375 C 42.839844 74.851562 42.964844 74.839844 43.054688 74.910156 C 43.140625 74.976562 43.152344 75.105469 43.082031 75.191406 C 42.683594 75.691406 42.148438 75.867188 41.609375 75.867188 " fill-opacity="1" fill-rule="nonzero"/><path fill="#000000" d="M 29.253906 73.957031 C 29.253906 73.957031 31.074219 79.101562 33.53125 80.945312 C 37.589844 83.980469 44.492188 82.886719 44.492188 82.886719 L 45.378906 85.101562 C 44.890625 82.632812 44.761719 80.597656 44.75 79.796875 C 44.726562 77.960938 47.617188 76.03125 48.003906 73.957031 C 48.003906 73.957031 45.886719 78.035156 41.339844 78.726562 C 36.0625 79.527344 29.253906 73.957031 29.253906 73.957031 " fill-opacity="1" fill-rule="nonzero"/><path fill="#000000" d="M 44.589844 62.914062 C 44.589844 63.390625 44.203125 63.773438 43.730469 63.773438 C 43.257812 63.773438 42.871094 63.390625 42.871094 62.914062 C 42.871094 62.445312 43.257812 62.058594 43.730469 62.058594 C 44.203125 62.058594 44.589844 62.445312 44.589844 62.914062 " fill-opacity="1" fill-rule="nonzero"/><path fill="#000000" d="M 36.292969 62.703125 C 36.292969 63.175781 35.90625 63.558594 35.433594 63.558594 C 34.960938 63.558594 34.574219 63.175781 34.574219 62.703125 C 34.574219 62.226562 34.960938 61.84375 35.433594 61.84375 C 35.90625 61.84375 36.292969 62.226562 36.292969 62.703125 " fill-opacity="1" fill-rule="nonzero"/><path fill="#000000" d="M 37.339844 69.90625 L 44.113281 70.722656 C 44.449219 70.761719 44.554688 71.195312 44.277344 71.382812 C 43.519531 71.894531 42.292969 72.570312 41.09375 72.570312 C 39.84375 72.570312 38.121094 71.382812 37.070312 70.550781 C 36.78125 70.320312 36.976562 69.859375 37.339844 69.90625 " fill-opacity="1" fill-rule="nonzero"/><path fill="#fde4d4" d="M 43.5625 70.882812 C 43.667969 70.890625 43.734375 70.996094 43.695312 71.09375 C 43.625 71.265625 43.441406 71.503906 42.945312 71.628906 C 42.203125 71.816406 39.007812 71.152344 38.242188 70.992188 C 38.160156 70.972656 37.945312 70.8125 37.847656 70.667969 L 37.699219 70.390625 C 37.707031 70.304688 37.785156 70.242188 37.875 70.253906 L 43.5625 70.882812 " fill-opacity="1" fill-rule="nonzero"/></svg>