<svg xmlns="http://www.w3.org/2000/svg" xmlns:xlink="http://www.w3.org/1999/xlink" width="150" zoomAndPan="magnify" viewBox="0 0 112.5 30.000001" height="40" preserveAspectRatio="xMidYMid meet" version="1.0"><defs><g/></defs><path fill="#5253f4" d="M 31.183594 1.402344 C 29.863281 1.945312 27.855469 3.273438 26.75 4.324219 C 25.78125 5.242188 25.695312 5.464844 26.378906 5.355469 C 28.089844 5.101562 30.035156 5.207031 32.085938 5.664062 C 32.777344 5.824219 33.253906 5.867188 33.253906 5.773438 C 33.253906 5.632812 32.96875 5.101562 32.765625 4.867188 C 32.140625 4.144531 32.011719 2.582031 32.488281 1.582031 C 32.882812 0.785156 32.703125 0.765625 31.183594 1.402344 Z M 31.183594 1.402344 " fill-opacity="1" fill-rule="nonzero"/><path fill="#5253f4" d="M 27.867188 7.175781 C 27.652344 7.21875 27.621094 7.292969 27.621094 7.664062 C 27.621094 8.3125 27.824219 11.660156 27.941406 12.84375 C 28.097656 14.5 28.367188 18.488281 28.367188 19.179688 C 28.367188 19.539062 28.417969 19.976562 28.480469 20.167969 C 28.578125 20.445312 28.652344 20.496094 28.9375 20.496094 C 29.28125 20.496094 31.078125 19.964844 31.523438 19.742188 C 31.992188 19.496094 32.011719 19.261719 31.875 15.320312 C 31.808594 13.289062 31.726562 10.832031 31.691406 9.863281 C 31.628906 7.800781 31.585938 7.695312 30.84375 7.589844 C 30.566406 7.546875 30.046875 7.453125 29.695312 7.367188 C 28.917969 7.1875 28.183594 7.113281 27.867188 7.175781 Z M 27.867188 7.175781 " fill-opacity="1" fill-rule="nonzero"/><path fill="#5253f4" d="M 33.597656 7.929688 C 33.53125 7.953125 33.46875 8.058594 33.46875 8.152344 C 33.46875 8.449219 34.636719 11.746094 34.902344 12.226562 C 35 12.386719 35.167969 12.820312 35.296875 13.183594 C 35.476562 13.746094 35.742188 14.414062 36.65625 16.617188 C 37.125 17.734375 37.519531 18.476562 37.6875 18.5625 C 37.828125 18.636719 38.316406 18.605469 39.316406 18.464844 C 41.25 18.191406 41.175781 18.222656 41.472656 17.710938 C 42.324219 16.203125 44.003906 13.894531 44.3125 13.777344 C 44.472656 13.722656 45.800781 12.417969 45.800781 12.320312 C 45.800781 12.160156 45.535156 12.003906 44.78125 11.714844 C 44.375 11.566406 43.90625 11.375 43.726562 11.300781 C 43.183594 11.066406 42.960938 11.054688 42.664062 11.246094 C 42.34375 11.449219 41.769531 12.246094 41.453125 12.917969 C 41.335938 13.160156 41.101562 13.585938 40.921875 13.839844 C 40.738281 14.105469 40.496094 14.542969 40.378906 14.808594 C 40.207031 15.210938 40.125 15.296875 39.933594 15.265625 C 39.75 15.246094 39.644531 15.097656 39.496094 14.703125 C 39.378906 14.40625 39.132812 13.765625 38.941406 13.265625 C 38.742188 12.765625 38.367188 11.734375 38.101562 10.980469 C 37.835938 10.214844 37.527344 9.480469 37.421875 9.34375 C 37.082031 8.886719 34.074219 7.769531 33.597656 7.929688 Z M 33.597656 7.929688 " fill-opacity="1" fill-rule="nonzero"/><path fill="#5253f4" d="M 18.957031 8.652344 C 18.671875 8.726562 18.328125 8.84375 18.210938 8.898438 C 18.097656 8.949219 17.808594 9.058594 17.574219 9.152344 C 15.152344 10.066406 14.171875 10.554688 13.714844 11.078125 C 13.429688 11.40625 13.40625 11.480469 13.480469 11.90625 C 13.535156 12.160156 13.621094 12.492188 13.683594 12.640625 C 13.746094 12.777344 13.875 13.183594 13.972656 13.53125 C 14.066406 13.882812 14.203125 14.382812 14.28125 14.648438 C 14.363281 14.914062 14.523438 15.488281 14.640625 15.925781 C 14.980469 17.160156 15.054688 17.382812 15.4375 18.582031 C 15.640625 19.199219 15.90625 19.933594 16.023438 20.230469 C 16.140625 20.519531 16.289062 20.964844 16.351562 21.199219 C 16.5 21.792969 16.808594 21.910156 18.019531 21.847656 C 20.082031 21.742188 21.839844 21.292969 22.871094 20.613281 C 23.625 20.113281 24.65625 19.167969 24.867188 18.765625 C 24.953125 18.613281 25.175781 18.191406 25.378906 17.828125 C 26.039062 16.605469 26.175781 16.019531 26.164062 14.542969 C 26.164062 12.800781 25.878906 11.949219 24.78125 10.417969 C 24.25 9.671875 23.285156 8.960938 22.378906 8.652344 C 21.753906 8.441406 19.742188 8.441406 18.957031 8.652344 Z M 20.414062 11.566406 C 20.847656 11.566406 21.988281 13.085938 21.988281 13.671875 C 21.988281 13.777344 22.039062 13.914062 22.105469 13.980469 C 22.328125 14.203125 22.347656 15.828125 22.144531 16.519531 C 21.847656 17.550781 21.65625 17.933594 21.230469 18.316406 C 20.816406 18.6875 20.699219 18.730469 19.882812 18.847656 C 19.433594 18.902344 19.425781 18.902344 19.253906 18.507812 C 19.074219 18.09375 18.976562 17.636719 18.808594 16.511719 C 18.753906 16.160156 18.660156 15.660156 18.59375 15.394531 C 18.542969 15.128906 18.4375 14.648438 18.382812 14.332031 C 18.328125 14.011719 18.210938 13.417969 18.128906 13 C 17.9375 12.152344 18 11.96875 18.5 11.777344 C 18.902344 11.621094 19.851562 11.46875 20.050781 11.523438 C 20.136719 11.542969 20.296875 11.566406 20.414062 11.566406 Z M 20.414062 11.566406 " fill-opacity="1" fill-rule="nonzero"/><path fill="#5253f4" d="M 47.511719 12.386719 C 47.457031 12.492188 47.382812 12.808594 47.339844 13.109375 C 47.257812 13.777344 47.066406 14.671875 46.980469 14.808594 C 46.875 14.988281 46.660156 16.050781 46.660156 16.46875 C 46.652344 16.679688 46.714844 16.902344 46.789062 16.96875 C 46.863281 17.03125 47.375 17.160156 47.925781 17.265625 C 49.0625 17.464844 50.433594 17.839844 51.382812 18.210938 C 51.730469 18.339844 52.1875 18.507812 52.390625 18.582031 C 52.59375 18.65625 53.144531 18.902344 53.613281 19.125 C 55.644531 20.09375 55.730469 20.101562 55.941406 19.507812 C 56.070312 19.15625 55.867188 18.902344 55.292969 18.699219 C 55.070312 18.625 54.507812 18.382812 54.039062 18.15625 C 53.570312 17.945312 52.953125 17.679688 52.65625 17.574219 C 50.957031 16.96875 50.542969 16.796875 50.5 16.691406 C 50.433594 16.476562 50.691406 16.136719 50.925781 16.136719 C 51.050781 16.136719 51.328125 16.191406 51.53125 16.253906 C 52.488281 16.5625 53.984375 17.125 54.464844 17.371094 C 54.761719 17.507812 55.050781 17.625 55.113281 17.625 C 55.273438 17.625 55.496094 17.105469 55.421875 16.882812 C 55.355469 16.667969 54.335938 16.234375 52.414062 15.59375 C 51.691406 15.351562 51.074219 15.085938 51.042969 15.011719 C 51.007812 14.925781 51.019531 14.734375 51.050781 14.585938 C 51.117188 14.339844 51.167969 14.308594 51.457031 14.371094 C 51.636719 14.40625 51.933594 14.511719 52.105469 14.597656 C 52.285156 14.679688 52.507812 14.753906 52.613281 14.753906 C 52.722656 14.753906 52.828125 14.796875 52.871094 14.851562 C 52.902344 14.90625 53.082031 14.988281 53.261719 15.03125 C 53.453125 15.0625 53.675781 15.136719 53.773438 15.179688 C 53.859375 15.222656 54.144531 15.351562 54.410156 15.445312 C 55.144531 15.722656 55.273438 15.777344 55.890625 16.03125 C 56.484375 16.277344 56.632812 16.234375 56.644531 15.796875 C 56.644531 15.605469 56.378906 15.289062 56.207031 15.289062 C 56.15625 15.289062 55.910156 15.191406 55.65625 15.085938 C 55.410156 14.96875 54.972656 14.796875 54.675781 14.703125 C 54.101562 14.511719 54.09375 14.5 52.953125 14.011719 C 52.53125 13.832031 51.839844 13.566406 51.414062 13.417969 C 49.402344 12.703125 47.90625 12.203125 47.765625 12.203125 C 47.683594 12.203125 47.566406 12.289062 47.511719 12.386719 Z M 47.511719 12.386719 " fill-opacity="1" fill-rule="nonzero"/><path fill="#5253f4" d="M 9.699219 13.011719 C 8.773438 13.628906 7.347656 15.019531 6.710938 15.925781 C 6.082031 16.796875 5.65625 17.828125 5.59375 18.613281 C 5.550781 19.113281 5.5 19.261719 5.285156 19.414062 C 4.179688 20.1875 3.925781 20.75 4.339844 21.527344 C 4.660156 22.132812 5.019531 22.25 6.390625 22.15625 C 6.976562 22.113281 7.539062 22.039062 7.644531 21.972656 C 7.859375 21.867188 9.101562 21.71875 11.441406 21.539062 C 13.375 21.390625 13.386719 21.378906 13.121094 20.347656 C 12.886719 19.476562 12.429688 17.976562 12.25 17.519531 C 12.175781 17.316406 11.984375 16.691406 11.824219 16.136719 C 11.675781 15.585938 11.503906 15.019531 11.453125 14.882812 C 11.398438 14.746094 11.355469 14.53125 11.355469 14.40625 C 11.355469 14.277344 11.238281 13.808594 11.113281 13.375 C 10.804688 12.375 10.675781 12.34375 9.699219 13.011719 Z M 9.699219 13.011719 " fill-opacity="1" fill-rule="nonzero"/><path fill="#5253f4" d="M 58.375 16.785156 C 58.132812 16.871094 58.003906 17.210938 57.800781 18.242188 C 57.652344 19.039062 57.726562 20.636719 57.929688 20.878906 C 58.066406 21.050781 58.078125 21.050781 59.324219 20.859375 C 59.855469 20.773438 59.929688 20.976562 59.664062 21.75 C 59.523438 22.175781 59.472656 22.625 59.480469 23.410156 C 59.480469 24.355469 59.515625 24.558594 59.78125 25.109375 C 60.300781 26.183594 61.523438 27.152344 62.171875 27.015625 C 62.265625 26.992188 62.492188 26.652344 62.671875 26.257812 C 62.949219 25.664062 63.183594 25.375 63.980469 24.652344 C 64.679688 24.003906 65.03125 23.589844 65.265625 23.144531 C 65.433594 22.804688 65.574219 22.453125 65.574219 22.355469 C 65.574219 22.070312 65.882812 22.058594 66.710938 22.304688 C 68.070312 22.707031 69.15625 22.515625 71.582031 21.464844 C 71.996094 21.285156 72.75 21.007812 73.261719 20.859375 C 74.789062 20.378906 74.695312 20.242188 72.21875 19.242188 C 71.121094 18.804688 70.65625 18.667969 69.558594 18.464844 C 68.613281 18.285156 67.050781 18.230469 66.921875 18.359375 C 66.859375 18.421875 66.65625 18.476562 66.476562 18.476562 C 66.285156 18.476562 65.902344 18.550781 65.617188 18.636719 C 64.914062 18.847656 63.46875 18.839844 62.777344 18.613281 C 62.46875 18.519531 61.703125 18.167969 61.054688 17.839844 C 59.269531 16.933594 58.640625 16.679688 58.375 16.785156 Z M 58.375 16.785156 " fill-opacity="1" fill-rule="nonzero"/><path fill="#5253f4" d="M 20.710938 22.953125 C 19.617188 23.25 18.488281 23.472656 18.105469 23.472656 C 17.9375 23.472656 17.714844 23.527344 17.628906 23.578125 C 17.308594 23.804688 19.148438 25.164062 20.710938 25.867188 C 20.914062 25.949219 21.296875 26.140625 21.5625 26.28125 C 21.828125 26.417969 22.519531 26.683594 23.101562 26.863281 C 23.6875 27.046875 24.324219 27.246094 24.527344 27.3125 C 24.804688 27.40625 27.292969 27.589844 28.558594 27.621094 C 28.832031 27.621094 28.875 27.324219 28.609375 27.226562 C 27.929688 27.003906 25.675781 25.832031 25.113281 25.429688 C 24.730469 25.164062 23.953125 24.472656 23.378906 23.886719 C 22.167969 22.644531 22.03125 22.601562 20.710938 22.953125 Z M 20.710938 22.953125 " fill-opacity="1" fill-rule="nonzero"/><g fill="#f44c4a" fill-opacity="1"><g transform="translate(5.893587, 15.051883)"><g><path d="M 0.707031 -1.433594 C 0.898438 -1.273438 1.058594 -1.226562 1.265625 -1.273438 C 1.359375 -1.296875 1.386719 -1.308594 1.40625 -1.351562 C 1.4375 -1.40625 1.421875 -1.425781 1.359375 -1.398438 C 1.335938 -1.386719 1.296875 -1.390625 1.265625 -1.410156 C 0.984375 -1.5625 0.625 -2.152344 0.226562 -3.117188 C -0.0273438 -3.746094 -0.179688 -4.039062 -0.300781 -4.140625 C -0.347656 -4.1875 -0.449219 -4.191406 -0.511719 -4.148438 C -0.535156 -4.132812 -0.558594 -4.125 -0.566406 -4.132812 C -0.570312 -4.140625 -0.578125 -4.132812 -0.578125 -4.121094 C -0.582031 -4.113281 -0.589844 -4.109375 -0.601562 -4.117188 C -0.636719 -4.15625 -0.65625 -4.164062 -0.679688 -4.132812 C -0.71875 -4.089844 -0.710938 -4.046875 -0.621094 -3.875 C -0.582031 -3.789062 -0.503906 -3.582031 -0.445312 -3.414062 C -0.308594 -3.019531 -0.273438 -2.90625 -0.171875 -2.65625 C -0.0117188 -2.246094 0.226562 -1.496094 0.304688 -1.179688 C 0.359375 -0.9375 0.398438 -0.480469 0.363281 -0.441406 C 0.332031 -0.40625 0.0585938 -0.707031 -0.0976562 -0.945312 C -0.410156 -1.425781 -0.59375 -1.777344 -0.929688 -2.5625 C -1.234375 -3.269531 -1.289062 -3.375 -1.359375 -3.390625 C -1.390625 -3.394531 -1.414062 -3.398438 -1.421875 -3.390625 C -1.4375 -3.375 -1.519531 -3.371094 -1.554688 -3.386719 C -1.636719 -3.421875 -1.660156 -3.289062 -1.613281 -3.0625 C -1.464844 -2.363281 -1.042969 -1.355469 -0.640625 -0.753906 C -0.515625 -0.566406 -0.496094 -0.546875 -0.296875 -0.371094 C -0.113281 -0.210938 -0.0742188 -0.183594 0.015625 -0.152344 C 0.128906 -0.109375 0.304688 -0.109375 0.371094 -0.148438 C 0.390625 -0.164062 0.4375 -0.183594 0.476562 -0.1875 C 0.554688 -0.199219 0.628906 -0.269531 0.648438 -0.355469 C 0.667969 -0.4375 0.609375 -0.882812 0.550781 -1.128906 C 0.519531 -1.246094 0.457031 -1.480469 0.402344 -1.640625 C 0.351562 -1.800781 0.3125 -1.929688 0.316406 -1.933594 C 0.324219 -1.933594 0.347656 -1.894531 0.375 -1.851562 C 0.472656 -1.6875 0.597656 -1.527344 0.707031 -1.433594 Z M 0.703125 -1.804688 C 0.707031 -1.796875 0.695312 -1.800781 0.675781 -1.8125 C 0.664062 -1.828125 0.664062 -1.835938 0.675781 -1.828125 C 0.691406 -1.824219 0.703125 -1.8125 0.703125 -1.804688 Z M 0.492188 -2.148438 C 0.507812 -2.128906 0.523438 -2.09375 0.53125 -2.078125 C 0.535156 -2.058594 0.53125 -2.0625 0.515625 -2.085938 C 0.5 -2.109375 0.480469 -2.140625 0.472656 -2.15625 C 0.46875 -2.175781 0.472656 -2.175781 0.492188 -2.148438 Z M -0.265625 -3.792969 C -0.25 -3.769531 -0.117188 -3.476562 0.03125 -3.140625 C 0.175781 -2.800781 0.332031 -2.457031 0.378906 -2.367188 C 0.453125 -2.222656 0.472656 -2.175781 0.453125 -2.199219 C 0.445312 -2.203125 0.335938 -2.40625 0.289062 -2.511719 C 0.191406 -2.714844 -0.289062 -3.832031 -0.265625 -3.792969 Z M 0.121094 -2.625 C 0.113281 -2.640625 0.117188 -2.652344 0.125 -2.644531 C 0.132812 -2.632812 0.140625 -2.617188 0.148438 -2.597656 C 0.15625 -2.582031 0.152344 -2.574219 0.144531 -2.582031 C 0.136719 -2.589844 0.125 -2.609375 0.121094 -2.625 Z M -0.0351562 -2.546875 C -0.0351562 -2.558594 -0.0234375 -2.554688 -0.015625 -2.539062 C 0 -2.511719 0 -2.496094 -0.0234375 -2.515625 C -0.0273438 -2.519531 -0.0351562 -2.535156 -0.0351562 -2.546875 Z M 0.371094 -2.121094 C 0.367188 -2.140625 0.371094 -2.152344 0.378906 -2.140625 C 0.382812 -2.136719 0.394531 -2.117188 0.398438 -2.101562 C 0.40625 -2.085938 0.40625 -2.074219 0.398438 -2.082031 C 0.390625 -2.085938 0.378906 -2.105469 0.371094 -2.121094 Z M 0.578125 -1.78125 C 0.5625 -1.796875 0.5625 -1.804688 0.578125 -1.796875 C 0.59375 -1.792969 0.605469 -1.78125 0.605469 -1.773438 C 0.605469 -1.765625 0.589844 -1.769531 0.578125 -1.78125 Z M 0.734375 -1.636719 C 0.648438 -1.734375 0.394531 -2.15625 0.265625 -2.417969 C 0.144531 -2.667969 -0.253906 -3.578125 -0.246094 -3.585938 C -0.238281 -3.597656 -0.210938 -3.546875 -0.00390625 -3.066406 C 0.230469 -2.535156 0.324219 -2.339844 0.457031 -2.105469 C 0.507812 -2.019531 0.605469 -1.859375 0.667969 -1.757812 C 0.738281 -1.65625 0.765625 -1.601562 0.734375 -1.636719 Z M -0.78125 -1.359375 C -0.78125 -1.375 -0.78125 -1.386719 -0.773438 -1.378906 C -0.769531 -1.371094 -0.753906 -1.351562 -0.75 -1.332031 C -0.746094 -1.320312 -0.746094 -1.3125 -0.753906 -1.316406 C -0.761719 -1.320312 -0.773438 -1.34375 -0.78125 -1.359375 Z M -0.699219 -1.222656 C -0.707031 -1.242188 -0.707031 -1.246094 -0.695312 -1.242188 C -0.6875 -1.234375 -0.675781 -1.214844 -0.671875 -1.199219 C -0.667969 -1.179688 -0.667969 -1.175781 -0.675781 -1.175781 C -0.6875 -1.1875 -0.695312 -1.203125 -0.699219 -1.222656 Z M -0.1875 -0.476562 C -0.273438 -0.539062 -0.664062 -1.097656 -0.625 -1.101562 C -0.621094 -1.101562 -0.597656 -1.070312 -0.574219 -1.027344 C -0.550781 -0.992188 -0.484375 -0.890625 -0.429688 -0.808594 C -0.371094 -0.726562 -0.285156 -0.613281 -0.242188 -0.554688 C -0.195312 -0.496094 -0.167969 -0.460938 -0.1875 -0.476562 Z M -0.125 -0.527344 C -0.0195312 -0.40625 -0.015625 -0.398438 -0.0898438 -0.460938 C -0.332031 -0.664062 -0.707031 -1.265625 -0.980469 -1.902344 C -1.160156 -2.324219 -1.484375 -3.234375 -1.464844 -3.257812 C -1.464844 -3.261719 -1.421875 -3.152344 -1.378906 -3.011719 C -1.058594 -2.046875 -0.675781 -1.238281 -0.292969 -0.726562 C -0.265625 -0.691406 -0.191406 -0.597656 -0.125 -0.527344 Z M 0.0390625 -0.644531 C 0.0429688 -0.632812 0.0273438 -0.640625 0.015625 -0.648438 C 0 -0.667969 0 -0.671875 0.015625 -0.667969 C 0.0273438 -0.660156 0.0390625 -0.648438 0.0390625 -0.644531 Z M -0.199219 -0.714844 C -0.144531 -0.644531 -0.121094 -0.605469 -0.136719 -0.613281 C -0.265625 -0.722656 -0.726562 -1.507812 -0.917969 -1.945312 C -1.070312 -2.296875 -1.425781 -3.246094 -1.410156 -3.261719 C -1.40625 -3.265625 -1.390625 -3.234375 -1.378906 -3.195312 C -1.03125 -2.222656 -0.761719 -1.613281 -0.441406 -1.085938 C -0.355469 -0.949219 -0.25 -0.78125 -0.199219 -0.714844 Z M -0.199219 -0.714844 "/></g></g></g><g fill="#f44c4a" fill-opacity="1"><g transform="translate(7.52868, 13.534116)"><g><path d="M 0.191406 -2.746094 C 0.183594 -2.738281 0.132812 -2.738281 0.0742188 -2.742188 C -0.0898438 -2.757812 -0.132812 -2.726562 -0.210938 -2.554688 C -0.292969 -2.386719 -0.316406 -1.722656 -0.261719 -1.292969 C -0.253906 -1.238281 -0.253906 -1.1875 -0.253906 -1.1875 C -0.265625 -1.175781 -0.3125 -1.34375 -0.382812 -1.625 C -0.417969 -1.789062 -0.460938 -1.933594 -0.464844 -1.941406 C -0.480469 -1.957031 -0.566406 -1.964844 -0.625 -1.949219 C -0.65625 -1.941406 -0.699219 -1.945312 -0.726562 -1.953125 C -0.789062 -1.96875 -0.847656 -1.910156 -0.855469 -1.816406 C -0.871094 -1.699219 -0.769531 -1.246094 -0.679688 -1 C -0.609375 -0.824219 -0.503906 -0.625 -0.433594 -0.539062 C -0.351562 -0.441406 -0.0078125 -0.1875 0.0546875 -0.175781 C 0.0859375 -0.175781 0.117188 -0.175781 0.128906 -0.1875 C 0.136719 -0.191406 0.160156 -0.195312 0.191406 -0.1875 C 0.242188 -0.179688 0.296875 -0.234375 0.308594 -0.308594 C 0.3125 -0.328125 0.273438 -0.535156 0.226562 -0.757812 C 0.09375 -1.339844 0.0585938 -1.648438 0.0859375 -2.097656 C 0.0898438 -2.277344 0.117188 -2.410156 0.132812 -2.371094 C 0.136719 -2.359375 0.1875 -2.210938 0.246094 -2.042969 C 0.304688 -1.871094 0.386719 -1.652344 0.433594 -1.554688 C 0.511719 -1.386719 0.535156 -1.347656 0.6875 -1.15625 C 0.847656 -0.964844 0.867188 -0.945312 0.949219 -0.902344 C 1.054688 -0.84375 1.117188 -0.832031 1.246094 -0.828125 C 1.300781 -0.832031 1.351562 -0.835938 1.363281 -0.84375 C 1.382812 -0.859375 1.382812 -0.859375 1.316406 -0.894531 C 1.210938 -0.9375 1.074219 -1.105469 0.957031 -1.332031 C 0.84375 -1.542969 0.796875 -1.664062 0.675781 -2.019531 C 0.515625 -2.488281 0.398438 -2.6875 0.269531 -2.734375 C 0.230469 -2.746094 0.195312 -2.75 0.191406 -2.746094 Z M -0.0585938 -1.082031 C -0.0546875 -1.085938 -0.0351562 -1.011719 -0.015625 -0.917969 C 0.0234375 -0.75 0.0351562 -0.6875 0.0078125 -0.769531 C -0.0117188 -0.835938 -0.0664062 -1.078125 -0.0585938 -1.082031 Z M -0.597656 -1.242188 C -0.59375 -1.253906 -0.585938 -1.253906 -0.578125 -1.234375 C -0.570312 -1.207031 -0.578125 -1.191406 -0.59375 -1.210938 C -0.597656 -1.21875 -0.601562 -1.234375 -0.597656 -1.242188 Z M -0.570312 -1.179688 C -0.566406 -1.175781 -0.542969 -1.132812 -0.527344 -1.066406 C -0.507812 -1.007812 -0.496094 -0.964844 -0.5 -0.972656 C -0.519531 -0.988281 -0.582031 -1.183594 -0.570312 -1.179688 Z M -0.480469 -0.917969 C -0.488281 -0.941406 -0.488281 -0.949219 -0.476562 -0.933594 C -0.46875 -0.925781 -0.457031 -0.898438 -0.449219 -0.882812 C -0.441406 -0.859375 -0.449219 -0.851562 -0.457031 -0.863281 C -0.46875 -0.875 -0.476562 -0.898438 -0.480469 -0.917969 Z M -0.371094 -0.722656 C -0.375 -0.714844 -0.386719 -0.71875 -0.394531 -0.734375 C -0.40625 -0.75 -0.402344 -0.753906 -0.390625 -0.746094 C -0.382812 -0.742188 -0.371094 -0.730469 -0.371094 -0.722656 Z M -0.414062 -0.796875 C -0.414062 -0.789062 -0.425781 -0.792969 -0.4375 -0.808594 C -0.449219 -0.824219 -0.445312 -0.828125 -0.429688 -0.824219 C -0.421875 -0.820312 -0.410156 -0.804688 -0.414062 -0.796875 Z M -0.480469 -1.097656 C -0.445312 -1.015625 -0.390625 -0.878906 -0.347656 -0.792969 C -0.304688 -0.703125 -0.289062 -0.652344 -0.304688 -0.675781 C -0.394531 -0.777344 -0.554688 -1.199219 -0.617188 -1.5 C -0.671875 -1.765625 -0.65625 -1.761719 -0.59375 -1.5 C -0.558594 -1.359375 -0.507812 -1.183594 -0.480469 -1.097656 Z M -0.429688 -1.09375 C -0.460938 -1.132812 -0.566406 -1.539062 -0.601562 -1.738281 C -0.628906 -1.9375 -0.605469 -1.894531 -0.566406 -1.679688 C -0.550781 -1.574219 -0.507812 -1.402344 -0.476562 -1.296875 C -0.421875 -1.105469 -0.414062 -1.078125 -0.429688 -1.09375 Z M 0.0429688 -0.675781 C 0.0429688 -0.65625 0.0390625 -0.65625 0.03125 -0.679688 C 0.0273438 -0.699219 0.0273438 -0.710938 0.0351562 -0.710938 C 0.0390625 -0.710938 0.046875 -0.695312 0.0429688 -0.675781 Z M 0.15625 -0.46875 C 0.164062 -0.449219 0.175781 -0.417969 0.175781 -0.402344 C 0.175781 -0.378906 0.175781 -0.382812 0.164062 -0.410156 C 0.152344 -0.433594 0.140625 -0.464844 0.140625 -0.480469 C 0.136719 -0.5 0.140625 -0.5 0.15625 -0.46875 Z M 0.0820312 -0.542969 C 0.0859375 -0.527344 0.0859375 -0.523438 0.078125 -0.527344 C 0.0742188 -0.535156 0.0664062 -0.550781 0.0625 -0.566406 C 0.0585938 -0.585938 0.0664062 -0.59375 0.0703125 -0.585938 C 0.078125 -0.578125 0.0820312 -0.558594 0.0820312 -0.542969 Z M -0.0351562 -1.320312 C -0.0234375 -1.246094 0.0117188 -1.0625 0.0429688 -0.910156 C 0.078125 -0.761719 0.113281 -0.605469 0.121094 -0.574219 C 0.132812 -0.539062 0.132812 -0.515625 0.125 -0.519531 C 0.0820312 -0.566406 -0.0898438 -1.46875 -0.0585938 -1.492188 C -0.0546875 -1.5 -0.0546875 -1.492188 -0.0351562 -1.320312 Z M -0.0625 -1.617188 C -0.0625 -1.582031 -0.0703125 -1.566406 -0.078125 -1.578125 C -0.078125 -1.578125 -0.078125 -1.597656 -0.0742188 -1.617188 C -0.0703125 -1.652344 -0.0664062 -1.648438 -0.0625 -1.617188 Z M -0.0703125 -1.703125 C -0.0664062 -1.664062 -0.0742188 -1.648438 -0.0820312 -1.660156 C -0.0859375 -1.664062 -0.0820312 -1.679688 -0.078125 -1.703125 C -0.0703125 -1.738281 -0.0703125 -1.738281 -0.0703125 -1.703125 Z M 0.449219 -1.867188 C 0.445312 -1.882812 0.449219 -1.890625 0.457031 -1.886719 C 0.460938 -1.878906 0.46875 -1.855469 0.46875 -1.839844 C 0.472656 -1.824219 0.46875 -1.816406 0.460938 -1.820312 C 0.457031 -1.828125 0.449219 -1.851562 0.449219 -1.867188 Z M 0.664062 -1.480469 C 0.664062 -1.476562 0.65625 -1.480469 0.644531 -1.492188 C 0.632812 -1.507812 0.632812 -1.515625 0.644531 -1.507812 C 0.660156 -1.5 0.664062 -1.488281 0.664062 -1.480469 Z M 0.625 -1.566406 C 0.632812 -1.542969 0.632812 -1.535156 0.621094 -1.550781 C 0.613281 -1.558594 0.601562 -1.585938 0.59375 -1.601562 C 0.589844 -1.628906 0.589844 -1.632812 0.601562 -1.621094 C 0.613281 -1.609375 0.621094 -1.585938 0.625 -1.566406 Z M 0.328125 -2.371094 C 0.367188 -2.292969 0.589844 -1.636719 0.5625 -1.683594 C 0.546875 -1.710938 0.507812 -1.816406 0.472656 -1.921875 C 0.433594 -2.023438 0.382812 -2.171875 0.359375 -2.25 C 0.304688 -2.402344 0.292969 -2.449219 0.328125 -2.371094 Z M 0.304688 -2.433594 C 0.300781 -2.425781 0.292969 -2.429688 0.285156 -2.445312 C 0.273438 -2.460938 0.273438 -2.464844 0.285156 -2.457031 C 0.296875 -2.453125 0.308594 -2.441406 0.304688 -2.433594 Z M 0.304688 -2.433594 "/></g></g></g><g fill="#f44c4a" fill-opacity="1"><g transform="translate(9.023173, 12.329807)"><g><path d="M -0.777344 -2.074219 C -0.792969 -2.054688 -0.804688 -2.054688 -0.8125 -2.066406 C -0.820312 -2.078125 -0.832031 -2.074219 -0.839844 -2.0625 C -0.847656 -2.050781 -0.863281 -2.046875 -0.886719 -2.0625 C -0.925781 -2.09375 -0.972656 -2.078125 -0.996094 -2.039062 C -1.0625 -1.941406 -0.839844 -1.300781 -0.578125 -0.835938 C -0.3125 -0.351562 -0.0351562 -0.164062 0.320312 -0.222656 C 0.449219 -0.246094 0.480469 -0.285156 0.402344 -0.316406 C 0.28125 -0.371094 0.226562 -0.417969 0.109375 -0.558594 C -0.046875 -0.753906 -0.101562 -0.855469 -0.359375 -1.449219 C -0.628906 -2.070312 -0.636719 -2.078125 -0.703125 -2.09375 C -0.738281 -2.101562 -0.765625 -2.089844 -0.777344 -2.074219 Z M -0.769531 -1.664062 C -0.761719 -1.660156 -0.75 -1.644531 -0.753906 -1.636719 C -0.757812 -1.628906 -0.765625 -1.636719 -0.777344 -1.648438 C -0.785156 -1.664062 -0.785156 -1.667969 -0.769531 -1.664062 Z M -0.695312 -1.445312 C -0.710938 -1.472656 -0.726562 -1.515625 -0.730469 -1.535156 C -0.734375 -1.558594 -0.734375 -1.554688 -0.710938 -1.515625 C -0.699219 -1.484375 -0.679688 -1.449219 -0.675781 -1.425781 C -0.667969 -1.402344 -0.675781 -1.40625 -0.695312 -1.445312 Z M -0.550781 -1.113281 C -0.597656 -1.203125 -0.671875 -1.390625 -0.65625 -1.371094 C -0.644531 -1.363281 -0.613281 -1.292969 -0.578125 -1.214844 C -0.519531 -1.078125 -0.503906 -1.011719 -0.550781 -1.113281 Z M -0.507812 -1.03125 C -0.496094 -1.015625 -0.480469 -1 -0.480469 -0.988281 C -0.476562 -0.976562 -0.484375 -0.984375 -0.5 -1.007812 C -0.519531 -1.03125 -0.519531 -1.042969 -0.507812 -1.03125 Z M -0.320312 -0.691406 C -0.324219 -0.683594 -0.328125 -0.691406 -0.339844 -0.703125 C -0.351562 -0.722656 -0.351562 -0.730469 -0.339844 -0.722656 C -0.328125 -0.714844 -0.320312 -0.703125 -0.320312 -0.691406 Z M -0.449219 -0.902344 C -0.472656 -0.949219 -0.472656 -0.957031 -0.445312 -0.921875 C -0.429688 -0.898438 -0.40625 -0.859375 -0.398438 -0.832031 C -0.371094 -0.765625 -0.410156 -0.820312 -0.449219 -0.902344 Z M -0.207031 -0.601562 C -0.203125 -0.585938 -0.214844 -0.59375 -0.230469 -0.621094 C -0.246094 -0.640625 -0.25 -0.652344 -0.234375 -0.640625 C -0.222656 -0.632812 -0.207031 -0.609375 -0.207031 -0.601562 Z M -0.304688 -0.765625 C -0.253906 -0.675781 -0.253906 -0.675781 -0.296875 -0.726562 C -0.394531 -0.847656 -0.625 -1.367188 -0.769531 -1.773438 C -0.808594 -1.878906 -0.835938 -1.972656 -0.828125 -1.976562 C -0.820312 -1.980469 -0.816406 -1.976562 -0.816406 -1.96875 C -0.808594 -1.90625 -0.539062 -1.242188 -0.417969 -0.984375 C -0.382812 -0.917969 -0.332031 -0.816406 -0.304688 -0.765625 Z M -0.355469 -0.992188 C -0.355469 -0.984375 -0.363281 -0.988281 -0.375 -1.003906 C -0.390625 -1.023438 -0.394531 -1.035156 -0.382812 -1.027344 C -0.371094 -1.019531 -0.359375 -1.007812 -0.355469 -0.992188 Z M -0.390625 -1.066406 C -0.386719 -1.058594 -0.398438 -1.066406 -0.410156 -1.078125 C -0.421875 -1.09375 -0.421875 -1.101562 -0.410156 -1.09375 C -0.398438 -1.085938 -0.390625 -1.074219 -0.390625 -1.066406 Z M -0.457031 -1.207031 C -0.457031 -1.199219 -0.464844 -1.203125 -0.476562 -1.21875 C -0.484375 -1.234375 -0.480469 -1.242188 -0.472656 -1.234375 C -0.460938 -1.226562 -0.453125 -1.214844 -0.457031 -1.207031 Z M -0.492188 -1.300781 C -0.480469 -1.265625 -0.480469 -1.265625 -0.5 -1.285156 C -0.507812 -1.300781 -0.527344 -1.332031 -0.53125 -1.355469 C -0.546875 -1.386719 -0.542969 -1.390625 -0.527344 -1.371094 C -0.515625 -1.355469 -0.503906 -1.320312 -0.492188 -1.300781 Z M -0.542969 -1.414062 C -0.542969 -1.40625 -0.554688 -1.410156 -0.5625 -1.425781 C -0.578125 -1.441406 -0.578125 -1.449219 -0.566406 -1.441406 C -0.554688 -1.433594 -0.546875 -1.421875 -0.542969 -1.414062 Z M -0.570312 -1.480469 C -0.574219 -1.46875 -0.582031 -1.480469 -0.59375 -1.492188 C -0.601562 -1.507812 -0.601562 -1.511719 -0.589844 -1.503906 C -0.578125 -1.496094 -0.570312 -1.488281 -0.570312 -1.480469 Z M -0.683594 -1.769531 C -0.648438 -1.664062 -0.625 -1.585938 -0.628906 -1.59375 C -0.648438 -1.621094 -0.785156 -1.976562 -0.765625 -1.96875 C -0.761719 -1.960938 -0.722656 -1.871094 -0.683594 -1.769531 Z M -1.054688 -2.84375 C -1.105469 -2.804688 -1.175781 -2.625 -1.210938 -2.445312 C -1.234375 -2.339844 -1.230469 -2.335938 -1.183594 -2.308594 C -1.152344 -2.289062 -1.128906 -2.289062 -1.117188 -2.304688 C -1.105469 -2.316406 -1.089844 -2.320312 -1.085938 -2.3125 C -1.078125 -2.304688 -1.066406 -2.320312 -1.058594 -2.347656 C -1.054688 -2.375 -1.050781 -2.378906 -1.050781 -2.363281 C -1.054688 -2.328125 -1.023438 -2.273438 -1 -2.269531 C -0.96875 -2.265625 -0.9375 -2.308594 -0.945312 -2.359375 C -0.953125 -2.453125 -0.914062 -2.65625 -0.875 -2.730469 C -0.855469 -2.765625 -0.84375 -2.808594 -0.851562 -2.820312 C -0.863281 -2.839844 -1.035156 -2.859375 -1.054688 -2.84375 Z M -1.054688 -2.84375 "/></g></g></g><g fill="#f44c4a" fill-opacity="1"><g transform="translate(9.559025, 11.920292)"><g><path d="M 0.289062 -0.203125 C 0.304688 -0.214844 0.34375 -0.222656 0.363281 -0.222656 C 0.414062 -0.222656 0.464844 -0.257812 0.484375 -0.296875 C 0.515625 -0.351562 0.496094 -0.511719 0.425781 -0.867188 C 0.300781 -1.523438 0.226562 -1.992188 0.210938 -2.257812 C 0.199219 -2.433594 0.199219 -2.453125 0.160156 -2.472656 C 0.113281 -2.5 0.00390625 -2.46875 -0.0273438 -2.425781 C -0.0703125 -2.371094 -0.00390625 -1.832031 0.164062 -0.804688 C 0.191406 -0.640625 0.207031 -0.5 0.203125 -0.492188 C 0.191406 -0.484375 0.0859375 -0.628906 -0.0273438 -0.796875 C -0.15625 -0.988281 -0.398438 -1.480469 -0.542969 -1.839844 C -0.5625 -1.894531 -0.582031 -1.945312 -0.585938 -1.949219 C -0.597656 -1.964844 -0.691406 -1.972656 -0.699219 -1.957031 C -0.703125 -1.945312 -0.722656 -1.941406 -0.738281 -1.945312 C -0.753906 -1.941406 -0.765625 -1.941406 -0.761719 -1.933594 C -0.753906 -1.925781 -0.773438 -1.929688 -0.792969 -1.9375 C -0.859375 -1.957031 -0.902344 -1.921875 -0.910156 -1.839844 C -0.917969 -1.765625 -0.84375 -1.519531 -0.753906 -1.320312 C -0.488281 -0.734375 -0.078125 -0.226562 0.171875 -0.191406 C 0.21875 -0.179688 0.265625 -0.1875 0.289062 -0.203125 Z M -0.273438 -0.925781 C -0.222656 -0.84375 -0.179688 -0.769531 -0.183594 -0.761719 C -0.179688 -0.746094 -0.292969 -0.917969 -0.332031 -1 C -0.359375 -1.050781 -0.339844 -1.027344 -0.273438 -0.925781 Z M -0.382812 -1.121094 C -0.378906 -1.105469 -0.390625 -1.113281 -0.410156 -1.140625 C -0.425781 -1.164062 -0.429688 -1.179688 -0.417969 -1.171875 C -0.40625 -1.15625 -0.390625 -1.136719 -0.382812 -1.121094 Z M -0.503906 -1.351562 C -0.488281 -1.328125 -0.464844 -1.289062 -0.453125 -1.257812 L -0.4375 -1.210938 L -0.464844 -1.25 C -0.484375 -1.277344 -0.5 -1.320312 -0.511719 -1.34375 L -0.53125 -1.394531 Z M -0.691406 -1.808594 C -0.691406 -1.832031 -0.691406 -1.828125 -0.679688 -1.796875 C -0.671875 -1.773438 -0.632812 -1.675781 -0.597656 -1.578125 C -0.558594 -1.476562 -0.53125 -1.40625 -0.542969 -1.417969 C -0.566406 -1.449219 -0.691406 -1.773438 -0.691406 -1.808594 Z M -0.453125 -1.039062 C -0.449219 -1.027344 -0.460938 -1.035156 -0.472656 -1.050781 C -0.484375 -1.070312 -0.488281 -1.082031 -0.476562 -1.074219 C -0.464844 -1.066406 -0.457031 -1.050781 -0.453125 -1.039062 Z M -0.261719 -0.789062 C -0.378906 -0.964844 -0.460938 -1.109375 -0.523438 -1.242188 C -0.621094 -1.441406 -0.726562 -1.707031 -0.710938 -1.703125 C -0.707031 -1.707031 -0.679688 -1.644531 -0.648438 -1.566406 C -0.617188 -1.492188 -0.550781 -1.34375 -0.5 -1.230469 C -0.445312 -1.121094 -0.328125 -0.917969 -0.242188 -0.777344 L -0.0820312 -0.527344 Z M -0.261719 -0.789062 "/></g></g></g><g fill="#f44c4a" fill-opacity="1"><g transform="translate(10.646112, 11.15468)"><g><path d="M -0.292969 -2.15625 C -0.433594 -1.992188 -0.511719 -1.777344 -0.542969 -1.488281 C -0.597656 -0.988281 -0.417969 -0.480469 -0.128906 -0.300781 C -0.0273438 -0.242188 0.121094 -0.214844 0.304688 -0.222656 C 0.460938 -0.230469 0.46875 -0.238281 0.5625 -0.300781 C 0.621094 -0.34375 0.675781 -0.394531 0.699219 -0.433594 C 0.84375 -0.667969 0.867188 -1.398438 0.726562 -1.371094 C 0.707031 -1.367188 0.695312 -1.320312 0.695312 -1.230469 C 0.691406 -1.152344 0.675781 -1.015625 0.65625 -0.917969 C 0.609375 -0.703125 0.5 -0.511719 0.375 -0.417969 L 0.292969 -0.359375 L 0.21875 -0.40625 C 0.15625 -0.453125 0.132812 -0.476562 0.0546875 -0.613281 C -0.0234375 -0.757812 -0.109375 -1.003906 -0.078125 -1.003906 C 0.160156 -1.019531 0.300781 -1.144531 0.378906 -1.410156 C 0.46875 -1.71875 0.363281 -2.179688 0.183594 -2.253906 C 0.148438 -2.269531 0.113281 -2.28125 0.113281 -2.277344 C 0.109375 -2.273438 0.0585938 -2.277344 0 -2.285156 C -0.132812 -2.300781 -0.195312 -2.273438 -0.292969 -2.15625 Z M -0.289062 -0.722656 C -0.289062 -0.714844 -0.296875 -0.722656 -0.304688 -0.738281 C -0.316406 -0.75 -0.316406 -0.757812 -0.304688 -0.75 C -0.289062 -0.742188 -0.285156 -0.730469 -0.289062 -0.722656 Z M -0.332031 -0.808594 C -0.339844 -0.820312 -0.347656 -0.847656 -0.347656 -0.867188 C -0.351562 -0.890625 -0.351562 -0.898438 -0.339844 -0.882812 C -0.335938 -0.871094 -0.328125 -0.84375 -0.320312 -0.828125 C -0.320312 -0.800781 -0.324219 -0.792969 -0.332031 -0.808594 Z M -0.21875 -0.648438 C -0.261719 -0.742188 -0.316406 -0.890625 -0.328125 -0.980469 C -0.351562 -1.085938 -0.328125 -1.054688 -0.292969 -0.914062 C -0.273438 -0.84375 -0.238281 -0.738281 -0.21875 -0.683594 C -0.183594 -0.582031 -0.183594 -0.578125 -0.21875 -0.648438 Z M -0.191406 -0.761719 C -0.191406 -0.757812 -0.203125 -0.761719 -0.210938 -0.777344 C -0.222656 -0.796875 -0.21875 -0.796875 -0.207031 -0.789062 C -0.199219 -0.785156 -0.191406 -0.769531 -0.191406 -0.761719 Z M -0.265625 -1.011719 C -0.257812 -1 -0.242188 -0.949219 -0.230469 -0.898438 C -0.222656 -0.832031 -0.21875 -0.824219 -0.234375 -0.867188 C -0.261719 -0.929688 -0.28125 -1.046875 -0.265625 -1.011719 Z M -0.296875 -1.496094 C -0.285156 -1.53125 -0.285156 -1.53125 -0.285156 -1.496094 C -0.289062 -1.460938 -0.292969 -1.445312 -0.300781 -1.457031 C -0.304688 -1.460938 -0.300781 -1.476562 -0.296875 -1.496094 Z M -0.347656 -1.242188 C -0.34375 -1.21875 -0.347656 -1.199219 -0.351562 -1.195312 C -0.355469 -1.195312 -0.359375 -1.207031 -0.363281 -1.230469 C -0.363281 -1.253906 -0.363281 -1.269531 -0.359375 -1.273438 C -0.355469 -1.273438 -0.351562 -1.261719 -0.347656 -1.242188 Z M -0.289062 -1.320312 C -0.289062 -1.253906 -0.289062 -1.195312 -0.292969 -1.191406 C -0.304688 -1.1875 -0.3125 -1.382812 -0.300781 -1.414062 C -0.296875 -1.429688 -0.289062 -1.390625 -0.289062 -1.320312 Z M 0.273438 -1.84375 C 0.277344 -1.835938 0.277344 -1.808594 0.277344 -1.789062 C 0.269531 -1.746094 0.269531 -1.746094 0.265625 -1.789062 C 0.257812 -1.851562 0.261719 -1.863281 0.273438 -1.84375 Z M 0.0625 -2.097656 C 0.0898438 -2.089844 0.144531 -1.902344 0.160156 -1.78125 C 0.179688 -1.605469 0.144531 -1.417969 0.0664062 -1.300781 C 0.0117188 -1.214844 -0.0898438 -1.121094 -0.105469 -1.148438 C -0.121094 -1.171875 -0.117188 -1.429688 -0.105469 -1.59375 C -0.078125 -1.808594 0.0195312 -2.109375 0.0625 -2.097656 Z M 0.0625 -2.097656 "/></g></g></g><g fill="#f44c4a" fill-opacity="1"><g transform="translate(11.863825, 10.375294)"><g><path d="M 0.171875 -2.5625 C 0.0546875 -2.554688 0.0234375 -2.546875 -0.0195312 -2.511719 C -0.09375 -2.449219 -0.167969 -2.324219 -0.207031 -2.191406 C -0.234375 -2.117188 -0.25 -2.085938 -0.25 -2.105469 C -0.257812 -2.125 -0.269531 -2.195312 -0.289062 -2.261719 C -0.3125 -2.375 -0.320312 -2.386719 -0.355469 -2.394531 C -0.375 -2.402344 -0.398438 -2.402344 -0.410156 -2.394531 C -0.425781 -2.386719 -0.457031 -2.386719 -0.484375 -2.398438 C -0.550781 -2.425781 -0.574219 -2.410156 -0.597656 -2.308594 C -0.679688 -1.925781 -0.445312 -0.859375 -0.160156 -0.304688 L -0.0390625 -0.078125 L 0.0273438 -0.0703125 C 0.101562 -0.0625 0.101562 -0.0625 0.109375 -0.109375 C 0.121094 -0.128906 0.125 -0.136719 0.128906 -0.128906 C 0.148438 -0.101562 0.167969 -0.132812 0.152344 -0.164062 C 0.136719 -0.195312 0.136719 -0.195312 0.15625 -0.171875 C 0.167969 -0.160156 0.191406 -0.136719 0.207031 -0.121094 C 0.238281 -0.0859375 0.28125 -0.105469 0.300781 -0.15625 C 0.304688 -0.175781 0.289062 -0.234375 0.269531 -0.28125 C 0.136719 -0.585938 0.0898438 -0.773438 0.046875 -1.140625 C -0.015625 -1.6875 0.0234375 -2.082031 0.152344 -2.304688 C 0.222656 -2.425781 0.253906 -2.4375 0.339844 -2.40625 C 0.375 -2.386719 0.417969 -2.378906 0.429688 -2.386719 C 0.441406 -2.390625 0.453125 -2.394531 0.460938 -2.382812 C 0.476562 -2.351562 0.507812 -2.40625 0.5 -2.445312 C 0.472656 -2.539062 0.382812 -2.570312 0.171875 -2.5625 Z M -0.460938 -2.1875 C -0.464844 -2.210938 -0.460938 -2.230469 -0.457031 -2.230469 C -0.453125 -2.234375 -0.449219 -2.21875 -0.449219 -2.195312 C -0.449219 -2.175781 -0.453125 -2.15625 -0.457031 -2.152344 C -0.460938 -2.152344 -0.464844 -2.164062 -0.460938 -2.1875 Z M -0.453125 -2.105469 C -0.453125 -2.117188 -0.441406 -2.109375 -0.445312 -2.09375 C -0.4375 -2.0625 -0.445312 -2.054688 -0.457031 -2.070312 C -0.460938 -2.078125 -0.460938 -2.097656 -0.453125 -2.105469 Z M -0.296875 -1.269531 C -0.265625 -1.152344 -0.246094 -1.050781 -0.246094 -1.046875 C -0.253906 -1.027344 -0.273438 -1.101562 -0.347656 -1.410156 C -0.40625 -1.664062 -0.457031 -2.003906 -0.441406 -2 C -0.433594 -1.996094 -0.425781 -1.941406 -0.417969 -1.871094 C -0.394531 -1.703125 -0.363281 -1.523438 -0.296875 -1.269531 Z M -0.40625 -2.289062 C -0.40625 -2.261719 -0.390625 -2.089844 -0.375 -1.9375 C -0.367188 -1.863281 -0.339844 -1.71875 -0.320312 -1.613281 C -0.28125 -1.425781 -0.273438 -1.351562 -0.304688 -1.449219 C -0.355469 -1.625 -0.433594 -2.222656 -0.417969 -2.285156 C -0.410156 -2.296875 -0.40625 -2.300781 -0.40625 -2.289062 Z M -0.40625 -2.289062 "/></g></g></g><g fill="#f44c4a" fill-opacity="1"><g transform="translate(13.188523, 9.617967)"><g><path d="M -0.015625 -2.371094 C -0.0585938 -2.375 -0.132812 -2.382812 -0.179688 -2.386719 C -0.347656 -2.410156 -0.488281 -2.292969 -0.570312 -2.066406 C -0.632812 -1.886719 -0.628906 -1.707031 -0.566406 -1.527344 C -0.492188 -1.339844 -0.355469 -1.210938 -0.046875 -1.046875 C 0.140625 -0.941406 0.210938 -0.878906 0.257812 -0.757812 C 0.328125 -0.585938 0.261719 -0.390625 0.101562 -0.277344 C 0.0234375 -0.222656 0.0195312 -0.222656 -0.0664062 -0.242188 C -0.113281 -0.25 -0.175781 -0.269531 -0.195312 -0.285156 C -0.21875 -0.300781 -0.246094 -0.308594 -0.25 -0.300781 C -0.257812 -0.296875 -0.273438 -0.296875 -0.289062 -0.304688 C -0.304688 -0.316406 -0.3125 -0.304688 -0.320312 -0.253906 C -0.328125 -0.21875 -0.332031 -0.179688 -0.324219 -0.164062 C -0.289062 -0.0898438 0.03125 -0.046875 0.234375 -0.0820312 C 0.28125 -0.0898438 0.355469 -0.125 0.441406 -0.171875 C 0.648438 -0.296875 0.75 -0.453125 0.746094 -0.65625 C 0.742188 -0.75 0.734375 -0.769531 0.679688 -0.867188 C 0.609375 -0.984375 0.554688 -1.027344 0.277344 -1.191406 C 0.179688 -1.242188 0.0664062 -1.320312 0.0273438 -1.359375 C -0.128906 -1.496094 -0.199219 -1.765625 -0.140625 -1.996094 C -0.117188 -2.078125 -0.0703125 -2.167969 -0.0429688 -2.183594 C -0.0351562 -2.1875 0.0078125 -2.097656 0.0546875 -1.992188 L 0.144531 -1.800781 L 0.199219 -1.804688 C 0.234375 -1.804688 0.257812 -1.804688 0.25 -1.796875 C 0.242188 -1.792969 0.246094 -1.785156 0.261719 -1.785156 C 0.328125 -1.765625 0.351562 -1.90625 0.3125 -2.078125 C 0.292969 -2.167969 0.28125 -2.195312 0.238281 -2.246094 C 0.167969 -2.320312 0.0859375 -2.363281 -0.015625 -2.371094 Z M 0.542969 -0.714844 C 0.542969 -0.75 0.542969 -0.765625 0.550781 -0.753906 C 0.5625 -0.730469 0.5625 -0.625 0.550781 -0.644531 C 0.550781 -0.648438 0.542969 -0.679688 0.542969 -0.714844 Z M 0.46875 -0.734375 C 0.441406 -0.839844 0.441406 -0.847656 0.476562 -0.792969 C 0.492188 -0.757812 0.5 -0.71875 0.496094 -0.695312 C 0.492188 -0.660156 0.488281 -0.664062 0.46875 -0.734375 Z M 0.414062 -0.785156 C 0.425781 -0.773438 0.433594 -0.757812 0.433594 -0.746094 C 0.433594 -0.734375 0.425781 -0.742188 0.417969 -0.761719 C 0.40625 -0.78125 0.402344 -0.792969 0.414062 -0.785156 Z M -0.429688 -1.640625 C -0.433594 -1.636719 -0.441406 -1.640625 -0.449219 -1.65625 C -0.457031 -1.675781 -0.453125 -1.679688 -0.445312 -1.667969 C -0.4375 -1.664062 -0.429688 -1.648438 -0.429688 -1.640625 Z M -0.363281 -1.597656 C -0.355469 -1.582031 -0.351562 -1.5625 -0.355469 -1.554688 C -0.371094 -1.527344 -0.417969 -1.695312 -0.417969 -1.773438 C -0.417969 -1.820312 -0.414062 -1.855469 -0.410156 -1.855469 C -0.40625 -1.859375 -0.402344 -1.808594 -0.390625 -1.742188 C -0.382812 -1.675781 -0.371094 -1.613281 -0.363281 -1.597656 Z M -0.339844 -1.859375 C -0.332031 -1.800781 -0.332031 -1.730469 -0.324219 -1.691406 L -0.320312 -1.628906 L -0.335938 -1.683594 C -0.359375 -1.75 -0.363281 -1.851562 -0.347656 -1.917969 C -0.339844 -1.945312 -0.335938 -1.914062 -0.339844 -1.859375 Z M 0.191406 -1.984375 C 0.191406 -1.980469 0.183594 -1.984375 0.175781 -2 C 0.167969 -2.015625 0.167969 -2.023438 0.179688 -2.011719 C 0.1875 -2.007812 0.195312 -1.992188 0.191406 -1.984375 Z M 0.191406 -1.984375 "/></g></g></g><g fill="#f44c4a" fill-opacity="1"><g transform="translate(14.272095, 9.06088)"><g><path d="M -0.359375 -2.1875 C -0.375 -2.167969 -0.386719 -2.171875 -0.394531 -2.183594 C -0.398438 -2.195312 -0.414062 -2.195312 -0.425781 -2.183594 C -0.433594 -2.175781 -0.449219 -2.179688 -0.46875 -2.195312 C -0.5 -2.230469 -0.546875 -2.230469 -0.582031 -2.195312 C -0.664062 -2.109375 -0.570312 -1.441406 -0.402344 -0.933594 C -0.238281 -0.40625 0 -0.167969 0.359375 -0.15625 C 0.488281 -0.15625 0.527344 -0.183594 0.453125 -0.234375 C 0.347656 -0.308594 0.300781 -0.367188 0.214844 -0.527344 C 0.0976562 -0.746094 0.0664062 -0.859375 -0.0703125 -1.492188 C -0.214844 -2.152344 -0.21875 -2.160156 -0.28125 -2.1875 C -0.316406 -2.203125 -0.34375 -2.199219 -0.359375 -2.1875 Z M -0.433594 -1.78125 C -0.425781 -1.777344 -0.417969 -1.761719 -0.421875 -1.753906 C -0.425781 -1.746094 -0.433594 -1.753906 -0.441406 -1.769531 C -0.449219 -1.785156 -0.445312 -1.789062 -0.433594 -1.78125 Z M -0.398438 -1.550781 C -0.410156 -1.582031 -0.417969 -1.628906 -0.417969 -1.648438 C -0.417969 -1.671875 -0.417969 -1.667969 -0.402344 -1.625 C -0.394531 -1.59375 -0.386719 -1.554688 -0.386719 -1.53125 C -0.382812 -1.503906 -0.390625 -1.511719 -0.398438 -1.550781 Z M -0.324219 -1.199219 C -0.351562 -1.292969 -0.386719 -1.492188 -0.378906 -1.472656 C -0.367188 -1.464844 -0.351562 -1.386719 -0.332031 -1.304688 C -0.300781 -1.15625 -0.296875 -1.089844 -0.324219 -1.199219 Z M -0.296875 -1.109375 C -0.289062 -1.09375 -0.277344 -1.074219 -0.277344 -1.0625 C -0.277344 -1.050781 -0.28125 -1.0625 -0.292969 -1.085938 C -0.308594 -1.113281 -0.308594 -1.121094 -0.296875 -1.109375 Z M -0.179688 -0.742188 C -0.183594 -0.734375 -0.1875 -0.742188 -0.195312 -0.757812 C -0.207031 -0.777344 -0.203125 -0.785156 -0.195312 -0.773438 C -0.183594 -0.761719 -0.179688 -0.75 -0.179688 -0.742188 Z M -0.265625 -0.972656 C -0.28125 -1.023438 -0.277344 -1.027344 -0.257812 -0.988281 C -0.246094 -0.964844 -0.230469 -0.921875 -0.226562 -0.894531 C -0.214844 -0.824219 -0.242188 -0.882812 -0.265625 -0.972656 Z M -0.0859375 -0.628906 C -0.0820312 -0.613281 -0.09375 -0.625 -0.105469 -0.652344 C -0.117188 -0.675781 -0.117188 -0.6875 -0.105469 -0.671875 C -0.0976562 -0.664062 -0.0859375 -0.640625 -0.0859375 -0.628906 Z M -0.148438 -0.8125 C -0.117188 -0.710938 -0.117188 -0.710938 -0.148438 -0.769531 C -0.21875 -0.910156 -0.347656 -1.464844 -0.410156 -1.890625 C -0.429688 -2 -0.433594 -2.097656 -0.425781 -2.101562 C -0.417969 -2.105469 -0.417969 -2.101562 -0.417969 -2.089844 C -0.421875 -2.027344 -0.285156 -1.324219 -0.21875 -1.046875 C -0.195312 -0.972656 -0.164062 -0.867188 -0.148438 -0.8125 Z M -0.15625 -1.042969 C -0.15625 -1.03125 -0.164062 -1.039062 -0.171875 -1.058594 C -0.183594 -1.078125 -0.183594 -1.09375 -0.175781 -1.082031 C -0.164062 -1.074219 -0.15625 -1.058594 -0.15625 -1.042969 Z M -0.175781 -1.121094 C -0.175781 -1.113281 -0.183594 -1.121094 -0.191406 -1.140625 C -0.199219 -1.15625 -0.199219 -1.160156 -0.1875 -1.152344 C -0.179688 -1.140625 -0.171875 -1.128906 -0.175781 -1.121094 Z M -0.210938 -1.273438 C -0.214844 -1.265625 -0.222656 -1.273438 -0.230469 -1.289062 C -0.234375 -1.304688 -0.230469 -1.3125 -0.222656 -1.300781 C -0.210938 -1.292969 -0.207031 -1.28125 -0.210938 -1.273438 Z M -0.230469 -1.371094 C -0.226562 -1.335938 -0.226562 -1.335938 -0.238281 -1.359375 C -0.246094 -1.375 -0.257812 -1.40625 -0.257812 -1.433594 C -0.265625 -1.46875 -0.261719 -1.46875 -0.25 -1.445312 C -0.242188 -1.429688 -0.234375 -1.394531 -0.230469 -1.371094 Z M -0.257812 -1.492188 C -0.261719 -1.484375 -0.269531 -1.492188 -0.277344 -1.507812 C -0.285156 -1.527344 -0.285156 -1.535156 -0.273438 -1.523438 C -0.265625 -1.511719 -0.257812 -1.5 -0.257812 -1.492188 Z M -0.273438 -1.5625 C -0.277344 -1.550781 -0.28125 -1.5625 -0.289062 -1.578125 C -0.296875 -1.59375 -0.296875 -1.601562 -0.285156 -1.589844 C -0.277344 -1.582031 -0.269531 -1.570312 -0.273438 -1.5625 Z M -0.324219 -1.867188 C -0.3125 -1.757812 -0.304688 -1.675781 -0.308594 -1.683594 C -0.320312 -1.71875 -0.382812 -2.089844 -0.367188 -2.078125 C -0.363281 -2.070312 -0.34375 -1.976562 -0.324219 -1.867188 Z M -0.484375 -2.996094 C -0.539062 -2.96875 -0.644531 -2.804688 -0.710938 -2.632812 C -0.753906 -2.535156 -0.753906 -2.53125 -0.710938 -2.496094 C -0.683594 -2.46875 -0.660156 -2.464844 -0.648438 -2.476562 C -0.632812 -2.488281 -0.617188 -2.484375 -0.613281 -2.476562 C -0.609375 -2.46875 -0.597656 -2.480469 -0.582031 -2.507812 C -0.570312 -2.535156 -0.570312 -2.539062 -0.570312 -2.523438 C -0.578125 -2.488281 -0.5625 -2.429688 -0.539062 -2.421875 C -0.507812 -2.410156 -0.472656 -2.449219 -0.464844 -2.5 C -0.457031 -2.59375 -0.378906 -2.78125 -0.328125 -2.847656 C -0.300781 -2.878906 -0.28125 -2.917969 -0.285156 -2.933594 C -0.292969 -2.953125 -0.457031 -3.007812 -0.484375 -2.996094 Z M -0.484375 -2.996094 "/></g></g></g><g fill="#f44c4a" fill-opacity="1"><g transform="translate(14.890809, 8.76318)"><g><path d="M -0.859375 -2.464844 C -0.769531 -2.492188 -0.691406 -2.519531 -0.691406 -2.519531 C -0.691406 -2.515625 -0.679688 -2.414062 -0.664062 -2.28125 C -0.582031 -1.480469 -0.402344 -0.792969 -0.183594 -0.46875 C -0.0507812 -0.273438 0.101562 -0.191406 0.363281 -0.179688 C 0.511719 -0.167969 0.589844 -0.195312 0.585938 -0.234375 C 0.582031 -0.25 0.546875 -0.257812 0.496094 -0.257812 C 0.390625 -0.253906 0.324219 -0.308594 0.21875 -0.472656 C 0.046875 -0.746094 -0.0664062 -1.222656 -0.222656 -2.355469 L -0.265625 -2.671875 L -0.0195312 -2.785156 C 0.296875 -2.933594 0.351562 -2.96875 0.355469 -3.050781 C 0.359375 -3.089844 0.355469 -3.121094 0.347656 -3.121094 C 0.335938 -3.136719 0.00390625 -3.039062 -0.183594 -2.96875 L -0.304688 -2.921875 L -0.328125 -3.050781 C -0.339844 -3.117188 -0.363281 -3.203125 -0.386719 -3.246094 C -0.410156 -3.320312 -0.421875 -3.328125 -0.476562 -3.339844 C -0.507812 -3.34375 -0.558594 -3.359375 -0.585938 -3.371094 C -0.648438 -3.390625 -0.667969 -3.390625 -0.691406 -3.351562 C -0.707031 -3.320312 -0.714844 -3.09375 -0.710938 -2.910156 C -0.699219 -2.78125 -0.703125 -2.777344 -0.75 -2.765625 C -0.777344 -2.757812 -0.867188 -2.726562 -0.945312 -2.695312 C -1.09375 -2.644531 -1.148438 -2.597656 -1.128906 -2.554688 C -1.125 -2.542969 -1.128906 -2.511719 -1.136719 -2.488281 C -1.175781 -2.386719 -1.105469 -2.386719 -0.859375 -2.464844 Z M -0.273438 -1.007812 C -0.273438 -1.003906 -0.28125 -1.007812 -0.289062 -1.023438 C -0.292969 -1.046875 -0.296875 -1.050781 -0.28125 -1.042969 C -0.273438 -1.03125 -0.265625 -1.019531 -0.273438 -1.007812 Z M -0.160156 -0.808594 C -0.160156 -0.796875 -0.164062 -0.804688 -0.175781 -0.828125 C -0.183594 -0.847656 -0.1875 -0.855469 -0.179688 -0.84375 C -0.171875 -0.839844 -0.160156 -0.820312 -0.160156 -0.808594 Z M -0.445312 -1.761719 C -0.453125 -1.792969 -0.457031 -1.839844 -0.457031 -1.859375 C -0.457031 -1.882812 -0.457031 -1.875 -0.445312 -1.835938 C -0.4375 -1.804688 -0.425781 -1.761719 -0.429688 -1.742188 C -0.429688 -1.714844 -0.433594 -1.722656 -0.445312 -1.761719 Z M -0.429688 -1.667969 C -0.4375 -1.6875 -0.4375 -1.695312 -0.425781 -1.679688 C -0.417969 -1.671875 -0.410156 -1.65625 -0.410156 -1.652344 C -0.414062 -1.644531 -0.421875 -1.652344 -0.429688 -1.667969 Z M -0.417969 -1.601562 C -0.425781 -1.617188 -0.421875 -1.621094 -0.414062 -1.613281 C -0.40625 -1.605469 -0.398438 -1.589844 -0.402344 -1.582031 C -0.402344 -1.578125 -0.410156 -1.582031 -0.417969 -1.601562 Z M -0.40625 -1.53125 C -0.414062 -1.546875 -0.410156 -1.554688 -0.398438 -1.546875 C -0.386719 -1.535156 -0.382812 -1.523438 -0.390625 -1.515625 C -0.390625 -1.503906 -0.398438 -1.515625 -0.40625 -1.53125 Z M -0.394531 -1.460938 C -0.398438 -1.480469 -0.394531 -1.488281 -0.386719 -1.476562 C -0.378906 -1.46875 -0.371094 -1.453125 -0.375 -1.441406 C -0.378906 -1.4375 -0.386719 -1.445312 -0.394531 -1.460938 Z M -0.371094 -1.378906 C -0.378906 -1.398438 -0.378906 -1.402344 -0.367188 -1.394531 C -0.359375 -1.382812 -0.351562 -1.371094 -0.355469 -1.359375 C -0.359375 -1.351562 -0.367188 -1.359375 -0.371094 -1.378906 Z M -0.351562 -1.292969 C -0.363281 -1.335938 -0.363281 -1.339844 -0.347656 -1.304688 C -0.335938 -1.285156 -0.324219 -1.246094 -0.320312 -1.222656 C -0.320312 -1.1875 -0.324219 -1.183594 -0.328125 -1.210938 C -0.335938 -1.226562 -0.347656 -1.265625 -0.351562 -1.292969 Z M -0.554688 -3.269531 C -0.546875 -3.292969 -0.542969 -3.257812 -0.523438 -3.0625 C -0.507812 -2.871094 -0.507812 -2.820312 -0.523438 -2.855469 C -0.53125 -2.871094 -0.558594 -3.257812 -0.554688 -3.269531 Z M -0.574219 -2.96875 C -0.570312 -2.984375 -0.566406 -2.992188 -0.5625 -2.980469 C -0.558594 -2.972656 -0.558594 -2.953125 -0.558594 -2.933594 C -0.5625 -2.917969 -0.570312 -2.910156 -0.574219 -2.917969 C -0.578125 -2.929688 -0.578125 -2.949219 -0.574219 -2.96875 Z M -0.460938 -2.402344 C -0.4375 -2.199219 -0.355469 -1.632812 -0.316406 -1.429688 C -0.300781 -1.359375 -0.265625 -1.207031 -0.234375 -1.089844 C -0.203125 -0.964844 -0.1875 -0.890625 -0.203125 -0.917969 C -0.226562 -0.972656 -0.308594 -1.285156 -0.347656 -1.476562 C -0.410156 -1.8125 -0.507812 -2.539062 -0.492188 -2.585938 C -0.484375 -2.613281 -0.480469 -2.605469 -0.460938 -2.402344 Z M -0.539062 -2.519531 C -0.535156 -2.535156 -0.53125 -2.542969 -0.53125 -2.535156 C -0.527344 -2.527344 -0.519531 -2.503906 -0.523438 -2.488281 C -0.527344 -2.472656 -0.53125 -2.464844 -0.535156 -2.472656 C -0.539062 -2.480469 -0.539062 -2.503906 -0.539062 -2.519531 Z M -0.527344 -2.429688 C -0.519531 -2.425781 -0.503906 -2.304688 -0.484375 -2.160156 C -0.46875 -2.015625 -0.460938 -1.902344 -0.46875 -1.914062 C -0.480469 -1.9375 -0.539062 -2.433594 -0.527344 -2.429688 Z M -0.527344 -2.429688 "/></g></g></g><g fill="#f44c4a" fill-opacity="1"><g transform="translate(15.521903, 8.465411)"><g><path d="M 0.324219 1.589844 C 0.402344 1.585938 0.484375 1.582031 0.5 1.578125 C 0.519531 1.578125 0.539062 1.578125 0.546875 1.574219 C 0.589844 1.566406 0.746094 1.441406 0.828125 1.34375 C 1.011719 1.125 1.15625 0.679688 1.195312 0.210938 C 1.210938 -0.0742188 1.210938 -0.476562 1.1875 -0.800781 C 1.160156 -1.25 1.03125 -1.914062 0.953125 -2.066406 C 0.910156 -2.152344 0.871094 -2.171875 0.761719 -2.179688 C 0.71875 -2.183594 0.6875 -2.195312 0.683594 -2.203125 C 0.679688 -2.210938 0.671875 -2.207031 0.664062 -2.199219 C 0.660156 -2.191406 0.648438 -2.195312 0.640625 -2.21875 C 0.632812 -2.234375 0.621094 -2.25 0.617188 -2.246094 C 0.558594 -2.230469 0.527344 -2.21875 0.523438 -2.199219 C 0.519531 -2.183594 0.527344 -2.105469 0.542969 -2.019531 C 0.558594 -1.929688 0.570312 -1.804688 0.574219 -1.742188 C 0.582031 -1.5625 0.546875 -1.125 0.519531 -0.964844 C 0.484375 -0.789062 0.390625 -0.542969 0.339844 -0.480469 C 0.300781 -0.4375 0.296875 -0.4375 0.273438 -0.46875 C 0.234375 -0.519531 0.148438 -0.726562 0.125 -0.847656 C 0.078125 -1.035156 0.0351562 -1.367188 0.0117188 -1.703125 C 0 -1.875 -0.0117188 -2.023438 -0.0117188 -2.027344 C -0.015625 -2.03125 -0.0351562 -2.046875 -0.0625 -2.058594 C -0.09375 -2.078125 -0.117188 -2.078125 -0.136719 -2.0625 C -0.160156 -2.046875 -0.167969 -2.046875 -0.167969 -2.066406 C -0.167969 -2.078125 -0.175781 -2.089844 -0.183594 -2.085938 C -0.191406 -2.082031 -0.226562 -2.089844 -0.253906 -2.105469 C -0.320312 -2.136719 -0.359375 -2.113281 -0.402344 -2.007812 C -0.484375 -1.832031 -0.449219 -1.203125 -0.34375 -0.84375 C -0.308594 -0.722656 -0.199219 -0.527344 -0.117188 -0.425781 C -0.0507812 -0.347656 0.0976562 -0.269531 0.179688 -0.269531 C 0.210938 -0.269531 0.269531 -0.265625 0.308594 -0.253906 C 0.449219 -0.226562 0.554688 -0.320312 0.628906 -0.554688 C 0.65625 -0.640625 0.683594 -0.75 0.691406 -0.800781 C 0.699219 -0.847656 0.710938 -0.878906 0.714844 -0.867188 C 0.730469 -0.835938 0.757812 -0.347656 0.761719 -0.117188 C 0.769531 0.574219 0.664062 1.097656 0.464844 1.324219 C 0.414062 1.378906 0.359375 1.429688 0.320312 1.445312 C 0.121094 1.53125 0.125 1.589844 0.324219 1.589844 Z M -0.1875 -0.871094 C -0.191406 -0.867188 -0.199219 -0.875 -0.207031 -0.894531 C -0.214844 -0.910156 -0.210938 -0.917969 -0.203125 -0.90625 C -0.191406 -0.894531 -0.1875 -0.882812 -0.1875 -0.871094 Z M -0.214844 -0.960938 C -0.246094 -1.023438 -0.304688 -1.621094 -0.285156 -1.566406 C -0.277344 -1.554688 -0.273438 -1.515625 -0.269531 -1.46875 C -0.269531 -1.425781 -0.253906 -1.289062 -0.234375 -1.160156 C -0.214844 -1.035156 -0.207031 -0.945312 -0.214844 -0.960938 Z M -0.148438 -0.972656 C -0.132812 -0.886719 -0.125 -0.835938 -0.140625 -0.863281 C -0.171875 -0.941406 -0.207031 -1.144531 -0.230469 -1.402344 C -0.25 -1.613281 -0.25 -1.90625 -0.234375 -1.914062 C -0.230469 -1.914062 -0.226562 -1.839844 -0.226562 -1.742188 C -0.226562 -1.652344 -0.214844 -1.476562 -0.203125 -1.351562 C -0.191406 -1.230469 -0.164062 -1.058594 -0.148438 -0.972656 Z M -0.117188 -1.140625 C -0.105469 -1.058594 -0.101562 -1 -0.105469 -1.011719 C -0.125 -1.042969 -0.15625 -1.324219 -0.144531 -1.308594 C -0.136719 -1.300781 -0.125 -1.222656 -0.117188 -1.140625 Z M -0.175781 -1.519531 C -0.1875 -1.683594 -0.1875 -1.972656 -0.167969 -1.980469 C -0.160156 -1.980469 -0.160156 -1.933594 -0.160156 -1.875 C -0.164062 -1.816406 -0.160156 -1.664062 -0.15625 -1.546875 C -0.144531 -1.292969 -0.152344 -1.28125 -0.175781 -1.519531 Z M 0.96875 -1.175781 C 0.964844 -1.171875 0.957031 -1.175781 0.949219 -1.199219 C 0.941406 -1.214844 0.945312 -1.21875 0.953125 -1.210938 C 0.964844 -1.199219 0.96875 -1.1875 0.96875 -1.175781 Z M 0.804688 -1.398438 C 0.785156 -1.476562 0.789062 -1.5 0.8125 -1.445312 C 0.816406 -1.421875 0.824219 -1.386719 0.824219 -1.367188 C 0.820312 -1.335938 0.816406 -1.351562 0.804688 -1.398438 Z M 0.828125 -1.238281 C 0.824219 -1.285156 0.824219 -1.316406 0.832031 -1.292969 C 0.847656 -1.261719 0.863281 -1.109375 0.847656 -1.132812 C 0.84375 -1.140625 0.832031 -1.1875 0.828125 -1.238281 Z M 0.847656 -1.082031 C 0.847656 -1.105469 0.851562 -1.105469 0.859375 -1.09375 C 0.863281 -1.078125 0.871094 -1.050781 0.871094 -1.03125 C 0.871094 -1.007812 0.867188 -1 0.859375 -1.019531 C 0.855469 -1.03125 0.847656 -1.054688 0.847656 -1.082031 Z M 0.867188 -0.957031 C 0.859375 -0.972656 0.863281 -0.980469 0.871094 -0.96875 C 0.878906 -0.957031 0.886719 -0.945312 0.882812 -0.941406 C 0.878906 -0.929688 0.871094 -0.941406 0.867188 -0.957031 Z M 0.941406 -0.605469 C 0.929688 -0.8125 0.882812 -1.195312 0.84375 -1.457031 C 0.820312 -1.585938 0.804688 -1.703125 0.808594 -1.714844 C 0.816406 -1.722656 0.828125 -1.683594 0.835938 -1.621094 C 0.847656 -1.558594 0.863281 -1.46875 0.871094 -1.425781 C 0.902344 -1.269531 0.9375 -0.972656 0.949219 -0.738281 C 0.964844 -0.535156 0.96875 -0.433594 0.957031 -0.460938 C 0.957031 -0.464844 0.949219 -0.53125 0.941406 -0.605469 Z M 0.953125 -0.421875 C 0.957031 -0.4375 0.960938 -0.445312 0.964844 -0.433594 C 0.96875 -0.425781 0.972656 -0.40625 0.96875 -0.390625 C 0.964844 -0.375 0.957031 -0.367188 0.953125 -0.375 C 0.953125 -0.382812 0.953125 -0.402344 0.953125 -0.421875 Z M 1.015625 -0.273438 C 1.011719 -0.507812 0.980469 -0.980469 0.960938 -1.097656 C 0.957031 -1.128906 0.960938 -1.148438 0.964844 -1.140625 C 0.992188 -1.109375 1.027344 -0.6875 1.03125 -0.324219 C 1.035156 -0.214844 1.027344 -0.0976562 1.027344 -0.0585938 C 1.015625 0.03125 1.015625 0.0078125 1.015625 -0.273438 Z M 1.015625 0.0429688 C 1.019531 0.0273438 1.023438 0.0195312 1.027344 0.0273438 C 1.03125 0.0351562 1.03125 0.0546875 1.027344 0.0742188 C 1.023438 0.0898438 1.019531 0.0976562 1.015625 0.0898438 C 1.011719 0.078125 1.011719 0.0585938 1.015625 0.0429688 Z M 1.011719 0.125 C 1.019531 0.117188 1.023438 0.125 1.023438 0.136719 C 1.023438 0.171875 1.019531 0.179688 1.007812 0.15625 C 1.003906 0.144531 1.003906 0.136719 1.011719 0.125 Z M 1.011719 0.125 "/></g></g></g></svg>