<svg xmlns="http://www.w3.org/2000/svg" xmlns:xlink="http://www.w3.org/1999/xlink" width="1912" zoomAndPan="magnify" viewBox="0 0 1434 669.750002" height="893" preserveAspectRatio="xMidYMid meet" version="1.0"><defs><g/><clipPath id="e7d0e58315"><path d="M 922 67 L 1261.265625 67 L 1261.265625 591 L 922 591 Z M 922 67 " clip-rule="nonzero"/></clipPath><clipPath id="e6269577b8"><path d="M 173 173.109375 L 676 173.109375 L 676 484 L 173 484 Z M 173 173.109375 " clip-rule="nonzero"/></clipPath><clipPath id="0e41eef82d"><path d="M 887 329 L 921 329 L 921 363 L 887 363 Z M 887 329 " clip-rule="nonzero"/></clipPath><clipPath id="469ff04081"><path d="M 550.40625 316.238281 L 736.425781 141.957031 L 921.472656 339.464844 L 735.453125 513.746094 Z M 550.40625 316.238281 " clip-rule="nonzero"/></clipPath><clipPath id="ac9bde519b"><path d="M 550.40625 316.238281 L 736.425781 141.957031 L 921.472656 339.464844 L 735.453125 513.746094 Z M 550.40625 316.238281 " clip-rule="nonzero"/></clipPath><clipPath id="cf10bb096f"><path d="M 550.40625 316.238281 L 736.425781 141.957031 L 921.472656 339.464844 L 735.453125 513.746094 Z M 550.40625 316.238281 " clip-rule="nonzero"/></clipPath><clipPath id="c5198b6beb"><path d="M 567 270 L 890 270 L 890 408 L 567 408 Z M 567 270 " clip-rule="nonzero"/></clipPath><clipPath id="79b9f45b75"><path d="M 550.40625 316.238281 L 736.425781 141.957031 L 921.472656 339.464844 L 735.453125 513.746094 Z M 550.40625 316.238281 " clip-rule="nonzero"/></clipPath><clipPath id="f270dd0d19"><path d="M 550.40625 316.238281 L 736.425781 141.957031 L 921.472656 339.464844 L 735.453125 513.746094 Z M 550.40625 316.238281 " clip-rule="nonzero"/></clipPath><clipPath id="936e17881b"><path d="M 550.40625 316.238281 L 736.425781 141.957031 L 921.472656 339.464844 L 735.453125 513.746094 Z M 550.40625 316.238281 " clip-rule="nonzero"/></clipPath></defs><g clip-path="url(#e7d0e58315)"><path fill="#ffffff" d="M 928.882812 587.222656 C 928.882812 587.222656 931.214844 586.207031 932.234375 587.222656 C 933.191406 588.179688 936.71875 590.925781 936.71875 590.925781 L 939.292969 587.222656 L 942.640625 585.488281 C 942.640625 585.488281 944.019531 583.695312 943.839844 583.15625 C 943.660156 582.558594 941.085938 577.058594 941.085938 577.058594 C 941.085938 577.058594 940.308594 574.488281 941.085938 573.890625 C 941.863281 573.292969 943.839844 572.339844 943.839844 572.339844 L 945.992188 573.292969 L 947.367188 575.265625 C 947.367188 575.265625 947.785156 578.195312 949.164062 578.433594 C 950.539062 578.613281 954.667969 579.210938 954.667969 579.210938 L 958.972656 576.042969 C 958.972656 576.042969 962.503906 576.042969 963.101562 576.042969 C 963.699219 576.042969 966.453125 575.265625 966.453125 575.265625 L 966.453125 576.640625 L 964.476562 579.808594 L 964.476562 583.335938 C 964.476562 583.335938 964.058594 584.292969 965.433594 584.710938 C 966.8125 585.128906 969.144531 584.890625 970.160156 584.890625 C 971.179688 584.890625 971.714844 584.292969 972.496094 583.515625 C 973.273438 582.738281 974.648438 579.988281 974.648438 579.988281 C 974.648438 579.988281 975.425781 578.613281 975.605469 578.015625 C 975.785156 577.417969 974.828125 575.863281 974.828125 575.863281 L 972.851562 573.292969 L 971.894531 572.339844 L 972.671875 569.171875 L 974.828125 565.046875 C 974.828125 565.046875 976.382812 567.976562 976.621094 568.992188 C 976.800781 569.949219 978.417969 572.339844 978.417969 572.339844 C 978.417969 572.339844 980.570312 573.714844 981.945312 573.890625 C 983.324219 574.070312 983.144531 573.714844 985.296875 573.292969 C 987.449219 572.875 990.023438 570.125 990.800781 569.949219 C 991.578125 569.769531 991.21875 569.171875 992.773438 569.769531 C 994.332031 570.367188 997.261719 571.5625 997.261719 571.5625 L 1007.851562 578.015625 L 1013.355469 583.335938 C 1013.355469 583.335938 1018.261719 583.335938 1018.859375 583.933594 C 1019.457031 584.53125 1022.027344 589.613281 1022.027344 589.613281 C 1022.027344 589.613281 1024.960938 590.390625 1025.738281 590.03125 C 1026.515625 589.613281 1029.269531 586.683594 1029.445312 585.546875 C 1029.625 584.351562 1029.445312 580.226562 1029.445312 580.226562 L 1031.601562 576.285156 L 1033.933594 574.132812 C 1033.933594 574.132812 1039.4375 572.160156 1040.214844 571.980469 C 1040.992188 571.800781 1045.539062 569.648438 1045.539062 569.648438 C 1045.539062 569.648438 1047.875 565.164062 1049.847656 565.164062 C 1051.820312 565.164062 1053.796875 563.191406 1054.753906 563.789062 C 1055.710938 564.386719 1056.546875 565.585938 1056.90625 567.316406 C 1057.324219 569.109375 1059.238281 573.773438 1059.238281 573.773438 C 1059.238281 573.773438 1063.964844 578.253906 1064.742188 578.253906 C 1065.519531 578.253906 1066.300781 573.953125 1068.273438 574.550781 C 1070.246094 575.148438 1071.023438 575.148438 1071.023438 576.105469 C 1071.023438 577.058594 1070.066406 579.808594 1070.066406 579.808594 L 1069.648438 582.378906 C 1069.648438 582.378906 1070.84375 584.53125 1072.222656 584.171875 C 1073.597656 583.753906 1074.554688 582.796875 1075.390625 581.84375 C 1076.171875 580.886719 1075.992188 577.417969 1075.992188 577.359375 C 1075.992188 577.300781 1075.992188 574.371094 1075.992188 574.371094 L 1078.921875 573.414062 C 1078.921875 573.414062 1082.632812 574.96875 1084.425781 574.191406 C 1086.21875 573.414062 1086.757812 572.039062 1086.757812 571.023438 C 1086.757812 570.066406 1084.605469 567.316406 1084.605469 566.121094 C 1084.605469 564.925781 1085.023438 561.398438 1085.023438 560.800781 C 1085.023438 560.203125 1085.023438 557.277344 1085.023438 557.277344 L 1089.75 557.277344 C 1089.75 557.277344 1093.699219 555.125 1093.460938 553.75 C 1093.21875 552.375 1093.878906 552.375 1092.261719 550.820312 C 1090.707031 549.265625 1088.914062 548.25 1090.289062 547.472656 C 1091.664062 546.695312 1091.84375 545.917969 1093.460938 546.695312 C 1095.015625 547.472656 1096.570312 548.847656 1096.570312 548.847656 C 1096.570312 548.847656 1098.363281 547.890625 1098.902344 547.292969 C 1099.5 546.695312 1100.101562 546.039062 1101.476562 546.398438 C 1102.851562 546.695312 1103.269531 547.472656 1104.226562 546.335938 C 1105.183594 545.203125 1106.382812 545.738281 1105.183594 544.1875 C 1103.988281 542.632812 1102.613281 542.035156 1102.613281 542.035156 L 1100.636719 542.035156 C 1100.636719 542.035156 1099.261719 538.867188 1099.679688 538.328125 C 1100.101562 537.789062 1102.613281 536.355469 1103.628906 538.328125 C 1104.644531 540.300781 1108.953125 543.648438 1108.953125 543.648438 C 1108.953125 543.648438 1108.535156 545.800781 1108.953125 547.59375 C 1109.371094 549.386719 1108.175781 552.671875 1108.953125 553.691406 C 1109.730469 554.644531 1112.78125 557.8125 1112.78125 557.8125 C 1112.78125 557.8125 1119.363281 562.714844 1119.960938 562.714844 C 1120.558594 562.714844 1123.910156 561.519531 1125.644531 561.519531 C 1127.378906 561.519531 1128.816406 564.03125 1129.175781 564.269531 C 1129.535156 564.507812 1133.121094 569.171875 1133.121094 569.171875 L 1134.917969 564.269531 L 1142.992188 562.296875 C 1142.992188 562.296875 1146.34375 558.351562 1146.34375 557.8125 C 1146.34375 557.277344 1147.71875 550.761719 1147.71875 550.761719 L 1147.71875 544.664062 C 1147.71875 544.664062 1146.761719 542.332031 1147.71875 541.136719 C 1148.675781 539.941406 1149.097656 537.730469 1150.054688 537.371094 C 1151.011719 537.011719 1152.804688 534.683594 1152.804688 534.683594 C 1152.804688 534.683594 1154.359375 533.308594 1154.359375 532.710938 C 1154.359375 532.113281 1154.359375 529.78125 1154.359375 529.78125 L 1155.316406 527.628906 C 1155.316406 527.628906 1155.316406 526.851562 1157.292969 526.433594 C 1159.265625 526.015625 1159.265625 526.015625 1159.265625 526.015625 C 1159.265625 526.015625 1160.820312 524.820312 1161.242188 526.015625 C 1161.660156 527.210938 1160.042969 528.347656 1162.199219 528.347656 C 1164.351562 528.347656 1166.921875 526.792969 1166.921875 526.792969 L 1170.632812 524.042969 C 1170.632812 524.042969 1174.34375 520.097656 1174.761719 519.140625 C 1175.179688 518.183594 1175.539062 515.972656 1175.957031 515.015625 C 1176.375 514.0625 1177.152344 507.964844 1177.152344 507.964844 C 1177.152344 507.964844 1177.929688 505.8125 1178.53125 505.214844 C 1179.128906 504.617188 1178.109375 503.660156 1181.460938 503.242188 C 1184.8125 502.824219 1185.769531 502.464844 1185.769531 502.464844 C 1185.769531 502.464844 1187.742188 503.660156 1188.519531 502.464844 C 1189.296875 501.269531 1190.316406 499.117188 1190.316406 499.117188 L 1191.871094 495.769531 C 1191.871094 495.769531 1192.46875 496.546875 1193.425781 495.769531 C 1194.382812 494.992188 1195.21875 494.574219 1195.21875 494.574219 L 1197.195312 489.078125 L 1195.640625 484.59375 L 1194.683594 478.914062 C 1194.683594 478.914062 1195.101562 476.34375 1194.683594 475.746094 C 1194.261719 475.148438 1193.304688 472.21875 1193.304688 472.21875 C 1193.304688 472.21875 1193.125 469.472656 1193.726562 469.050781 C 1194.324219 468.632812 1197.253906 466.484375 1197.253906 466.484375 L 1201.742188 466.484375 C 1201.742188 466.484375 1202.519531 466.660156 1204.671875 466.484375 C 1206.828125 466.304688 1207.605469 467.257812 1209.757812 466.484375 C 1211.910156 465.707031 1214.664062 468.277344 1215.441406 469.410156 C 1216.21875 470.605469 1218.613281 472.339844 1219.570312 472.339844 C 1220.527344 472.339844 1221.542969 471.742188 1223.515625 470.964844 C 1225.492188 470.1875 1227.046875 468.394531 1227.644531 468.214844 C 1228.242188 468.035156 1231.953125 466.0625 1233.148438 465.285156 C 1234.347656 464.511719 1237.277344 462.539062 1237.277344 462.539062 L 1241.585938 460.746094 L 1244.933594 460.746094 C 1244.933594 460.746094 1247.507812 458.773438 1248.285156 458.59375 C 1249.0625 458.414062 1250.855469 458.414062 1252.234375 458.59375 C 1253.609375 458.773438 1256.359375 458.472656 1256.359375 458.472656 C 1256.359375 458.472656 1258.15625 459.726562 1257.917969 458.472656 C 1257.738281 457.21875 1256.539062 453.332031 1256.539062 453.332031 L 1259.890625 449.984375 L 1261.265625 446.816406 L 1259.292969 444.664062 C 1259.292969 444.664062 1257.316406 445.085938 1256.121094 444.664062 C 1254.925781 444.246094 1251.992188 443.292969 1251.992188 443.292969 C 1251.992188 443.292969 1251.394531 441.496094 1253.371094 439.167969 C 1255.34375 436.835938 1256.300781 435.820312 1256.300781 435.820312 C 1256.300781 435.820312 1254.746094 433.25 1254.507812 432.113281 C 1254.328125 430.917969 1250.976562 426.792969 1250.796875 425.835938 C 1250.617188 424.882812 1249.421875 424.464844 1249.601562 423.507812 C 1249.78125 422.550781 1250.558594 420.9375 1251.753906 420.339844 C 1252.949219 419.742188 1255.464844 417.171875 1255.464844 417.171875 L 1256.421875 415.976562 L 1256.242188 348.3125 L 1255.941406 292.964844 L 1255.34375 204.683594 L 1254.925781 148.972656 L 1253.96875 107.792969 L 1253.550781 70.554688 L 1253.371094 67.027344 L 1182.296875 68.222656 L 1095.375 67.804688 L 1058.28125 67.804688 L 1048.652344 73.660156 C 1048.652344 73.660156 1035.128906 80.175781 1033.933594 80.535156 C 1032.738281 80.894531 1019.574219 85.257812 1018.796875 85.257812 C 1018.019531 85.257812 1011.558594 85.855469 1010.960938 85.855469 C 1010.363281 85.855469 1003.304688 84.300781 1002.527344 83.703125 C 1001.75 83.105469 998.996094 81.730469 998.996094 81.730469 L 996.425781 80.953125 L 993.851562 77.605469 L 992.296875 77.425781 L 989.183594 73.660156 L 988.109375 157.640625 L 985.953125 265.289062 L 984.101562 382.324219 L 982.246094 383.28125 C 982.246094 383.28125 981.46875 384.835938 980.691406 385.3125 C 979.914062 385.789062 977.578125 385.609375 977.28125 386.566406 C 976.980469 387.523438 975.425781 389.019531 975.425781 389.019531 L 975.425781 390.871094 L 976.203125 396.429688 C 976.203125 396.429688 977.460938 396.128906 978.535156 396.429688 C 979.613281 396.730469 979.613281 398.101562 979.613281 398.101562 L 979.015625 402.40625 L 976.382812 404.082031 L 975.425781 405.457031 L 974.347656 407.785156 L 972.972656 407.785156 L 974.347656 409.9375 L 971.714844 410.714844 L 973.273438 413.824219 L 971.714844 414.78125 C 971.714844 414.78125 974.347656 416.15625 974.828125 416.15625 C 975.304688 416.15625 975.007812 418.785156 975.007812 418.785156 L 976.683594 418.785156 L 978.714844 422.011719 L 979.195312 425.417969 L 979.554688 427.453125 L 978 429.484375 L 979.554688 430.558594 L 977.878906 431.816406 L 982.664062 433.488281 C 982.664062 433.488281 984.339844 434.5625 984.339844 435.042969 C 984.339844 435.519531 984.039062 437.375 984.039062 437.375 L 984.21875 439.226562 L 983.261719 441.675781 L 984.339844 443.230469 L 982.304688 443.230469 L 982.484375 445.859375 L 980.390625 448.492188 L 982.605469 449.867188 L 983.382812 452.792969 L 984.757812 456.679688 L 986.015625 458.351562 L 985.714844 460.027344 L 984.339844 460.625 C 984.339844 460.625 985.117188 461.222656 985.597656 461.582031 C 986.074219 461.878906 986.074219 464.03125 986.074219 464.03125 L 984.816406 466.0625 L 983.5625 469.292969 L 982.484375 471.144531 L 980.390625 472.519531 L 976.144531 474.074219 L 973.808594 476.703125 C 973.808594 476.703125 972.851562 477.300781 973.03125 477.777344 C 973.210938 478.257812 972.554688 480.886719 972.554688 480.886719 L 973.03125 482.742188 C 973.03125 482.742188 975.1875 484.292969 974.289062 484.113281 C 973.332031 483.9375 971.65625 484.113281 971.65625 484.113281 C 971.65625 484.113281 971.179688 486.863281 970.699219 487.042969 C 970.222656 487.222656 967.769531 489.496094 967.769531 489.496094 L 968.84375 492.125 L 970.519531 493.199219 L 970.222656 495.351562 L 967.769531 495.351562 C 967.769531 495.351562 967.769531 495.832031 966.390625 496.726562 C 965.015625 497.625 964.238281 498.101562 964.238281 498.101562 C 964.238281 498.101562 962.203125 497.503906 961.425781 498.101562 C 960.648438 498.699219 959.570312 499.65625 959.570312 499.65625 L 959.570312 501.03125 L 961.425781 502.105469 L 960.46875 504.136719 L 960.46875 506.949219 L 959.511719 508.621094 L 958.734375 510.652344 L 956.28125 512.804688 L 953.351562 514.480469 L 950.898438 517.40625 C 950.898438 517.40625 950.71875 521.292969 950.898438 521.710938 C 951.078125 522.191406 949.523438 524.042969 949.523438 524.042969 L 947.964844 524.042969 L 947.964844 520.515625 L 945.035156 522.847656 L 944.078125 524.101562 L 943.300781 525.65625 L 942.34375 523.503906 L 943.121094 522.25 L 941.566406 521.769531 L 939.53125 523.144531 L 938.453125 524.402344 L 937.675781 527.328125 L 936 526.554688 L 934.148438 527.328125 L 934.148438 533.964844 C 934.148438 533.964844 937.078125 539.226562 938.15625 539.226562 C 939.230469 539.226562 940.1875 540.898438 940.1875 540.898438 L 939.230469 542.929688 C 939.230469 542.929688 936.601562 543.109375 935.703125 544.007812 C 934.804688 544.902344 934.148438 546.039062 934.148438 546.039062 L 931.515625 547.292969 L 930.558594 548.667969 C 930.558594 548.667969 931.632812 550.042969 932.113281 550.042969 C 932.589844 550.042969 933.488281 550.042969 933.488281 550.042969 L 935.640625 548.96875 L 937.199219 548.789062 L 937.378906 550.042969 C 937.378906 550.042969 937.078125 550.519531 936.121094 551 C 935.164062 551.476562 935.164062 552.851562 933.488281 552.671875 C 931.8125 552.492188 929.601562 553.628906 929.601562 553.628906 C 929.601562 553.628906 926.488281 555.960938 928.042969 556.738281 C 929.601562 557.515625 930.199219 556.738281 930.199219 556.738281 L 929.898438 558.589844 L 929.898438 560.621094 C 929.898438 560.621094 930.199219 560.800781 930.496094 561.699219 C 930.796875 562.65625 930.976562 564.03125 930.976562 564.03125 L 930.019531 565.40625 L 929.0625 566.359375 L 928.761719 569.769531 L 926.070312 569.769531 C 926.070312 569.769531 924.695312 570.546875 924.8125 571.144531 C 924.992188 571.742188 926.847656 572.398438 926.847656 572.398438 L 930.855469 572.398438 L 930.378906 573.953125 C 930.378906 573.953125 929.601562 573.773438 929.121094 573.953125 C 928.644531 574.132812 927.265625 574.25 926.667969 573.953125 C 926.070312 573.652344 927.148438 574.132812 926.070312 573.652344 C 924.992188 573.175781 923.257812 573.054688 923.257812 574.132812 C 923.257812 575.207031 924.335938 578.433594 924.8125 579.03125 C 925.292969 579.628906 926.847656 581.066406 926.847656 581.066406 L 929.660156 582.019531 L 928.882812 583.277344 L 926.550781 582.5 L 924.097656 582.320312 C 924.097656 582.320312 921.644531 583.992188 923.320312 586.027344 C 924.992188 588.058594 927.507812 587.101562 927.507812 587.101562 L 929.121094 587.339844 " fill-opacity="1" fill-rule="nonzero"/></g><path fill="#ffffff" d="M 425.574219 455.613281 C 425.851562 455.394531 426.105469 455.152344 426.335938 454.894531 C 426.015625 455.125 425.738281 455.367188 425.574219 455.613281 " fill-opacity="1" fill-rule="nonzero"/><path fill="#ffffff" d="M 546.195312 429.492188 C 545.925781 429.359375 545.667969 429.195312 545.421875 428.964844 C 545.425781 428.960938 546.199219 429.800781 546.195312 429.492188 " fill-opacity="1" fill-rule="nonzero"/><g clip-path="url(#e6269577b8)"><path fill="#ffffff" d="M 180.0625 241.710938 C 177.605469 253.066406 174.617188 266.875 173.769531 278.550781 C 173.398438 283.683594 173.664062 289.03125 174.910156 294.042969 C 176.273438 299.519531 180.992188 303.121094 182.226562 308.730469 C 183.339844 313.800781 183.03125 319.152344 184.101562 324.25 C 185.382812 330.347656 187.835938 336.195312 188.652344 342.390625 C 189.039062 345.324219 188.507812 347.726562 190.214844 349.847656 C 194.480469 355.128906 206.820312 355.796875 208.203125 363.796875 C 208.367188 364.738281 216.253906 378.132812 217.632812 379.507812 C 221.636719 383.496094 227.707031 383.511719 232.960938 383.816406 C 244.179688 384.460938 253.347656 395.210938 263.054688 399.886719 C 273.714844 405.023438 285.5625 411.261719 297.714844 411.398438 C 301.636719 411.441406 306.542969 410.503906 307.84375 406 C 308.5625 403.523438 325.167969 410.375 326.605469 411.265625 C 333.265625 415.390625 337.925781 422.011719 341.484375 428.835938 C 344.601562 434.8125 346.960938 442.941406 355.488281 442.347656 C 358.835938 442.113281 361.292969 437.972656 364.339844 436.8125 C 378.726562 431.390625 388.808594 452.128906 394.375 462.671875 C 397.289062 468.179688 398.308594 475.457031 403.609375 479.3125 C 407.886719 482.425781 415.492188 484.96875 420.640625 482.632812 C 418.726562 477.519531 419.980469 471.433594 416.4375 466.898438 C 416.425781 466.898438 418.96875 467.328125 418.804688 467.761719 C 420.644531 463.011719 420.996094 454.96875 426.917969 454.164062 C 426.742188 454.421875 426.546875 454.664062 426.335938 454.894531 C 427.191406 454.285156 428.394531 453.730469 428.972656 453.332031 C 434.046875 449.789062 444.375 448.320312 446.128906 441.460938 C 446.929688 440.945312 455.464844 434.855469 456.203125 435.210938 C 461.554688 437.800781 468.589844 436.003906 474.585938 436.34375 C 478.84375 436.582031 496.824219 449.0625 496.105469 436.84375 C 496.359375 441.160156 505.078125 442.625 507.398438 440.609375 C 505.578125 438.816406 503.320312 437.113281 501.011719 435.84375 C 498.660156 434.550781 502.71875 427.253906 495.175781 428.273438 C 500.695312 426.691406 509.433594 424.457031 515.121094 426.328125 C 515.765625 425.421875 516.207031 424.148438 516.65625 423.128906 C 521.679688 428.585938 533.34375 420.488281 534.757812 421.972656 C 535.628906 422.898438 546.085938 425.835938 546.195312 429.492188 C 548.890625 430.863281 552.722656 427.875 556.488281 426.492188 C 556.542969 425.515625 556.457031 425.148438 556.621094 423.988281 C 561.832031 423.09375 569.953125 429.730469 572.839844 433.460938 C 576.515625 438.230469 573.761719 445.0625 577.378906 449.78125 C 577.425781 449.738281 578.015625 449.070312 578.078125 449.050781 C 577.4375 451.628906 579.046875 454.429688 580.691406 456.296875 C 581.257812 456.9375 585.359375 459.410156 585.339844 459.355469 C 587.675781 466.023438 599.867188 472.96875 599.949219 477.617188 C 600.710938 477.777344 607.058594 477.90625 607.101562 476.789062 C 607.277344 472.445312 608.578125 466.941406 609.175781 462.511719 C 609.214844 462.238281 609.128906 461.960938 609.101562 461.6875 C 609.078125 461.503906 609.058594 461.3125 609.039062 461.109375 C 609.035156 451.941406 601.328125 445.058594 597.386719 437.53125 C 597.914062 438.113281 598.4375 438.710938 598.90625 439.34375 C 597.757812 437.777344 597.589844 433.488281 596.550781 431.375 C 595.203125 428.652344 593.296875 426.25 591.632812 423.726562 C 588.171875 418.472656 584.992188 413.164062 585.742188 406.605469 C 587.3125 392.871094 627.46875 360.289062 621.675781 350.078125 C 621.621094 349.980469 626.941406 341.703125 626.984375 339.835938 C 627.007812 338.90625 623.910156 332.449219 623.289062 331.09375 C 620.378906 324.75 616.140625 313.730469 609.597656 310.160156 C 612.363281 311.667969 615.34375 312.847656 618.414062 313.574219 C 616.347656 308.6875 616.667969 305.328125 616.574219 300.265625 C 616.738281 309.113281 624.535156 311.964844 624.296875 322.402344 C 624.34375 320.300781 627.589844 316.246094 627.921875 313.335938 C 628.566406 307.683594 625.855469 301.835938 624.34375 296.515625 C 624.84375 296.511719 628.679688 296.816406 628.886719 297.632812 C 629.140625 298.652344 628.804688 299.5625 629.195312 300.507812 C 631.203125 297.578125 633.277344 293.808594 633.964844 290.304688 C 634.589844 287.160156 632.515625 282.019531 632.726562 280.71875 C 634.097656 272.183594 647.113281 269.394531 653.332031 265.894531 C 655.890625 264.453125 662.601562 261.519531 663.136719 258.050781 C 664.132812 251.648438 653.785156 252.488281 655.292969 246.125 C 653.785156 241.578125 656.242188 236.332031 656.375 232.035156 C 658.121094 231.054688 658.457031 229.9375 659.785156 228.867188 C 660.605469 228.816406 661.066406 229.128906 661.871094 229.050781 C 664.167969 228.839844 664.855469 221.71875 664.910156 220.171875 C 664.863281 221.492188 668.378906 220.734375 668.917969 219.605469 C 669.335938 219.226562 669.148438 220.011719 669.269531 220.558594 C 680.890625 213.261719 674.769531 210.488281 669.320312 201.984375 C 667.308594 198.84375 667.851562 194.113281 665.773438 190.816406 C 661.945312 184.742188 657.398438 188.09375 651.457031 186.445312 C 643.203125 201.113281 649.257812 218.621094 628.34375 223.667969 C 616.582031 226.5 606.339844 228.503906 602.609375 241.582031 C 602.867188 240.671875 606.84375 247.996094 604.214844 247.625 C 604.039062 247.605469 603.839844 247.574219 603.699219 247.660156 C 603.550781 247.753906 603.449219 247.898438 603.292969 247.984375 C 603.175781 248.050781 603.121094 247.996094 603.039062 248.105469 C 602.953125 248.214844 603.003906 248.410156 602.882812 248.492188 C 602.792969 248.554688 602.671875 248.484375 602.578125 248.507812 C 602.578125 248.507812 602.488281 248.53125 602.417969 248.714844 C 602.347656 248.898438 602.269531 248.949219 602.1875 249.027344 C 598.511719 252.507812 586.371094 252.5 581.21875 255.667969 C 582.226562 257.328125 581.882812 258.664062 583.304688 260.167969 C 583.378906 272.773438 556.097656 283.097656 546.175781 279.9375 C 546.550781 276.183594 548.21875 272.304688 550.183594 268.957031 C 551.03125 268.902344 551.210938 269.757812 551.796875 269.71875 C 551.097656 266.359375 549.746094 255.003906 546.238281 253.296875 C 544.21875 252.316406 538.539062 253.078125 539.558594 256.785156 C 539.65625 257.117188 539.773438 257.4375 539.925781 257.734375 C 539.75 257.394531 539.640625 257.082031 539.558594 256.785156 C 538.25 252.347656 541.539062 244.84375 541.050781 239.574219 C 540.117188 229.4375 524.371094 234.824219 522.996094 242.769531 C 522.261719 242.550781 521.492188 241.996094 520.722656 241.835938 C 513.128906 248.929688 522.742188 289.933594 509.269531 285.375 C 494.945312 280.53125 505.746094 251.410156 508.289062 242.023438 C 506.78125 244.402344 501.851562 248.152344 501.058594 250.347656 C 502.992188 245 505.867188 239.695312 508.078125 234.257812 C 508.542969 234.65625 508.910156 235.140625 509.167969 235.703125 C 510.148438 235.902344 510.308594 233.941406 511.328125 233.839844 C 511.398438 234.554688 510.953125 235.414062 511.039062 236.195312 C 515.515625 232.164062 520.894531 228.300781 526.632812 232.234375 C 527.992188 229.238281 533.011719 228.789062 535.800781 228.601562 C 535.089844 228.339844 524.042969 223.410156 524.105469 224.609375 C 524.050781 223.539062 523.941406 222.46875 523.839844 221.460938 C 518.863281 222.210938 512.117188 226.261719 508.132812 226.191406 C 503.660156 226.113281 500.058594 220.183594 494.648438 223.226562 C 495.429688 220.09375 497.816406 217.988281 499.800781 215.710938 C 499.839844 215.660156 495.152344 216.484375 494.371094 216.859375 C 492.242188 217.882812 490.414062 219.792969 488.539062 221.207031 C 484.71875 224.089844 480.273438 227.871094 475.105469 226.976562 C 475.339844 226.121094 475.734375 225.339844 476.269531 224.632812 C 473.265625 223.765625 468.640625 225.078125 466.078125 225.164062 C 467.796875 223.546875 481.015625 210.121094 482.21875 210.273438 C 465.785156 208.152344 448.898438 208.15625 437.820312 196.152344 C 437.453125 210.863281 344.910156 196.855469 333.8125 195.703125 C 313.046875 193.546875 292.445312 190.078125 271.996094 185.867188 C 261.84375 183.777344 251.796875 181.019531 241.652344 178.832031 C 235.78125 177.5625 228.945312 174.882812 222.917969 175.027344 C 221.113281 175.070312 218.144531 173.089844 216.632812 174.164062 C 214.710938 175.53125 214.914062 181.589844 214.976562 183.664062 C 214.960938 183.9375 213.535156 183.492188 213.402344 183.59375 C 216.390625 187.785156 213.722656 190.914062 209.667969 193.164062 C 211.679688 191.039062 211.566406 189.625 212.640625 187.421875 C 211.441406 188.320312 209.695312 189.15625 208.363281 190.039062 C 210.554688 188.023438 210.855469 185.550781 212.167969 183.066406 C 212.0625 183.003906 211.957031 182.941406 211.851562 182.878906 C 207.746094 180.503906 202.789062 178.492188 198.03125 178.0625 C 196.464844 183.53125 196.238281 201.761719 199.085938 203.042969 C 192.027344 199.863281 180.851562 238.0625 180.0625 241.710938 " fill-opacity="1" fill-rule="nonzero"/></g><path fill="#ffffff" d="M 539.925781 257.734375 C 539.773438 257.4375 539.65625 257.117188 539.558594 256.785156 C 539.640625 257.082031 539.75 257.394531 539.925781 257.734375 " fill-opacity="1" fill-rule="nonzero"/><g clip-path="url(#0e41eef82d)"><g clip-path="url(#469ff04081)"><g clip-path="url(#ac9bde519b)"><g clip-path="url(#cf10bb096f)"><path fill="#ffffff" d="M 896.996094 362.121094 L 892.125 345.808594 L 887.234375 329.464844 L 903.648438 333.632812 L 920.0625 337.796875 L 908.515625 349.945312 Z M 896.996094 362.121094 " fill-opacity="1" fill-rule="nonzero"/></g></g></g></g><g clip-path="url(#c5198b6beb)"><g clip-path="url(#79b9f45b75)"><g clip-path="url(#f270dd0d19)"><g clip-path="url(#936e17881b)"><path fill="#ffffff" d="M 888.648438 350.652344 C 888.511719 350.78125 888.351562 350.878906 888.1875 350.980469 C 884.730469 352.6875 880.972656 353.851562 877.019531 354.484375 C 876.011719 354.664062 875.058594 353.972656 874.878906 352.960938 C 874.699219 351.953125 875.390625 351 876.398438 350.824219 C 879.980469 350.230469 883.363281 349.15625 886.5 347.652344 C 887.410156 347.207031 888.535156 347.589844 889.007812 348.527344 C 889.40625 349.226562 889.21875 350.117188 888.648438 350.652344 Z M 866.839844 354.304688 C 866.460938 354.660156 865.925781 354.851562 865.375 354.808594 C 861.480469 354.414062 857.65625 353.492188 854.03125 352.132812 C 853.066406 351.757812 852.574219 350.683594 852.945312 349.71875 C 853.320312 348.757812 854.390625 348.265625 855.355469 348.640625 C 858.667969 349.886719 862.203125 350.714844 865.78125 351.101562 C 866.804688 351.214844 867.542969 352.109375 867.457031 353.164062 C 867.363281 353.609375 867.167969 353.996094 866.839844 354.304688 Z M 846.164062 346.40625 C 845.511719 347.015625 844.503906 347.089844 843.785156 346.535156 C 841.847656 345.125 840.027344 343.507812 838.417969 341.789062 C 837.882812 341.21875 837.347656 340.59375 836.839844 339.996094 C 836.355469 339.425781 835.925781 338.855469 835.496094 338.289062 C 834.863281 337.449219 835.054688 336.292969 835.867188 335.6875 C 836.679688 335.082031 837.859375 335.253906 838.46875 336.066406 C 838.871094 336.605469 839.277344 337.148438 839.710938 337.664062 C 840.167969 338.207031 840.625 338.75 841.109375 339.269531 C 842.566406 340.820312 844.207031 342.300781 845.960938 343.574219 C 846.789062 344.183594 846.960938 345.347656 846.355469 346.171875 C 846.328125 346.25 846.246094 346.328125 846.164062 346.40625 Z M 832.4375 328.976562 C 832.328125 329.078125 832.167969 329.175781 832.03125 329.25 C 831.121094 329.75 829.996094 329.367188 829.5 328.453125 C 828.851562 327.21875 828.207031 325.929688 827.558594 324.695312 C 826.566406 322.707031 825.519531 320.71875 824.449219 318.757812 L 825.960938 317.648438 L 827.671875 316.914062 C 828.796875 318.929688 829.839844 320.96875 830.859375 322.984375 C 831.507812 324.21875 832.125 325.480469 832.773438 326.714844 C 833.222656 327.523438 833.035156 328.414062 832.4375 328.976562 Z M 821.308594 309.574219 C 821.253906 309.625 821.171875 309.699219 821.117188 309.75 C 820.28125 310.332031 819.125 310.132812 818.519531 309.269531 C 816.449219 306.296875 814.140625 303.394531 811.746094 300.621094 C 811.058594 299.835938 811.144531 298.835938 811.9375 297.988281 C 812.722656 297.304688 813.882812 297.394531 814.570312 298.183594 C 817.0625 301.066406 819.421875 304.074219 821.59375 307.15625 C 822.097656 307.910156 821.988281 308.9375 821.308594 309.574219 Z M 715.003906 397.351562 C 714.378906 397.9375 713.398438 398.035156 712.652344 397.507812 C 711.796875 396.925781 711.597656 395.730469 712.179688 394.933594 C 714.058594 392.25 715.480469 389.027344 716.492188 385.363281 C 716.789062 384.371094 717.78125 383.796875 718.800781 384.070312 C 719.796875 384.367188 720.371094 385.363281 720.101562 386.382812 C 718.96875 390.460938 717.351562 394.078125 715.222656 397.09375 C 715.195312 397.171875 715.113281 397.246094 715.003906 397.351562 Z M 706.726562 404.648438 C 706.589844 404.773438 706.425781 404.875 706.265625 404.972656 C 705.597656 405.292969 704.902344 405.589844 704.152344 405.878906 C 701.027344 407.015625 697.742188 407.433594 694.375 407.109375 C 693.351562 406.996094 692.613281 406.101562 692.699219 405.101562 C 692.78125 404.101562 693.675781 403.3125 694.730469 403.398438 C 697.519531 403.652344 700.273438 403.320312 702.863281 402.378906 C 703.476562 402.164062 704.066406 401.917969 704.605469 401.621094 C 705.515625 401.175781 706.636719 401.554688 707.109375 402.496094 C 707.480469 403.21875 707.296875 404.113281 706.726562 404.648438 Z M 721.191406 376.152344 C 720.835938 376.484375 720.382812 376.65625 719.882812 376.664062 C 718.851562 376.65625 718.035156 375.785156 718.042969 374.753906 C 718.066406 373.910156 718.039062 373.117188 718.039062 372.300781 C 717.960938 369.816406 717.730469 367.117188 717.304688 363.882812 C 717.175781 362.875 717.917969 361.925781 718.925781 361.800781 C 719.933594 361.675781 720.886719 362.421875 721.011719 363.425781 C 721.433594 366.820312 721.664062 369.570312 721.765625 372.1875 C 721.789062 373.085938 721.789062 373.957031 721.785156 374.878906 C 721.769531 375.355469 721.542969 375.824219 721.191406 376.152344 Z M 806.640625 292.71875 C 805.933594 293.382812 804.824219 293.398438 804.082031 292.710938 C 801.390625 290.21875 798.535156 287.828125 795.648438 285.671875 C 794.824219 285.066406 794.648438 283.898438 795.28125 283.046875 C 795.863281 282.25 797.054688 282.050781 797.90625 282.6875 C 800.921875 284.925781 803.851562 287.398438 806.648438 290 C 807.417969 290.710938 807.433594 291.875 806.75 292.617188 C 806.695312 292.667969 806.667969 292.695312 806.640625 292.71875 Z M 685.316406 403.164062 C 684.746094 403.699219 683.871094 403.855469 683.144531 403.460938 C 679.980469 401.71875 676.808594 399.367188 673.757812 396.546875 C 672.988281 395.835938 672.972656 394.671875 673.679688 393.90625 C 674.335938 393.1875 675.554688 393.125 676.324219 393.835938 C 679.140625 396.464844 682.003906 398.59375 684.9375 400.195312 C 685.84375 400.675781 686.152344 401.820312 685.671875 402.726562 C 685.5625 402.882812 685.453125 403.035156 685.316406 403.164062 Z M 718.886719 353.90625 C 718.613281 354.164062 718.265625 354.335938 717.867188 354.402344 C 716.859375 354.527344 715.90625 353.835938 715.753906 352.800781 C 715.324219 349.671875 714.820312 345.589844 714.6875 341.46875 C 714.640625 340.4375 715.460938 339.566406 716.515625 339.550781 C 717.546875 339.507812 718.417969 340.328125 718.4375 341.382812 C 718.578125 345.292969 719.039062 349.109375 719.460938 352.34375 C 719.550781 352.925781 719.320312 353.5 718.886719 353.90625 Z M 788.695312 279.398438 C 788.125 279.933594 787.246094 280.085938 786.519531 279.691406 C 783.125 277.8125 779.789062 276.433594 776.625 275.5625 C 775.628906 275.316406 775.054688 274.269531 775.296875 273.273438 C 775.566406 272.304688 776.585938 271.707031 777.582031 271.949219 C 781.011719 272.882812 784.65625 274.378906 788.289062 276.402344 C 789.167969 276.90625 789.503906 278.023438 789.027344 278.933594 C 788.941406 279.113281 788.832031 279.269531 788.695312 279.398438 Z M 668.902344 388.152344 C 668.847656 388.203125 668.792969 388.253906 668.738281 388.304688 C 667.929688 388.910156 666.746094 388.738281 666.136719 387.925781 L 665.378906 386.898438 C 663.207031 383.816406 661.476562 380.988281 660.007812 378.21875 C 659.507812 377.304688 659.859375 376.207031 660.773438 375.710938 C 661.683594 375.214844 662.808594 375.59375 663.28125 376.480469 C 664.648438 379.085938 666.359375 381.785156 668.429688 384.757812 L 669.113281 385.703125 C 669.695312 386.433594 669.582031 387.511719 668.902344 388.152344 Z M 718.640625 331.625 C 718.230469 332.007812 717.644531 332.199219 717.042969 332.097656 C 716.046875 331.90625 715.335938 330.933594 715.554688 329.910156 C 716.25 326.242188 717.371094 322.53125 718.886719 318.859375 C 719.257812 317.894531 720.382812 317.457031 721.320312 317.859375 C 722.257812 318.261719 722.722656 319.359375 722.324219 320.292969 C 720.894531 323.730469 719.863281 327.207031 719.226562 330.617188 C 719.109375 331.035156 718.914062 331.371094 718.640625 331.625 Z M 767.300781 274.167969 C 767.027344 274.421875 766.679688 274.59375 766.253906 274.632812 C 764.957031 274.773438 763.65625 275.074219 762.429688 275.453125 C 760.511719 276.078125 758.605469 276.988281 756.667969 278.242188 C 755.804688 278.796875 754.652344 278.546875 754.097656 277.683594 C 753.546875 276.820312 753.765625 275.691406 754.65625 275.113281 C 756.890625 273.683594 759.035156 272.648438 761.300781 271.90625 C 762.765625 271.453125 764.28125 271.109375 765.792969 270.921875 C 766.800781 270.796875 767.753906 271.542969 767.878906 272.550781 C 767.9375 273.210938 767.707031 273.785156 767.300781 274.167969 Z M 726.996094 311.054688 C 726.398438 311.617188 725.472656 311.71875 724.746094 311.269531 C 723.867188 310.714844 723.613281 309.570312 724.140625 308.71875 C 726.003906 305.691406 728.160156 302.648438 730.691406 299.410156 C 731.324219 298.613281 732.515625 298.46875 733.3125 299.101562 C 734.109375 299.734375 734.257812 300.929688 733.625 301.726562 C 731.179688 304.835938 729.105469 307.800781 727.300781 310.671875 C 727.214844 310.800781 727.132812 310.929688 726.996094 311.054688 Z M 740.695312 293.410156 C 739.988281 294.074219 738.882812 294.089844 738.164062 293.429688 C 737.394531 292.71875 737.324219 291.554688 738.035156 290.789062 C 739.894531 288.738281 741.777344 286.769531 743.660156 284.800781 C 744.371094 284.085938 745.082031 283.316406 745.789062 282.601562 C 746.496094 281.941406 747.6875 281.847656 748.429688 282.585938 C 749.171875 283.324219 749.160156 284.511719 748.449219 285.226562 C 747.742188 285.941406 747.03125 286.65625 746.351562 287.398438 C 744.492188 289.34375 742.636719 291.285156 740.804688 293.308594 C 740.777344 293.335938 740.722656 293.386719 740.695312 293.410156 Z M 658.738281 368.304688 C 658.519531 368.511719 658.25 368.660156 657.929688 368.753906 C 656.945312 369.011719 655.933594 368.421875 655.652344 367.410156 C 655.511719 366.824219 655.34375 366.265625 655.230469 365.707031 C 654.582031 362.785156 654.207031 359.605469 654.058594 355.957031 C 654.015625 354.925781 654.832031 354.054688 655.863281 354.011719 C 656.894531 353.96875 657.765625 354.789062 657.8125 355.820312 C 657.914062 359.253906 658.296875 362.222656 658.871094 364.90625 C 659.011719 365.4375 659.101562 365.96875 659.269531 366.476562 C 659.457031 367.167969 659.226562 367.847656 658.738281 368.304688 Z M 657.355469 346.066406 C 657 346.394531 656.546875 346.566406 656.046875 346.574219 C 655.015625 346.566406 654.199219 345.695312 654.234375 344.640625 C 654.296875 341.765625 654.375 338.46875 654.1875 335.21875 C 654.152344 334.6875 654.117188 334.160156 654.082031 333.628906 C 653.980469 332.597656 654.773438 331.699219 655.78125 331.628906 C 656.8125 331.53125 657.710938 332.328125 657.785156 333.332031 C 657.847656 333.886719 657.855469 334.441406 657.890625 335.023438 C 658.074219 338.382812 657.992188 341.785156 657.898438 344.738281 C 657.933594 345.265625 657.707031 345.734375 657.355469 346.066406 Z M 655.390625 323.855469 C 655.175781 324.0625 654.878906 324.234375 654.585938 324.304688 C 653.601562 324.5625 652.566406 323.945312 652.304688 322.960938 C 651.414062 319.449219 650.230469 316.003906 648.78125 312.65625 C 648.359375 311.71875 648.816406 310.625 649.753906 310.207031 C 650.691406 309.789062 651.785156 310.25 652.203125 311.1875 C 653.726562 314.722656 654.984375 318.355469 655.898438 322.050781 C 656.113281 322.71875 655.882812 323.398438 655.390625 323.855469 Z M 646.566406 303.371094 C 646.484375 303.449219 646.402344 303.523438 646.296875 303.574219 C 645.433594 304.125 644.28125 303.875 643.703125 302.984375 C 641.765625 299.9375 639.5625 296.988281 637.167969 294.269531 C 636.480469 293.480469 636.566406 292.425781 637.359375 291.636719 C 638.144531 290.949219 639.304688 291.039062 639.992188 291.828125 C 642.511719 294.683594 644.816406 297.796875 646.878906 301.03125 C 647.328125 301.785156 647.191406 302.785156 646.566406 303.371094 Z M 586.066406 351.40625 C 586.011719 351.457031 585.984375 351.484375 585.929688 351.535156 C 585.117188 352.140625 583.933594 352.023438 583.328125 351.210938 C 581.628906 349.015625 580.355469 347.546875 579.234375 346.296875 C 578.164062 345.046875 577.222656 343.984375 576.183594 342.605469 C 575.578125 341.792969 575.746094 340.609375 576.558594 340.003906 C 577.367188 339.398438 578.550781 339.570312 579.15625 340.382812 C 580.117188 341.679688 581.035156 342.714844 582.054688 343.855469 C 583.203125 345.1875 584.523438 346.710938 586.273438 348.960938 C 586.859375 349.640625 586.773438 350.746094 586.066406 351.40625 Z M 631.789062 286.617188 C 631.109375 287.253906 630.078125 287.300781 629.308594 286.695312 C 626.476562 284.382812 623.484375 282.277344 620.371094 280.484375 C 619.492188 279.976562 619.183594 278.832031 619.6875 277.953125 C 620.164062 277.042969 621.335938 276.765625 622.214844 277.273438 C 625.507812 279.152344 628.683594 281.34375 631.667969 283.816406 C 632.464844 284.449219 632.558594 285.640625 631.929688 286.4375 C 631.925781 286.492188 631.84375 286.566406 631.789062 286.617188 Z M 573.046875 333.316406 C 572.910156 333.441406 572.722656 333.566406 572.535156 333.640625 C 571.597656 334.058594 570.503906 333.652344 570.058594 332.738281 C 568.476562 329.308594 567.675781 325.402344 567.707031 321.074219 C 567.714844 320.046875 568.558594 319.203125 569.585938 319.210938 C 570.617188 319.21875 571.460938 320.066406 571.453125 321.09375 C 571.441406 324.894531 572.097656 328.269531 573.457031 331.191406 C 573.832031 331.917969 573.617188 332.78125 573.046875 333.316406 Z M 612.105469 277.382812 C 611.804688 277.660156 611.40625 277.832031 610.980469 277.871094 C 610.320312 277.929688 609.5 277.980469 608.628906 278.03125 C 606.40625 278.167969 601.832031 278.460938 600.921875 278.90625 C 600.007812 279.351562 598.75 279.097656 598.25 278.183594 C 597.777344 277.296875 597.996094 276.222656 598.882812 275.75 L 599.753906 277.390625 L 599.175781 275.628906 C 600.652344 274.859375 603.933594 274.601562 608.375 274.328125 C 609.222656 274.25 610.015625 274.222656 610.675781 274.167969 C 611.707031 274.070312 612.605469 274.863281 612.679688 275.871094 C 612.714844 276.453125 612.511719 277 612.105469 277.382812 Z M 572.710938 311.425781 C 572.222656 311.882812 571.527344 312.070312 570.851562 311.835938 C 569.882812 311.515625 569.335938 310.441406 569.65625 309.476562 C 570.914062 305.636719 572.742188 302.03125 574.976562 299.019531 C 575.582031 298.195312 576.75 298.023438 577.574219 298.628906 C 578.398438 299.238281 578.574219 300.40625 577.96875 301.230469 C 575.957031 303.933594 574.320312 307.203125 573.210938 310.648438 C 573.121094 310.9375 572.929688 311.222656 572.710938 311.425781 Z M 584.050781 292.460938 C 583.589844 292.894531 582.921875 293.054688 582.269531 292.902344 C 581.277344 292.605469 580.699219 291.609375 580.96875 290.589844 C 581.417969 288.992188 582.078125 287.25 584.554688 284.929688 C 585.695312 283.859375 587.183594 282.722656 589.070312 281.464844 C 589.90625 280.886719 591.085938 281.109375 591.664062 282 C 592.21875 282.863281 592.023438 284.019531 591.132812 284.597656 C 589.4375 285.726562 588.109375 286.765625 587.132812 287.679688 C 585.335938 289.363281 584.933594 290.457031 584.605469 291.632812 C 584.488281 291.949219 584.296875 292.230469 584.050781 292.460938 Z M 584.050781 292.460938 " fill-opacity="1" fill-rule="nonzero"/></g></g></g></g><g fill="#000000" fill-opacity="1"><g transform="translate(1067.486281, 354.767581)"><g><path d="M 0.71875 -14.296875 L 7.6875 -14.296875 L 7.6875 -12.3125 L 7.046875 -12.3125 C 6.679688 -12.3125 6.4375 -12.28125 6.3125 -12.21875 C 6.195312 -12.15625 6.109375 -12.050781 6.046875 -11.90625 C 5.992188 -11.769531 5.96875 -11.503906 5.96875 -11.109375 L 5.96875 -3.203125 C 5.96875 -2.765625 5.988281 -2.484375 6.03125 -2.359375 C 6.082031 -2.242188 6.164062 -2.15625 6.28125 -2.09375 C 6.425781 -2.019531 6.640625 -1.984375 6.921875 -1.984375 L 7.6875 -1.984375 L 7.6875 0 L 0.71875 0 L 0.71875 -1.984375 L 1.28125 -1.984375 C 1.6875 -1.984375 1.945312 -2.007812 2.0625 -2.0625 C 2.1875 -2.125 2.273438 -2.21875 2.328125 -2.34375 C 2.390625 -2.46875 2.421875 -2.71875 2.421875 -3.09375 L 2.421875 -11.03125 C 2.421875 -11.476562 2.390625 -11.769531 2.328125 -11.90625 C 2.273438 -12.050781 2.179688 -12.160156 2.046875 -12.234375 C 1.953125 -12.285156 1.722656 -12.3125 1.359375 -12.3125 L 0.71875 -12.3125 Z M 0.71875 -14.296875 "/></g></g></g><g fill="#000000" fill-opacity="1"><g transform="translate(1077.455509, 354.767581)"><g><path d="M 0.796875 -14.296875 L 6.609375 -14.296875 L 10.796875 -5.953125 L 10.796875 -11.0625 C 10.796875 -11.5 10.773438 -11.769531 10.734375 -11.875 C 10.660156 -12.039062 10.566406 -12.15625 10.453125 -12.21875 C 10.335938 -12.28125 10.113281 -12.3125 9.78125 -12.3125 L 9.078125 -12.3125 L 9.078125 -14.296875 L 14.984375 -14.296875 L 14.984375 -12.3125 L 14.328125 -12.3125 C 13.992188 -12.3125 13.753906 -12.273438 13.609375 -12.203125 C 13.472656 -12.128906 13.378906 -12.023438 13.328125 -11.890625 C 13.273438 -11.765625 13.25 -11.488281 13.25 -11.0625 L 13.25 0 L 10.3125 0 L 5 -10.53125 L 5 -3.171875 C 5 -2.742188 5.023438 -2.472656 5.078125 -2.359375 C 5.128906 -2.242188 5.21875 -2.148438 5.34375 -2.078125 C 5.476562 -2.015625 5.710938 -1.984375 6.046875 -1.984375 L 6.734375 -1.984375 L 6.734375 0 L 0.796875 0 L 0.796875 -1.984375 L 1.40625 -1.984375 C 1.75 -1.984375 1.984375 -2.007812 2.109375 -2.0625 C 2.242188 -2.125 2.347656 -2.222656 2.421875 -2.359375 C 2.492188 -2.503906 2.53125 -2.722656 2.53125 -3.015625 L 2.53125 -11.203125 C 2.53125 -11.523438 2.492188 -11.757812 2.421875 -11.90625 C 2.359375 -12.050781 2.269531 -12.15625 2.15625 -12.21875 C 2.039062 -12.28125 1.84375 -12.3125 1.5625 -12.3125 L 0.796875 -12.3125 Z M 0.796875 -14.296875 "/></g></g></g><g fill="#000000" fill-opacity="1"><g transform="translate(1094.558793, 354.767581)"><g><path d="M 0.78125 -14.296875 L 8.265625 -14.296875 C 9.960938 -14.296875 11.3125 -14.023438 12.3125 -13.484375 C 13.320312 -12.941406 14.125 -12.140625 14.71875 -11.078125 C 15.320312 -10.023438 15.625 -8.757812 15.625 -7.28125 C 15.625 -6.25 15.472656 -5.320312 15.171875 -4.5 C 14.867188 -3.6875 14.414062 -2.953125 13.8125 -2.296875 C 13.207031 -1.648438 12.5625 -1.164062 11.875 -0.84375 C 11.351562 -0.59375 10.613281 -0.390625 9.65625 -0.234375 C 8.707031 -0.078125 7.945312 0 7.375 0 L 0.78125 0 L 0.78125 -1.984375 L 1.265625 -1.984375 C 1.679688 -1.984375 1.953125 -2.015625 2.078125 -2.078125 C 2.210938 -2.148438 2.320312 -2.265625 2.40625 -2.421875 C 2.457031 -2.554688 2.484375 -2.84375 2.484375 -3.28125 L 2.484375 -11.09375 C 2.484375 -11.53125 2.453125 -11.8125 2.390625 -11.9375 C 2.335938 -12.0625 2.242188 -12.15625 2.109375 -12.21875 C 1.984375 -12.28125 1.703125 -12.3125 1.265625 -12.3125 L 0.78125 -12.3125 Z M 6 -12 L 6 -3.109375 C 6 -2.804688 6.019531 -2.625 6.0625 -2.5625 C 6.113281 -2.457031 6.191406 -2.382812 6.296875 -2.34375 C 6.398438 -2.3125 6.65625 -2.296875 7.0625 -2.296875 C 8.175781 -2.296875 9.050781 -2.46875 9.6875 -2.8125 C 10.320312 -3.15625 10.832031 -3.707031 11.21875 -4.46875 C 11.601562 -5.226562 11.796875 -6.132812 11.796875 -7.1875 C 11.796875 -8.226562 11.613281 -9.132812 11.25 -9.90625 C 10.882812 -10.675781 10.429688 -11.21875 9.890625 -11.53125 C 9.359375 -11.84375 8.585938 -12 7.578125 -12 Z M 6 -12 "/></g></g></g><g fill="#000000" fill-opacity="1"><g transform="translate(1112.502584, 354.767581)"><g><path d="M 0.71875 -14.296875 L 7.6875 -14.296875 L 7.6875 -12.3125 L 7.046875 -12.3125 C 6.679688 -12.3125 6.4375 -12.28125 6.3125 -12.21875 C 6.195312 -12.15625 6.109375 -12.050781 6.046875 -11.90625 C 5.992188 -11.769531 5.96875 -11.503906 5.96875 -11.109375 L 5.96875 -3.203125 C 5.96875 -2.765625 5.988281 -2.484375 6.03125 -2.359375 C 6.082031 -2.242188 6.164062 -2.15625 6.28125 -2.09375 C 6.425781 -2.019531 6.640625 -1.984375 6.921875 -1.984375 L 7.6875 -1.984375 L 7.6875 0 L 0.71875 0 L 0.71875 -1.984375 L 1.28125 -1.984375 C 1.6875 -1.984375 1.945312 -2.007812 2.0625 -2.0625 C 2.1875 -2.125 2.273438 -2.21875 2.328125 -2.34375 C 2.390625 -2.46875 2.421875 -2.71875 2.421875 -3.09375 L 2.421875 -11.03125 C 2.421875 -11.476562 2.390625 -11.769531 2.328125 -11.90625 C 2.273438 -12.050781 2.179688 -12.160156 2.046875 -12.234375 C 1.953125 -12.285156 1.722656 -12.3125 1.359375 -12.3125 L 0.71875 -12.3125 Z M 0.71875 -14.296875 "/></g></g></g><g fill="#000000" fill-opacity="1"><g transform="translate(1122.47181, 354.767581)"><g><path d="M 5.96875 -14.296875 L 9.1875 -14.296875 L 13.46875 -3.265625 C 13.707031 -2.671875 13.914062 -2.304688 14.09375 -2.171875 C 14.269531 -2.035156 14.601562 -1.972656 15.09375 -1.984375 L 15.09375 0 L 8.328125 0 L 8.328125 -1.984375 L 8.734375 -1.984375 C 9.109375 -1.984375 9.367188 -2.03125 9.515625 -2.125 C 9.671875 -2.226562 9.75 -2.351562 9.75 -2.5 C 9.75 -2.625 9.6875 -2.878906 9.5625 -3.265625 L 9.140625 -4.5625 L 4.78125 -4.5625 L 4.25 -3.109375 C 4.144531 -2.804688 4.09375 -2.609375 4.09375 -2.515625 C 4.09375 -2.398438 4.128906 -2.296875 4.203125 -2.203125 C 4.285156 -2.117188 4.414062 -2.054688 4.59375 -2.015625 C 4.707031 -1.992188 5.023438 -1.984375 5.546875 -1.984375 L 5.546875 0 L 0.015625 0 L 0.015625 -1.984375 C 0.367188 -1.984375 0.628906 -2.007812 0.796875 -2.0625 C 0.960938 -2.125 1.097656 -2.21875 1.203125 -2.34375 C 1.304688 -2.46875 1.425781 -2.695312 1.5625 -3.03125 Z M 5.53125 -6.59375 L 8.390625 -6.59375 L 7 -10.53125 Z M 5.53125 -6.59375 "/></g></g></g><g fill="#000000" fill-opacity="1"><g transform="translate(1139.165089, 354.767581)"><g><path d="M 0.796875 -14.296875 L 6.609375 -14.296875 L 10.796875 -5.953125 L 10.796875 -11.0625 C 10.796875 -11.5 10.773438 -11.769531 10.734375 -11.875 C 10.660156 -12.039062 10.566406 -12.15625 10.453125 -12.21875 C 10.335938 -12.28125 10.113281 -12.3125 9.78125 -12.3125 L 9.078125 -12.3125 L 9.078125 -14.296875 L 14.984375 -14.296875 L 14.984375 -12.3125 L 14.328125 -12.3125 C 13.992188 -12.3125 13.753906 -12.273438 13.609375 -12.203125 C 13.472656 -12.128906 13.378906 -12.023438 13.328125 -11.890625 C 13.273438 -11.765625 13.25 -11.488281 13.25 -11.0625 L 13.25 0 L 10.3125 0 L 5 -10.53125 L 5 -3.171875 C 5 -2.742188 5.023438 -2.472656 5.078125 -2.359375 C 5.128906 -2.242188 5.21875 -2.148438 5.34375 -2.078125 C 5.476562 -2.015625 5.710938 -1.984375 6.046875 -1.984375 L 6.734375 -1.984375 L 6.734375 0 L 0.796875 0 L 0.796875 -1.984375 L 1.40625 -1.984375 C 1.75 -1.984375 1.984375 -2.007812 2.109375 -2.0625 C 2.242188 -2.125 2.347656 -2.222656 2.421875 -2.359375 C 2.492188 -2.503906 2.53125 -2.722656 2.53125 -3.015625 L 2.53125 -11.203125 C 2.53125 -11.523438 2.492188 -11.757812 2.421875 -11.90625 C 2.359375 -12.050781 2.269531 -12.15625 2.15625 -12.21875 C 2.039062 -12.28125 1.84375 -12.3125 1.5625 -12.3125 L 0.796875 -12.3125 Z M 0.796875 -14.296875 "/></g></g></g><g fill="#000000" fill-opacity="1"><g transform="translate(1156.268371, 354.767581)"><g><path d="M 5.96875 -14.296875 L 9.1875 -14.296875 L 13.46875 -3.265625 C 13.707031 -2.671875 13.914062 -2.304688 14.09375 -2.171875 C 14.269531 -2.035156 14.601562 -1.972656 15.09375 -1.984375 L 15.09375 0 L 8.328125 0 L 8.328125 -1.984375 L 8.734375 -1.984375 C 9.109375 -1.984375 9.367188 -2.03125 9.515625 -2.125 C 9.671875 -2.226562 9.75 -2.351562 9.75 -2.5 C 9.75 -2.625 9.6875 -2.878906 9.5625 -3.265625 L 9.140625 -4.5625 L 4.78125 -4.5625 L 4.25 -3.109375 C 4.144531 -2.804688 4.09375 -2.609375 4.09375 -2.515625 C 4.09375 -2.398438 4.128906 -2.296875 4.203125 -2.203125 C 4.285156 -2.117188 4.414062 -2.054688 4.59375 -2.015625 C 4.707031 -1.992188 5.023438 -1.984375 5.546875 -1.984375 L 5.546875 0 L 0.015625 0 L 0.015625 -1.984375 C 0.367188 -1.984375 0.628906 -2.007812 0.796875 -2.0625 C 0.960938 -2.125 1.097656 -2.21875 1.203125 -2.34375 C 1.304688 -2.46875 1.425781 -2.695312 1.5625 -3.03125 Z M 5.53125 -6.59375 L 8.390625 -6.59375 L 7 -10.53125 Z M 5.53125 -6.59375 "/></g></g></g><g fill="#000000" fill-opacity="1"><g transform="translate(1067.777611, 330.306557)"><g><path d="M 0.8125 -0.015625 L 0.8125 -7.296875 L 5.796875 -7.296875 L 5.796875 -6.375 L 2.296875 -6.375 L 2.296875 -4.125 L 5.34375 -4.125 L 5.34375 -3.1875 L 2.296875 -3.1875 L 2.296875 -0.921875 L 5.796875 -0.921875 L 5.796875 -0.015625 Z M 0.8125 -0.015625 "/></g></g></g><g fill="#000000" fill-opacity="1"><g transform="translate(1083.039332, 330.306557)"><g><path d="M 6.671875 -7.296875 L 4.484375 -3.96875 L 6.78125 -0.015625 L 5.09375 -0.015625 L 3.59375 -2.59375 L 1.890625 -0.015625 L 0.8125 -0.015625 L 3.078125 -3.46875 L 0.859375 -7.296875 L 2.546875 -7.296875 L 3.984375 -4.828125 L 5.59375 -7.296875 Z M 6.671875 -7.296875 "/></g></g></g><g fill="#000000" fill-opacity="1"><g transform="translate(1099.283093, 330.306557)"><g><path d="M 3.265625 -3.671875 C 3.660156 -3.671875 3.941406 -3.785156 4.109375 -4.015625 C 4.273438 -4.242188 4.359375 -4.582031 4.359375 -5.03125 C 4.359375 -5.476562 4.273438 -5.8125 4.109375 -6.03125 C 3.941406 -6.257812 3.660156 -6.375 3.265625 -6.375 L 2.296875 -6.375 L 2.296875 -3.671875 Z M 3.265625 -7.296875 C 3.597656 -7.296875 3.914062 -7.257812 4.21875 -7.1875 C 4.53125 -7.113281 4.800781 -6.988281 5.03125 -6.8125 C 5.269531 -6.644531 5.457031 -6.414062 5.59375 -6.125 C 5.738281 -5.832031 5.8125 -5.46875 5.8125 -5.03125 C 5.8125 -4.40625 5.679688 -3.925781 5.421875 -3.59375 C 5.160156 -3.269531 4.828125 -3.046875 4.421875 -2.921875 C 4.234375 -2.859375 4.035156 -2.816406 3.828125 -2.796875 C 3.617188 -2.785156 3.410156 -2.773438 3.203125 -2.765625 C 3.046875 -2.753906 2.890625 -2.75 2.734375 -2.75 C 2.585938 -2.757812 2.441406 -2.765625 2.296875 -2.765625 L 2.296875 -0.015625 L 0.8125 -0.015625 L 0.8125 -7.296875 Z M 3.265625 -7.296875 "/></g></g></g><g fill="#000000" fill-opacity="1"><g transform="translate(1114.568185, 330.306557)"><g><path d="M 2.296875 -7.296875 L 2.296875 -0.921875 L 5.34375 -0.921875 L 5.34375 -0.015625 L 0.8125 -0.015625 L 0.8125 -7.296875 Z M 2.296875 -7.296875 "/></g></g></g><g fill="#000000" fill-opacity="1"><g transform="translate(1129.023228, 330.306557)"><g><path d="M 5.5625 -3.28125 L 5.5625 -3.75 C 5.5625 -4.09375 5.535156 -4.421875 5.484375 -4.734375 C 5.429688 -5.046875 5.34375 -5.320312 5.21875 -5.5625 C 5.09375 -5.8125 4.925781 -6.007812 4.71875 -6.15625 C 4.507812 -6.300781 4.242188 -6.375 3.921875 -6.375 C 3.597656 -6.375 3.332031 -6.300781 3.125 -6.15625 C 2.925781 -6.007812 2.765625 -5.8125 2.640625 -5.5625 C 2.515625 -5.320312 2.425781 -5.046875 2.375 -4.734375 C 2.320312 -4.421875 2.296875 -4.09375 2.296875 -3.75 L 2.296875 -3.28125 C 2.296875 -2.9375 2.320312 -2.609375 2.375 -2.296875 C 2.425781 -1.984375 2.515625 -1.703125 2.640625 -1.453125 C 2.765625 -1.210938 2.925781 -1.019531 3.125 -0.875 C 3.332031 -0.726562 3.597656 -0.65625 3.921875 -0.65625 C 4.242188 -0.65625 4.507812 -0.726562 4.71875 -0.875 C 4.925781 -1.019531 5.09375 -1.210938 5.21875 -1.453125 C 5.34375 -1.703125 5.429688 -1.984375 5.484375 -2.296875 C 5.535156 -2.609375 5.5625 -2.9375 5.5625 -3.28125 Z M 7.03125 -3.75 L 7.03125 -3.28125 C 7.03125 -2.757812 6.972656 -2.28125 6.859375 -1.84375 C 6.742188 -1.40625 6.554688 -1.03125 6.296875 -0.71875 C 6.046875 -0.40625 5.722656 -0.164062 5.328125 0 C 4.929688 0.164062 4.460938 0.25 3.921875 0.25 C 3.367188 0.25 2.894531 0.164062 2.5 0 C 2.113281 -0.164062 1.796875 -0.40625 1.546875 -0.71875 C 1.296875 -1.03125 1.109375 -1.40625 0.984375 -1.84375 C 0.867188 -2.28125 0.8125 -2.757812 0.8125 -3.28125 L 0.8125 -3.75 C 0.8125 -4.28125 0.867188 -4.757812 0.984375 -5.1875 C 1.109375 -5.625 1.296875 -6 1.546875 -6.3125 C 1.796875 -6.625 2.113281 -6.863281 2.5 -7.03125 C 2.894531 -7.207031 3.367188 -7.296875 3.921875 -7.296875 C 4.460938 -7.296875 4.929688 -7.207031 5.328125 -7.03125 C 5.722656 -6.863281 6.046875 -6.625 6.296875 -6.3125 C 6.554688 -6 6.742188 -5.625 6.859375 -5.1875 C 6.972656 -4.757812 7.03125 -4.28125 7.03125 -3.75 Z M 7.03125 -3.75 "/></g></g></g><g fill="#000000" fill-opacity="1"><g transform="translate(1145.5125, 330.306557)"><g><path d="M 3.265625 -3.671875 C 3.660156 -3.671875 3.941406 -3.785156 4.109375 -4.015625 C 4.273438 -4.242188 4.359375 -4.582031 4.359375 -5.03125 C 4.359375 -5.476562 4.273438 -5.8125 4.109375 -6.03125 C 3.941406 -6.257812 3.660156 -6.375 3.265625 -6.375 L 2.296875 -6.375 L 2.296875 -3.671875 Z M 4.515625 -2.953125 L 6.265625 -0.015625 L 4.546875 -0.015625 L 2.90625 -2.765625 L 2.296875 -2.765625 L 2.296875 -0.015625 L 0.8125 -0.015625 L 0.8125 -7.296875 L 3.265625 -7.296875 C 3.597656 -7.296875 3.914062 -7.257812 4.21875 -7.1875 C 4.53125 -7.113281 4.800781 -6.988281 5.03125 -6.8125 C 5.269531 -6.632812 5.457031 -6.398438 5.59375 -6.109375 C 5.738281 -5.828125 5.8125 -5.46875 5.8125 -5.03125 C 5.8125 -4.519531 5.703125 -4.082031 5.484375 -3.71875 C 5.273438 -3.363281 4.953125 -3.109375 4.515625 -2.953125 Z M 4.515625 -2.953125 "/></g></g></g><g fill="#000000" fill-opacity="1"><g transform="translate(1161.230168, 330.306557)"><g><path d="M 0.8125 -0.015625 L 0.8125 -7.296875 L 5.796875 -7.296875 L 5.796875 -6.375 L 2.296875 -6.375 L 2.296875 -4.125 L 5.34375 -4.125 L 5.34375 -3.1875 L 2.296875 -3.1875 L 2.296875 -0.921875 L 5.796875 -0.921875 L 5.796875 -0.015625 Z M 0.8125 -0.015625 "/></g></g></g></svg>