<svg xmlns="http://www.w3.org/2000/svg" xmlns:xlink="http://www.w3.org/1999/xlink" width="104" zoomAndPan="magnify" viewBox="0 0 78 74.999997" height="100" preserveAspectRatio="xMidYMid meet" version="1.0"><defs><clipPath id="ccf32ee06c"><path d="M 2.695312 1.507812 L 66.417969 1.507812 L 66.417969 73.507812 L 2.695312 73.507812 Z M 2.695312 1.507812 " clip-rule="nonzero"/></clipPath></defs><g clip-path="url(#ccf32ee06c)"><path fill="#5253f4" d="M 27.90625 63.953125 L 27.800781 63.953125 L 27.800781 60.878906 L 28.089844 60.773438 C 28.089844 60.773438 27.90625 63.269531 27.90625 63.9375 C 27.90625 63.941406 27.90625 63.949219 27.90625 63.953125 Z M 25.203125 66.023438 L 17.363281 65.421875 L 17.363281 65.003906 L 25.203125 65.238281 Z M 27.289062 60.515625 L 27.289062 65.371094 L 26.945312 61.292969 L 26.445312 61.292969 L 26.445312 64.34375 L 26.222656 61.738281 L 25.761719 61.738281 L 25.761719 61.292969 L 18.53125 61.847656 L 18.53125 62.558594 L 18.167969 63.289062 L 18.167969 61.878906 L 17.800781 61.90625 L 17.800781 63.289062 L 17.4375 64.023438 L 17.4375 61.933594 L 16.851562 61.976562 L 16.851562 65.898438 L 25.761719 66.582031 L 25.761719 66.136719 L 26.445312 66.136719 L 26.445312 66.582031 L 27.289062 66.582031 L 27.289062 67.359375 L 29.269531 68.066406 C 28.722656 66.796875 28.417969 65.402344 28.417969 63.9375 C 28.417969 62.472656 28.722656 61.078125 29.269531 59.808594 Z M 38.8125 72.480469 C 34.128906 72.480469 30.316406 68.648438 30.316406 63.9375 C 30.316406 60.5625 32.273438 57.53125 35.328125 56.152344 L 35.691406 56.335938 C 33.746094 57.144531 32.152344 58.714844 31.308594 60.660156 L 31.261719 60.769531 L 31.214844 60.882812 L 31.21875 61 L 31.226562 61.121094 L 31.539062 67.496094 L 31.546875 67.613281 L 31.550781 67.734375 L 31.667969 67.945312 C 33.113281 70.546875 35.851562 72.164062 38.8125 72.164062 C 41.769531 72.164062 44.507812 70.546875 45.957031 67.945312 L 46.070312 67.734375 L 46.078125 67.613281 L 46.085938 67.496094 L 46.398438 61.121094 L 46.402344 61 L 46.410156 60.878906 L 46.316406 60.660156 C 45.476562 58.71875 43.878906 57.144531 41.933594 56.335938 L 42.296875 56.15625 C 45.347656 57.535156 47.308594 60.5625 47.308594 63.9375 C 47.308594 68.648438 43.496094 72.480469 38.8125 72.480469 Z M 36.320312 58.304688 C 36.320312 58.382812 36.382812 58.449219 36.464844 58.449219 L 41.160156 58.449219 C 41.242188 58.449219 41.304688 58.382812 41.304688 58.304688 L 41.484375 57.261719 C 43.226562 57.96875 44.628906 59.339844 45.378906 61.070312 L 45.0625 67.441406 C 43.839844 69.644531 41.5 71.136719 38.8125 71.136719 C 36.125 71.136719 33.785156 69.644531 32.5625 67.441406 L 32.246094 61.070312 C 32.996094 59.339844 34.398438 57.96875 36.140625 57.261719 Z M 42.257812 55.023438 L 40.171875 56.070312 L 41.816406 54.539062 C 41.816406 54.539062 40.785156 54.054688 39.460938 54.054688 L 39.351562 54.394531 L 38.8125 56.070312 L 38.351562 54.640625 L 38.273438 54.394531 L 38.164062 54.054688 C 36.839844 54.054688 35.808594 54.539062 35.808594 54.539062 L 37.453125 56.070312 L 35.367188 55.023438 C 31.816406 56.414062 29.292969 59.875 29.292969 63.9375 C 29.292969 69.222656 33.554688 73.507812 38.8125 73.507812 C 44.070312 73.507812 48.332031 69.222656 48.332031 63.9375 C 48.332031 59.875 45.808594 56.414062 42.257812 55.023438 Z M 43.324219 60.199219 L 34.300781 60.199219 C 34.695312 60.539062 36.566406 60.796875 38.8125 60.796875 C 41.058594 60.796875 42.929688 60.539062 43.324219 60.199219 Z M 38.8125 54.371094 C 38.742188 54.371094 38.671875 54.378906 38.601562 54.378906 L 38.8125 56.066406 L 39.023438 54.378906 C 38.953125 54.378906 38.882812 54.371094 38.8125 54.371094 Z M 38.8125 62.769531 C 40.523438 62.769531 41.941406 62.511719 42.246094 62.171875 L 35.378906 62.171875 C 35.683594 62.511719 37.101562 62.769531 38.8125 62.769531 Z M 4.886719 51.589844 C 4.871094 45.597656 7.96875 39.324219 11.34375 34.375 C 11.621094 32.675781 11.984375 30.925781 12.457031 29.183594 C 11.761719 30.054688 11.042969 30.996094 10.320312 32.007812 C 6.554688 37.296875 2.714844 44.339844 2.695312 51.589844 C 2.65625 57.996094 6.015625 61.589844 9.425781 63.261719 C 12.125 64.613281 14.832031 64.933594 16.195312 65.011719 L 16.195312 64.058594 L 15.757812 64.058594 C 14.304688 63.964844 11.816406 63.621094 9.378906 62.398438 C 7.023438 61.246094 3.09375 58.308594 3.132812 51.519531 C 3.148438 45.929688 5.542969 39.675781 10.253906 32.929688 L 11.917969 30.46875 L 10.074219 33.960938 C 7.070312 38.398438 3.554688 44.992188 3.570312 51.515625 C 3.605469 56.492188 5.566406 59.917969 9.566406 62.003906 C 11.964844 63.21875 14.511719 63.535156 15.753906 63.617188 L 16.195312 64.058594 L 16.195312 62.808594 C 14.96875 62.722656 12.609375 62.410156 10.40625 61.292969 C 7.535156 59.796875 4.921875 57.21875 4.886719 51.589844 Z M 35.160156 3.285156 C 35.390625 3.238281 35.617188 3.175781 35.851562 3.132812 L 35.972656 3.113281 L 36.078125 3.042969 C 36.484375 2.765625 36.976562 2.554688 37.511719 2.394531 C 33.730469 9.34375 33.542969 18.550781 33.5625 20.933594 C 32.1875 20.953125 30.765625 20.980469 29.511719 21.019531 C 29.671875 11.449219 33.632812 5.300781 35.160156 3.285156 Z M 43.019531 3.042969 L 43.125 3.113281 L 43.246094 3.132812 C 43.480469 3.175781 43.707031 3.238281 43.941406 3.285156 C 45.46875 5.300781 49.425781 11.453125 49.585938 21.019531 C 48.332031 20.980469 46.910156 20.949219 45.535156 20.929688 C 45.554688 18.546875 45.367188 9.339844 41.589844 2.394531 C 42.121094 2.554688 42.613281 2.765625 43.019531 3.042969 Z M 19.148438 24.425781 C 19.269531 24.539062 19.371094 24.667969 19.445312 24.8125 C 19.882812 24.808594 20.484375 24.804688 21.179688 24.796875 C 21.191406 24.777344 21.199219 24.761719 21.210938 24.746094 L 21.507812 24.296875 C 21.628906 24.113281 21.785156 23.960938 21.964844 23.851562 C 21.984375 23.824219 22.003906 23.796875 22.023438 23.769531 C 22.273438 23.421875 23.824219 21.863281 27.949219 21.671875 C 31.832031 21.472656 39.535156 21.476562 39.550781 21.476562 C 39.5625 21.476562 47.265625 21.472656 51.148438 21.671875 C 55.273438 21.863281 56.824219 23.421875 57.074219 23.769531 C 57.09375 23.796875 57.113281 23.824219 57.128906 23.847656 C 57.3125 23.960938 57.46875 24.113281 57.589844 24.296875 L 57.886719 24.746094 C 57.898438 24.761719 57.90625 24.777344 57.917969 24.796875 C 58.613281 24.804688 59.214844 24.808594 59.652344 24.8125 C 59.730469 24.664062 59.832031 24.53125 59.957031 24.417969 C 60.3125 24.09375 60.808594 23.964844 61.273438 24.074219 C 61.40625 24.105469 61.53125 24.144531 61.660156 24.179688 C 61.527344 13.328125 53.664062 4.351562 43.347656 2.554688 C 42.394531 1.910156 41.046875 1.507812 39.550781 1.507812 C 38.050781 1.507812 36.703125 1.910156 35.75 2.554688 C 25.4375 4.351562 17.574219 13.328125 17.4375 24.179688 C 17.566406 24.144531 17.691406 24.105469 17.824219 24.074219 C 18.292969 23.964844 18.796875 24.097656 19.148438 24.425781 Z M 64.257812 45.78125 C 62.265625 47.214844 58.34375 48.394531 56.988281 48.726562 L 56.328125 48.886719 C 54.515625 49.367188 53.773438 48.8125 53.773438 48.8125 L 53.691406 48.753906 C 55.585938 48.398438 58.101562 47.835938 59.566406 47.117188 C 60.128906 46.84375 60.566406 46.347656 60.914062 45.714844 C 62.421875 45.546875 63.339844 44.765625 63.339844 44.765625 C 63.339844 37.761719 62.332031 32.3125 61.832031 30.988281 C 61.328125 29.664062 59.441406 29.402344 59.441406 29.402344 L 59.441406 29.214844 C 61.804688 29.035156 62.347656 29.625 62.417969 29.714844 C 63.703125 34.167969 64.40625 39.621094 64.402344 45.339844 C 64.402344 45.601562 64.308594 45.734375 64.257812 45.78125 Z M 48.324219 46.625 C 47.378906 44.601562 45.011719 39.84375 45.011719 39.84375 C 45.011719 39.84375 43.792969 36.929688 39.550781 36.929688 C 35.304688 36.929688 34.085938 39.84375 34.085938 39.84375 C 34.085938 39.84375 31.722656 44.601562 30.773438 46.625 C 29.828125 48.648438 28.015625 48.367188 28.015625 48.367188 C 28.015625 48.367188 22.3125 47.578125 19.886719 46.390625 C 17.460938 45.199219 17.515625 37.703125 18.9375 32.824219 C 20.359375 27.945312 26.277344 28.421875 26.277344 28.421875 L 52.820312 28.421875 C 52.820312 28.421875 58.738281 27.945312 60.160156 32.824219 C 61.582031 37.703125 61.640625 45.199219 59.210938 46.390625 C 56.785156 47.578125 51.082031 48.367188 51.082031 48.367188 C 51.082031 48.367188 49.269531 48.648438 48.324219 46.625 Z M 44.992188 50.753906 C 44.992188 50.753906 42.972656 50.441406 42.550781 48.203125 C 42.128906 45.96875 42.011719 41.351562 40.347656 40.335938 C 40.347656 40.335938 42.039062 40.5625 42.570312 44.695312 C 43.105469 48.828125 43.585938 50.015625 44.992188 50.753906 Z M 36.546875 48.203125 C 36.125 50.441406 34.105469 50.753906 34.105469 50.753906 C 35.511719 50.015625 35.992188 48.828125 36.527344 44.695312 C 37.0625 40.5625 38.75 40.335938 38.75 40.335938 C 37.089844 41.351562 36.96875 45.96875 36.546875 48.203125 Z M 25.324219 48.8125 C 25.324219 48.8125 24.582031 49.367188 22.769531 48.886719 L 22.109375 48.726562 C 20.757812 48.394531 16.832031 47.214844 14.839844 45.78125 C 14.792969 45.734375 14.695312 45.601562 14.695312 45.339844 C 14.691406 39.621094 15.394531 34.167969 16.683594 29.714844 C 16.753906 29.625 17.296875 29.035156 19.65625 29.214844 L 19.65625 29.402344 C 19.65625 29.402344 17.769531 29.664062 17.265625 30.988281 C 16.765625 32.3125 15.757812 37.761719 15.757812 44.765625 C 15.757812 44.765625 16.675781 45.546875 18.183594 45.714844 C 18.53125 46.347656 18.96875 46.84375 19.53125 47.117188 C 20.996094 47.835938 23.511719 48.398438 25.40625 48.753906 Z M 63.890625 27.640625 C 63.890625 27.640625 63.410156 26.085938 60.941406 25.503906 C 60.996094 25.929688 60.867188 26.285156 60.269531 26.285156 C 58.761719 26.285156 47.96875 26.140625 47.96875 26.140625 L 49.585938 25.570312 L 56.667969 25.554688 L 56.371094 25.105469 C 52.089844 24.867188 45.601562 24.613281 39.550781 24.613281 C 33.496094 24.613281 27.007812 24.867188 22.726562 25.105469 L 22.429688 25.554688 L 29.511719 25.570312 L 31.132812 26.140625 C 31.132812 26.140625 20.339844 26.285156 18.828125 26.285156 C 18.230469 26.285156 18.101562 25.929688 18.160156 25.503906 C 15.6875 26.085938 15.207031 27.640625 15.207031 27.640625 C 12.625 35.367188 12.679688 43.9375 12.679688 45.339844 C 12.679688 46.746094 13.621094 47.394531 13.621094 47.394531 C 16.363281 49.394531 21.632812 50.691406 21.632812 50.691406 C 21.632812 50.691406 24.902344 51.585938 28.117188 51.894531 C 28.117188 51.894531 30.203125 52.226562 31.515625 49.816406 C 32.824219 47.410156 35.511719 41.707031 35.511719 41.707031 L 31.867188 50.515625 C 31.867188 50.515625 30.535156 53.335938 28.34375 53.089844 C 27.039062 52.941406 24.78125 52.703125 23.164062 52.53125 C 23.789062 53.257812 24.5 54.0625 25.101562 54.664062 C 26.511719 56.082031 28.214844 56.179688 29.574219 55.230469 C 30.855469 54.34375 33.246094 52.585938 34.1875 52.085938 C 35.125 51.582031 36.054688 51.652344 36.054688 51.652344 L 39.550781 51.636719 L 43.042969 51.652344 C 43.042969 51.652344 43.972656 51.582031 44.914062 52.085938 C 45.855469 52.585938 48.242188 54.34375 49.523438 55.230469 C 50.882812 56.179688 52.585938 56.082031 54 54.664062 C 54.597656 54.0625 55.308594 53.257812 55.933594 52.53125 C 54.316406 52.703125 52.058594 52.941406 50.753906 53.089844 C 48.5625 53.335938 47.230469 50.515625 47.230469 50.515625 L 43.585938 41.707031 C 43.585938 41.707031 46.273438 47.410156 47.585938 49.816406 C 48.894531 52.226562 50.980469 51.894531 50.980469 51.894531 C 54.195312 51.585938 57.464844 50.691406 57.464844 50.691406 C 57.464844 50.691406 62.734375 49.394531 65.476562 47.394531 C 65.476562 47.394531 66.417969 46.746094 66.417969 45.339844 C 66.417969 43.9375 66.472656 35.367188 63.890625 27.640625 Z M 39.550781 22.941406 C 39.550781 22.941406 31.828125 22.941406 28.023438 23.136719 C 24.214844 23.332031 23.175781 24.675781 23.175781 24.675781 L 23.191406 24.675781 C 27.46875 24.445312 33.703125 24.207031 39.550781 24.207031 C 45.394531 24.207031 51.628906 24.445312 55.90625 24.675781 L 55.921875 24.675781 C 55.921875 24.675781 54.882812 23.332031 51.074219 23.136719 C 47.269531 22.941406 39.550781 22.941406 39.550781 22.941406 " fill-opacity="1" fill-rule="nonzero"/></g></svg>