<svg xmlns="http://www.w3.org/2000/svg" xmlns:xlink="http://www.w3.org/1999/xlink" width="104" zoomAndPan="magnify" viewBox="0 0 78 74.999997" height="100" preserveAspectRatio="xMidYMid meet" version="1.0"><defs><clipPath id="98ad652ba1"><path d="M 2 6 L 78 6 L 78 75 L 2 75 Z M 2 6 " clip-rule="nonzero"/></clipPath><clipPath id="405aacc064"><path d="M 13.589844 -9.75 L 83.183594 8.714844 L 64.140625 80.480469 L -5.453125 62.015625 Z M 13.589844 -9.75 " clip-rule="nonzero"/></clipPath><clipPath id="dccbb6b83d"><path d="M 13.589844 -9.75 L 83.183594 8.714844 L 64.140625 80.480469 L -5.453125 62.015625 Z M 13.589844 -9.75 " clip-rule="nonzero"/></clipPath><clipPath id="1315a1d588"><path d="M 13.589844 -9.75 L 83.183594 8.714844 L 64.140625 80.480469 L -5.453125 62.015625 Z M 13.589844 -9.75 " clip-rule="nonzero"/></clipPath></defs><g clip-path="url(#98ad652ba1)"><g clip-path="url(#405aacc064)"><g clip-path="url(#dccbb6b83d)"><g clip-path="url(#1315a1d588)"><path fill="#5253f4" d="M 77.601562 7.269531 L 71.382812 6.570312 L 69.769531 20.054688 L 75.96875 20.824219 Z M 75.714844 22.878906 L 69.496094 22.179688 L 66.882812 43.824219 C 66.53125 46.515625 65.6875 49.148438 64.101562 51.289062 L 54.023438 64.871094 C 53.078125 66.234375 51.328125 67.894531 49.285156 67.644531 C 47.804688 67.472656 46.273438 67.210938 44.144531 67.011719 C 46.613281 65.105469 48.214844 62.085938 48.234375 58.722656 L 45.113281 58.699219 L 45.105469 60.089844 L 42.496094 61.15625 L 42.53125 64.3125 C 41.214844 65.429688 39.601562 66.027344 37.84375 66.074219 C 36.019531 66.101562 34.390625 65.375 33.148438 64.3125 L 33.179688 61.171875 L 30.550781 60.109375 L 30.539062 58.789062 L 27.417969 58.765625 C 27.40625 62.644531 29.503906 65.984375 32.578125 67.824219 C 32.75 72.117188 36.523438 72.972656 49.5 74.511719 C 52.976562 74.847656 55.554688 73.628906 59.078125 68.851562 L 70.398438 53.328125 C 71.863281 51.371094 72.535156 48.839844 72.984375 45.222656 Z M 48.875 21.761719 L 18.113281 21.730469 L 17.242188 23.914062 L 8.621094 26.242188 C 6.101562 26.964844 4.171875 28.210938 4.191406 32.242188 L 2.214844 33.109375 L 2.148438 42.6875 L 4.042969 43.773438 C 4.078125 46.933594 6.785156 49.335938 8.535156 49.875 L 16.09375 52.097656 C 19.269531 53.015625 22.449219 53.640625 23.765625 51.425781 C 25.78125 47.933594 27.496094 44.210938 28.707031 42.117188 C 29.777344 40.277344 31.078125 36.742188 33.398438 36.769531 C 35.71875 36.800781 36.960938 40.351562 38.003906 42.167969 C 39.132812 44.222656 40.828125 47.96875 42.804688 51.496094 C 44.117188 53.675781 47.265625 53.046875 50.488281 52.144531 L 58.117188 49.992188 C 59.847656 49.5 62.597656 47.082031 62.5625 43.921875 L 64.527344 42.832031 L 64.574219 33.324219 L 62.695312 32.460938 C 62.691406 28.359375 60.835938 27.132812 58.269531 26.378906 L 49.726562 24.039062 Z M 56.738281 29.414062 C 59 29.941406 59.757812 32.558594 59.765625 34.171875 L 59.757812 42.152344 C 59.730469 43.90625 58.070312 46.320312 56.734375 46.699219 L 49.996094 48.792969 C 46.976562 49.75 45.085938 48.660156 44.375 47.226562 L 37.398438 33.21875 C 36.1875 30.917969 36.085938 27.742188 39.652344 27.738281 C 40.898438 27.703125 54.269531 29.125 56.261719 29.289062 Z M 28.355469 27.816406 C 30.734375 28.445312 30.519531 31.171875 29.464844 33.238281 L 22.28125 47.148438 C 21.539062 48.5625 19.644531 49.671875 16.625 48.722656 L 9.917969 46.578125 C 8.578125 46.148438 6.960938 43.742188 6.988281 41.992188 L 7.066406 34.03125 C 7.023438 32.261719 7.921875 29.425781 10.605469 29.183594 C 12.554688 28.96875 25.917969 27.683594 27.230469 27.664062 C 27.65625 27.703125 28.015625 27.726562 28.355469 27.816406 Z M 33.398438 38.96875 C 32.527344 38.957031 29.816406 44.242188 26.257812 51.355469 L 40.296875 51.34375 C 36.863281 44.28125 34.269531 38.980469 33.398438 38.96875 Z M 33.398438 38.96875 " fill-opacity="1" fill-rule="nonzero"/></g></g></g></g></svg>