<svg xmlns="http://www.w3.org/2000/svg" xmlns:xlink="http://www.w3.org/1999/xlink" width="563" zoomAndPan="magnify" viewBox="0 0 422.25 409.500001" height="546" preserveAspectRatio="xMidYMid meet" version="1.0"><defs><clipPath id="2dd206d387"><path d="M 6.269531 120.335938 L 128.605469 120.335938 L 128.605469 287.574219 L 6.269531 287.574219 Z M 6.269531 120.335938 " clip-rule="nonzero"/></clipPath><clipPath id="b7812b6e61"><path d="M 6.269531 136 L 126 136 L 126 287.574219 L 6.269531 287.574219 Z M 6.269531 136 " clip-rule="nonzero"/></clipPath><clipPath id="a0ccbab6d1"><path d="M 22 227 L 113 227 L 113 252.386719 L 22 252.386719 Z M 22 227 " clip-rule="nonzero"/></clipPath><clipPath id="e66d9681c9"><path d="M 394 204 L 419.511719 204 L 419.511719 231 L 394 231 Z M 394 204 " clip-rule="nonzero"/></clipPath></defs><g clip-path="url(#2dd206d387)"><path fill="#e91e26" d="M 81.035156 120.335938 C 46.636719 135.394531 23.148438 162.53125 12.539062 190.351562 C -3.390625 232.148438 10.566406 280.855469 59.601562 287.164062 C 104.566406 292.945312 149.914062 241.203125 117.792969 189.28125 C 107.75 173.054688 90.75 161.28125 82.984375 144.160156 C 79.648438 136.808594 78.550781 129.074219 81.035156 120.335938 " fill-opacity="1" fill-rule="evenodd"/></g><g clip-path="url(#b7812b6e61)"><path fill="#e91e26" d="M 125.996094 242.605469 C 120.289062 204.792969 75.230469 217.777344 49.269531 231.078125 C 33.300781 239.265625 21.460938 227.476562 20.429688 204.601562 C 19.140625 175.761719 46.089844 143.0625 54.15625 136.027344 C 34.21875 151.03125 20.101562 170.511719 12.539062 190.351562 C -3.390625 232.148438 10.566406 280.855469 59.601562 287.164062 C 88.375 290.859375 117.3125 271.003906 125.996094 242.605469 " fill-opacity="1" fill-rule="evenodd"/></g><path fill="#e91e26" d="M 75.984375 242.359375 C 60.796875 248.925781 51.464844 262.046875 55.15625 271.664062 C 58.847656 281.28125 74.148438 283.753906 89.335938 277.203125 C 104.523438 270.632812 113.855469 257.5 110.164062 247.882812 C 106.472656 238.261719 91.175781 235.789062 75.984375 242.359375 " fill-opacity="1" fill-rule="evenodd"/><g clip-path="url(#a0ccbab6d1)"><path fill="#e91e26" d="M 28.402344 252.386719 C 20.871094 252.386719 20.871094 240.652344 28.402344 240.652344 C 35.921875 240.652344 35.921875 252.386719 28.402344 252.386719 Z M 107.199219 227.160156 C 99.667969 227.160156 99.667969 238.894531 107.199219 238.894531 C 114.734375 238.894531 114.71875 227.160156 107.199219 227.160156 Z M 107.199219 227.160156 " fill-opacity="1" fill-rule="nonzero"/></g><path fill="#1d1d1b" d="M 41.246094 233.027344 L 41.246094 233.617188 C 41.246094 238.152344 34.234375 238.152344 34.234375 233.617188 L 34.234375 233.027344 C 34.234375 228.496094 41.246094 228.496094 41.246094 233.027344 Z M 92.023438 220.71875 L 91.433594 220.71875 C 86.921875 220.71875 86.921875 227.753906 91.433594 227.753906 L 92.023438 227.753906 C 96.539062 227.753906 96.539062 220.71875 92.023438 220.71875 Z M 75.4375 235.128906 C 70.632812 241.132812 61.757812 241.039062 56.078125 236.3125 C 54.925781 235.351562 53.265625 237 54.429688 237.960938 C 60.988281 243.441406 71.445312 243.839844 77.082031 236.792969 C 78.015625 235.625 76.382812 233.949219 75.4375 235.128906 Z M 36.292969 217.160156 C 37.773438 216.910156 37.140625 214.644531 35.675781 214.890625 C 32.132812 215.46875 28.757812 218.273438 29.609375 222.203125 C 29.925781 223.683594 32.175781 223.054688 31.859375 221.582031 C 31.285156 218.929688 34.164062 217.503906 36.292969 217.160156 Z M 89.101562 204.121094 C 89.664062 203.84375 90.0625 203.171875 89.71875 202.457031 C 88.925781 200.738281 87.414062 200.109375 85.660156 200.78125 C 84.890625 201.070312 84.726562 201.824219 84.945312 202.417969 C 84.945312 202.429688 84.957031 202.445312 84.957031 202.457031 C 85.207031 203.046875 85.863281 203.5 86.632812 203.199219 C 87.058594 203.035156 87.140625 203.074219 87.332031 203.488281 C 87.6875 204.257812 88.511719 204.394531 89.101562 204.121094 Z M 89.101562 204.121094 " fill-opacity="1" fill-rule="nonzero"/><path fill="#000000" d="M 170.914062 178.644531 C 172.066406 178.644531 173.027344 178.824219 173.796875 179.179688 C 174.578125 179.539062 175.210938 180.003906 175.691406 180.570312 C 176.171875 181.132812 176.511719 181.738281 176.734375 182.394531 C 176.9375 183.042969 177.0625 183.671875 177.089844 184.25 C 177.199219 186.3125 176.800781 188.332031 175.910156 190.296875 C 175.019531 192.261719 173.824219 194.089844 172.355469 195.765625 C 170.886719 197.453125 169.226562 198.925781 167.375 200.203125 C 165.523438 201.464844 163.671875 202.414062 161.832031 203.03125 C 163.054688 203.484375 164.300781 203.828125 165.578125 204.078125 C 166.839844 204.3125 168.101562 204.449219 169.351562 204.476562 C 171.203125 201.878906 173.042969 199.28125 174.910156 196.671875 C 176.761719 194.0625 178.570312 191.585938 180.355469 189.253906 C 182.125 186.917969 183.839844 184.746094 185.5 182.753906 C 187.160156 180.761719 188.699219 179.058594 190.136719 177.640625 C 191.511719 176.324219 193.007812 175.429688 194.625 174.933594 C 196.257812 174.441406 197.792969 174.34375 199.234375 174.675781 C 200.675781 174.988281 201.898438 175.730469 202.886719 176.871094 C 203.871094 178.027344 204.40625 179.621094 204.488281 181.652344 C 204.53125 183.359375 204.175781 185.089844 203.40625 186.820312 C 202.625 188.566406 201.539062 190.253906 200.140625 191.902344 C 198.742188 193.539062 197.09375 195.117188 195.214844 196.617188 C 193.335938 198.113281 191.316406 199.472656 189.164062 200.695312 C 187.011719 201.933594 184.789062 202.992188 182.496094 203.882812 C 180.203125 204.792969 177.953125 205.449219 175.773438 205.878906 C 173.441406 209.132812 171.066406 212.335938 168.652344 215.46875 C 166.238281 218.585938 163.820312 221.429688 161.394531 224 C 162.832031 224.960938 164.34375 225.855469 165.933594 226.664062 C 167.527344 227.488281 169.160156 228.121094 170.859375 228.5625 C 172.546875 229 174.304688 229.179688 176.101562 229.125 C 177.914062 229.054688 179.75 228.628906 181.632812 227.832031 C 183.511719 227.050781 185.433594 225.839844 187.40625 224.207031 C 189.371094 222.570312 191.34375 220.398438 193.347656 217.664062 C 193.511719 217.554688 193.609375 217.707031 193.625 218.089844 C 193.652344 218.476562 193.609375 219.011719 193.511719 219.714844 C 193.402344 220.414062 193.238281 221.195312 193.007812 222.105469 C 192.785156 222.996094 192.484375 223.890625 192.113281 224.769531 C 191.730469 225.648438 191.304688 226.472656 190.8125 227.257812 C 190.316406 228.027344 189.753906 228.644531 189.148438 229.097656 C 186.953125 230.703125 184.871094 231.886719 182.878906 232.640625 C 180.890625 233.410156 178.984375 233.851562 177.144531 233.976562 C 175.320312 234.085938 173.578125 233.945312 171.917969 233.546875 C 170.269531 233.148438 168.691406 232.585938 167.210938 231.84375 C 165.730469 231.101562 164.316406 230.25 162.972656 229.261719 C 161.625 228.273438 160.351562 227.269531 159.144531 226.253906 C 156.824219 228.492188 154.546875 230.292969 152.335938 231.640625 C 150.113281 233 147.988281 233.726562 145.929688 233.835938 C 143.953125 233.90625 142.117188 233.671875 140.441406 233.121094 C 138.753906 232.585938 137.285156 231.84375 136.011719 230.925781 C 134.746094 230.003906 133.703125 228.945312 132.894531 227.777344 C 132.070312 226.597656 131.550781 225.414062 131.304688 224.246094 C 131.125 223.285156 131.070312 222.40625 131.167969 221.59375 C 131.261719 220.796875 131.480469 220.097656 131.824219 219.492188 C 132.167969 218.886719 132.632812 218.421875 133.183594 218.0625 C 133.746094 217.71875 134.417969 217.527344 135.1875 217.5 C 136.230469 217.472656 137.175781 217.664062 138.011719 218.0625 C 138.863281 218.460938 139.605469 218.972656 140.234375 219.574219 C 140.878906 220.179688 141.429688 220.796875 141.894531 221.457031 C 142.363281 222.117188 142.761719 222.652344 143.074219 223.078125 C 142.871094 222.488281 142.855469 221.816406 143.0625 221.03125 C 143.269531 220.261719 143.597656 219.519531 144.0625 218.804688 C 144.53125 218.105469 145.09375 217.488281 145.75 216.964844 C 146.398438 216.441406 147.070312 216.113281 147.769531 215.976562 C 148.332031 215.878906 148.949219 215.949219 149.605469 216.183594 C 150.28125 216.429688 151.007812 216.773438 151.789062 217.238281 C 152.585938 217.707031 153.421875 218.269531 154.3125 218.929688 C 155.207031 219.589844 156.152344 220.277344 157.140625 220.992188 C 158.855469 218.886719 160.609375 216.582031 162.421875 214.078125 C 164.246094 211.578125 166.113281 208.996094 168.035156 206.316406 C 166.511719 206.152344 164.933594 205.863281 163.3125 205.4375 C 161.679688 205.011719 160.0625 204.449219 158.457031 203.746094 C 158.277344 203.773438 158.101562 203.789062 157.921875 203.789062 C 157.742188 203.789062 157.566406 203.789062 157.386719 203.789062 C 156.070312 203.761719 154.78125 203.609375 153.519531 203.320312 C 152.242188 203.046875 151.074219 202.6875 149.992188 202.25 C 148.90625 201.808594 147.972656 201.289062 147.191406 200.695312 C 146.398438 200.105469 145.847656 199.488281 145.53125 198.816406 C 145.394531 198.527344 145.382812 198.332031 145.503906 198.25 C 145.628906 198.167969 145.738281 198.195312 145.847656 198.332031 C 146.21875 198.84375 146.753906 199.308594 147.453125 199.734375 C 148.140625 200.160156 148.921875 200.558594 149.785156 200.902344 C 150.664062 201.246094 151.582031 201.535156 152.558594 201.769531 C 153.53125 201.988281 154.492188 202.152344 155.453125 202.261719 C 154.285156 201.589844 153.1875 200.847656 152.160156 199.996094 C 151.128906 199.160156 150.210938 198.238281 149.414062 197.234375 C 148.605469 196.230469 147.945312 195.144531 147.425781 193.976562 C 146.902344 192.824219 146.5625 191.574219 146.410156 190.226562 C 146.273438 189.183594 146.355469 188.207031 146.671875 187.289062 C 146.972656 186.367188 147.4375 185.554688 148.042969 184.882812 C 148.660156 184.195312 149.414062 183.671875 150.292969 183.316406 C 151.171875 182.960938 152.117188 182.78125 153.132812 182.808594 C 154.148438 182.835938 155.054688 183.109375 155.863281 183.617188 C 156.660156 184.128906 157.375 184.71875 158.003906 185.417969 C 158.636719 186.121094 159.171875 186.832031 159.652344 187.589844 C 160.117188 188.332031 160.515625 188.964844 160.871094 189.472656 C 160.789062 189.222656 160.789062 188.796875 160.886719 188.167969 C 160.980469 187.535156 161.160156 186.820312 161.449219 186.023438 C 161.722656 185.226562 162.121094 184.386719 162.628906 183.507812 C 163.136719 182.644531 163.765625 181.847656 164.535156 181.132812 C 165.289062 180.402344 166.195312 179.8125 167.253906 179.34375 C 168.308594 178.878906 169.53125 178.644531 170.914062 178.644531 Z M 173.480469 186.710938 C 173.480469 186.40625 173.414062 186.035156 173.289062 185.597656 C 173.152344 185.15625 172.917969 184.730469 172.601562 184.320312 C 172.289062 183.90625 171.847656 183.5625 171.3125 183.289062 C 170.792969 183.027344 170.132812 182.917969 169.351562 182.972656 C 167.910156 183.082031 166.730469 183.496094 165.8125 184.222656 C 164.890625 184.9375 164.136719 185.832031 163.546875 186.890625 C 162.957031 187.945312 162.503906 189.085938 162.160156 190.335938 C 161.832031 191.574219 161.542969 192.753906 161.3125 193.882812 C 160.554688 192.605469 159.800781 191.464844 159.019531 190.476562 C 158.675781 190.050781 158.320312 189.636719 157.9375 189.253906 C 157.566406 188.867188 157.179688 188.511719 156.78125 188.207031 C 156.386719 187.90625 155.972656 187.671875 155.5625 187.507812 C 155.148438 187.34375 154.738281 187.273438 154.339844 187.300781 C 153.503906 187.382812 152.871094 187.589844 152.417969 187.933594 C 151.96875 188.261719 151.625 188.648438 151.390625 189.085938 C 151.171875 189.527344 151.035156 189.964844 150.992188 190.390625 C 150.953125 190.816406 150.953125 191.175781 150.980469 191.4375 C 151.046875 192.589844 151.320312 193.675781 151.789062 194.707031 C 152.253906 195.738281 152.871094 196.699219 153.640625 197.59375 C 154.394531 198.484375 155.273438 199.308594 156.277344 200.066406 C 157.277344 200.808594 158.375 201.464844 159.539062 202.03125 C 160.527344 201.78125 161.558594 201.410156 162.613281 200.917969 C 163.65625 200.421875 164.699219 199.832031 165.730469 199.117188 C 166.757812 198.402344 167.730469 197.605469 168.636719 196.683594 C 169.542969 195.777344 170.351562 194.804688 171.066406 193.746094 C 171.765625 192.6875 172.328125 191.574219 172.769531 190.390625 C 173.191406 189.210938 173.425781 187.988281 173.480469 186.710938 Z M 200.070312 182.136719 C 200.097656 181.597656 200.03125 181.144531 199.839844 180.761719 C 199.648438 180.390625 199.425781 180.074219 199.152344 179.828125 C 198.890625 179.566406 198.605469 179.386719 198.300781 179.261719 C 197.988281 179.140625 197.710938 179.085938 197.480469 179.085938 C 196.613281 179.058594 195.53125 179.6875 194.1875 180.996094 C 192.855469 182.285156 191.34375 184.03125 189.65625 186.242188 C 187.984375 188.441406 186.160156 190.984375 184.183594 193.867188 C 182.207031 196.738281 180.121094 199.722656 177.925781 202.828125 C 179.613281 202.207031 181.328125 201.453125 183.070312 200.546875 C 184.828125 199.625 186.503906 198.621094 188.121094 197.535156 C 189.742188 196.4375 191.261719 195.257812 192.691406 194.007812 C 194.117188 192.742188 195.367188 191.449219 196.449219 190.132812 C 197.535156 188.8125 198.398438 187.464844 199.042969 186.121094 C 199.675781 184.773438 200.03125 183.441406 200.070312 182.136719 Z M 147.972656 218.875 C 147.410156 218.972656 146.890625 219.3125 146.410156 219.890625 C 145.929688 220.46875 145.546875 221.140625 145.242188 221.898438 C 144.957031 222.667969 144.777344 223.4375 144.722656 224.21875 C 144.667969 225.015625 144.792969 225.691406 145.078125 226.253906 C 144.230469 225.828125 143.378906 225.265625 142.539062 224.589844 C 141.703125 223.902344 140.894531 223.230469 140.140625 222.585938 C 139.371094 221.925781 138.671875 221.375 138.011719 220.9375 C 137.367188 220.496094 136.804688 220.304688 136.351562 220.359375 C 135.925781 220.414062 135.597656 220.539062 135.378906 220.757812 C 135.144531 220.964844 134.980469 221.222656 134.898438 221.511719 C 134.800781 221.816406 134.761719 222.132812 134.773438 222.460938 C 134.789062 222.789062 134.800781 223.105469 134.828125 223.410156 C 134.941406 224.34375 135.378906 225.292969 136.132812 226.265625 C 136.886719 227.242188 137.792969 228.121094 138.835938 228.890625 C 139.878906 229.675781 140.964844 230.304688 142.089844 230.800781 C 143.199219 231.296875 144.203125 231.527344 145.078125 231.5 C 146.339844 231.445312 147.851562 230.664062 149.605469 229.136719 C 151.378906 227.613281 153.324219 225.566406 155.453125 222.996094 C 153.96875 221.691406 152.597656 220.632812 151.351562 219.808594 C 150.113281 219 148.988281 218.683594 147.972656 218.875 Z M 147.972656 218.875 " fill-opacity="1" fill-rule="nonzero"/><path fill="#000000" d="M 203.523438 204.710938 C 203.894531 204.558594 204.347656 204.570312 204.867188 204.792969 C 205.390625 205.011719 205.855469 205.328125 206.292969 205.753906 C 206.71875 206.179688 207.023438 206.675781 207.214844 207.238281 C 207.390625 207.800781 207.351562 208.335938 207.089844 208.84375 C 206.828125 209.296875 206.335938 210.039062 205.648438 211.070312 C 204.949219 212.101562 204.195312 213.269531 203.359375 214.574219 C 202.535156 215.894531 201.699219 217.238281 200.859375 218.628906 C 200.023438 220.015625 199.324219 221.292969 198.761719 222.433594 C 198.199219 223.585938 197.855469 224.550781 197.734375 225.304688 C 197.621094 226.074219 197.855469 226.460938 198.433594 226.488281 L 198.953125 226.488281 C 200.160156 226.144531 201.3125 225.566406 202.425781 224.769531 C 203.535156 223.957031 204.59375 223.050781 205.582031 222.019531 C 206.582031 220.992188 207.542969 219.917969 208.433594 218.792969 C 209.328125 217.664062 210.175781 216.59375 210.972656 215.578125 C 211.136719 215.425781 211.300781 215.328125 211.496094 215.316406 C 211.6875 215.300781 211.835938 215.34375 211.976562 215.441406 C 212.113281 215.535156 212.179688 215.671875 212.179688 215.839844 C 212.179688 216.015625 212.085938 216.222656 211.890625 216.46875 C 211.125 217.527344 210.34375 218.574219 209.546875 219.574219 C 208.765625 220.578125 207.953125 221.539062 207.105469 222.460938 C 206.265625 223.382812 205.375 224.261719 204.429688 225.113281 C 203.480469 225.949219 202.464844 226.761719 201.394531 227.53125 C 201.136719 227.722656 200.804688 227.941406 200.421875 228.191406 C 200.039062 228.453125 199.597656 228.683594 199.117188 228.917969 C 198.636719 229.136719 198.117188 229.332031 197.554688 229.480469 C 196.992188 229.621094 196.429688 229.703125 195.878906 229.703125 C 195.207031 229.675781 194.6875 229.480469 194.289062 229.125 C 193.90625 228.753906 193.65625 228.285156 193.535156 227.695312 C 193.410156 227.105469 193.410156 226.429688 193.507812 225.664062 C 193.617188 224.90625 193.835938 224.097656 194.152344 223.242188 C 194.425781 222.433594 194.796875 221.539062 195.277344 220.550781 C 195.757812 219.5625 196.277344 218.515625 196.855469 217.40625 C 197.429688 216.292969 198.035156 215.164062 198.652344 214.011719 C 199.28125 212.871094 199.902344 211.742188 200.503906 210.632812 C 201.109375 209.519531 201.65625 208.460938 202.179688 207.457031 C 202.699219 206.453125 203.152344 205.546875 203.523438 204.710938 Z M 206.445312 196.972656 C 207.460938 196.890625 208.214844 197.109375 208.695312 197.621094 C 209.175781 198.113281 209.300781 198.800781 209.09375 199.652344 C 209.464844 199.144531 209.890625 198.664062 210.371094 198.210938 C 210.851562 197.757812 211.34375 197.371094 211.835938 197.054688 C 212.332031 196.726562 212.8125 196.480469 213.277344 196.285156 C 213.746094 196.109375 214.171875 196.011719 214.539062 196.011719 C 215.046875 195.957031 215.472656 196.121094 215.816406 196.507812 C 216.171875 196.890625 216.28125 197.332031 216.1875 197.8125 C 216.078125 198.402344 215.804688 198.925781 215.363281 199.378906 C 214.925781 199.832031 214.375 200.257812 213.71875 200.640625 C 213.058594 201.027344 212.34375 201.382812 211.578125 201.699219 C 210.792969 202.03125 210.039062 202.347656 209.3125 202.660156 C 208.570312 202.992188 207.898438 203.320312 207.269531 203.652344 C 206.636719 203.980469 206.15625 204.339844 205.8125 204.710938 C 206.046875 203.996094 206.074219 203.402344 205.867188 202.964844 C 205.664062 202.523438 205.417969 202.113281 205.101562 201.726562 C 204.796875 201.34375 204.539062 200.929688 204.304688 200.503906 C 204.085938 200.078125 204.042969 199.515625 204.207031 198.816406 C 204.292969 198.417969 204.523438 198.019531 204.921875 197.632812 C 205.332031 197.25 205.828125 197.027344 206.445312 196.972656 Z M 206.445312 196.972656 " fill-opacity="1" fill-rule="nonzero"/><path fill="#000000" d="M 222.425781 204.710938 C 221.066406 207.058594 219.777344 209.242188 218.570312 211.25 C 217.347656 213.253906 216.210938 215.109375 215.140625 216.828125 C 214.070312 218.53125 213.082031 220.125 212.160156 221.59375 C 211.242188 223.066406 210.378906 224.4375 209.570312 225.730469 C 210.96875 225.8125 212.285156 225.496094 213.535156 224.78125 C 214.796875 224.082031 215.960938 223.175781 217.058594 222.105469 C 218.15625 221.019531 219.1875 219.835938 220.175781 218.574219 C 221.148438 217.292969 222.066406 216.125 222.945312 215.054688 C 223.054688 214.902344 223.207031 214.808594 223.386719 214.78125 C 223.578125 214.753906 223.742188 214.78125 223.878906 214.875 C 224.003906 214.972656 224.097656 215.109375 224.140625 215.300781 C 224.167969 215.480469 224.113281 215.6875 223.949219 215.90625 C 223.414062 216.675781 222.945312 217.363281 222.546875 217.953125 C 222.148438 218.53125 221.753906 219.09375 221.355469 219.628906 C 220.941406 220.167969 220.519531 220.714844 220.066406 221.277344 C 219.613281 221.84375 219.0625 222.460938 218.433594 223.160156 C 217.871094 223.78125 217.226562 224.382812 216.523438 224.960938 C 215.8125 225.550781 215.070312 226.0625 214.273438 226.488281 C 213.492188 226.914062 212.683594 227.242188 211.832031 227.449219 C 210.996094 227.667969 210.171875 227.695312 209.375 227.53125 C 209.582031 227.886719 209.734375 228.203125 209.789062 228.492188 C 209.855469 228.792969 209.953125 229.125 210.046875 229.496094 C 210.214844 230.484375 210.226562 231.585938 210.074219 232.792969 C 209.925781 233.988281 209.664062 235.210938 209.265625 236.433594 C 208.882812 237.671875 208.402344 238.867188 207.824219 240.035156 C 207.261719 241.1875 206.617188 242.21875 205.933594 243.113281 C 205.234375 244.003906 204.503906 244.734375 203.75 245.253906 C 202.984375 245.789062 202.242188 246.066406 201.527344 246.066406 C 200.539062 246.011719 199.839844 245.613281 199.441406 244.882812 C 199.042969 244.140625 198.867188 243.261719 198.921875 242.261719 L 198.921875 242.136719 C 199.15625 240.128906 199.660156 238.082031 200.417969 236.023438 C 201.183594 233.945312 202.089844 231.871094 203.121094 229.824219 C 204.164062 227.765625 205.289062 225.703125 206.46875 223.640625 C 207.660156 221.582031 208.800781 219.546875 209.898438 217.542969 L 218.460938 202.511719 C 219.132812 201.355469 219.789062 200.1875 220.449219 198.992188 C 221.109375 197.8125 221.726562 196.644531 222.316406 195.53125 C 222.890625 194.40625 223.425781 193.332031 223.894531 192.300781 C 224.359375 191.273438 224.742188 190.324219 225.03125 189.472656 C 225.359375 189.28125 225.785156 189.292969 226.320312 189.511719 C 226.855469 189.71875 227.351562 190.035156 227.816406 190.449219 C 228.285156 190.875 228.640625 191.367188 228.875 191.929688 C 229.121094 192.507812 229.121094 193.070312 228.875 193.609375 C 228.722656 194.007812 228.421875 194.609375 227.980469 195.40625 C 227.542969 196.203125 227.019531 197.125 226.417969 198.15625 C 225.8125 199.1875 225.167969 200.269531 224.46875 201.425781 C 223.78125 202.578125 223.097656 203.664062 222.425781 204.710938 Z M 203.324219 243.855469 C 204.3125 243.222656 205.164062 242.289062 205.863281 241.0625 C 206.578125 239.855469 207.125 238.523438 207.539062 237.078125 C 207.9375 235.636719 208.15625 234.167969 208.210938 232.667969 C 208.265625 231.171875 208.128906 229.824219 207.8125 228.617188 C 206.988281 230.058594 206.246094 231.390625 205.589844 232.628906 C 204.929688 233.851562 204.367188 235.046875 203.886719 236.199219 C 203.40625 237.339844 202.996094 238.46875 202.667969 239.566406 C 202.335938 240.664062 202.078125 241.792969 201.886719 242.972656 C 201.855469 243.511719 201.925781 243.882812 202.089844 244.101562 C 202.242188 244.308594 202.652344 244.238281 203.324219 243.855469 Z M 203.324219 243.855469 " fill-opacity="1" fill-rule="nonzero"/><path fill="#000000" d="M 225.628906 220.027344 C 225.585938 220.167969 225.558594 220.25 225.558594 220.277344 C 228.277344 219.492188 230.800781 218.285156 233.105469 216.621094 C 235.410156 214.972656 237.332031 212.855469 238.855469 210.289062 C 239.140625 209.804688 239.347656 209.351562 239.457031 208.941406 C 239.554688 208.527344 239.566406 208.171875 239.472656 207.855469 C 239.375 207.554688 239.195312 207.332031 238.910156 207.195312 C 238.632812 207.058594 238.265625 207.042969 237.8125 207.113281 C 236.851562 207.304688 235.917969 207.648438 235.011719 208.15625 C 234.09375 208.667969 233.230469 209.285156 232.40625 210.011719 C 231.582031 210.726562 230.800781 211.523438 230.085938 212.417969 C 229.359375 213.296875 228.699219 214.191406 228.109375 215.082031 C 227.535156 215.976562 227.027344 216.855469 226.613281 217.707031 C 226.203125 218.558594 225.875 219.34375 225.628906 220.027344 Z M 219.589844 223.121094 C 219.714844 221.222656 220.222656 219.34375 221.113281 217.460938 C 221.992188 215.589844 223.351562 213.558594 225.1875 211.371094 C 225.777344 210.671875 226.558594 209.917969 227.519531 209.105469 C 228.480469 208.28125 229.539062 207.539062 230.703125 206.851562 C 231.855469 206.179688 233.078125 205.617188 234.367188 205.175781 C 235.644531 204.738281 236.90625 204.53125 238.125 204.558594 C 238.910156 204.570312 239.566406 204.777344 240.117188 205.136719 C 240.664062 205.492188 241.035156 205.972656 241.242188 206.578125 C 241.433594 207.183594 241.449219 207.882812 241.253906 208.707031 C 241.0625 209.519531 240.625 210.382812 239.9375 211.289062 C 238.222656 214.011719 236.082031 216.265625 233.53125 218.023438 C 230.964844 219.796875 228.179688 221.085938 225.1875 221.925781 L 225.121094 222.035156 C 225.011719 222.652344 224.953125 223.273438 224.953125 223.902344 C 224.953125 224.535156 225.039062 225.125 225.214844 225.664062 C 225.378906 226.210938 225.65625 226.679688 226.039062 227.050781 C 226.410156 227.421875 226.929688 227.667969 227.601562 227.777344 C 228.316406 227.886719 229.207031 227.738281 230.265625 227.339844 C 231.320312 226.925781 232.433594 226.347656 233.597656 225.566406 C 234.777344 224.796875 235.960938 223.875 237.125 222.804688 C 238.304688 221.734375 239.390625 220.59375 240.378906 219.398438 C 240.996094 218.640625 241.53125 217.898438 241.996094 217.171875 C 242.460938 216.429688 242.914062 215.726562 243.339844 215.054688 C 243.492188 214.902344 243.683594 214.808594 243.875 214.78125 C 244.082031 214.753906 244.246094 214.78125 244.382812 214.875 C 244.507812 214.972656 244.601562 215.109375 244.65625 215.300781 C 244.714844 215.480469 244.65625 215.6875 244.492188 215.90625 C 243.957031 216.621094 243.410156 217.40625 242.832031 218.242188 C 242.257812 219.09375 241.625 219.945312 240.914062 220.8125 C 240.210938 221.675781 239.429688 222.570312 238.59375 223.464844 C 237.757812 224.355469 236.808594 225.234375 235.765625 226.089844 C 234.382812 227.214844 233.144531 228.066406 232.0625 228.65625 C 230.976562 229.25 230.03125 229.660156 229.195312 229.894531 C 228.371094 230.140625 227.671875 230.265625 227.09375 230.277344 C 226.519531 230.292969 226.050781 230.304688 225.667969 230.304688 C 224.558594 230.304688 223.597656 230.113281 222.816406 229.742188 C 222.019531 229.371094 221.386719 228.863281 220.894531 228.21875 C 220.398438 227.570312 220.042969 226.816406 219.824219 225.949219 C 219.617188 225.085938 219.535156 224.136719 219.589844 223.121094 Z M 219.589844 223.121094 " fill-opacity="1" fill-rule="nonzero"/><path fill="#000000" d="M 299.410156 220.027344 C 299.039062 222.996094 298.175781 225.605469 296.804688 227.859375 C 295.445312 230.101562 293.773438 231.984375 291.78125 233.507812 C 289.792969 235.03125 287.554688 236.1875 285.074219 236.984375 C 282.589844 237.765625 280.039062 238.179688 277.429688 238.207031 C 276.085938 238.234375 274.6875 238.109375 273.21875 237.835938 C 271.75 237.574219 270.308594 237.164062 268.910156 236.613281 C 267.511719 236.0625 266.207031 235.347656 265.011719 234.46875 C 263.804688 233.589844 262.816406 232.546875 262.050781 231.324219 C 261.265625 230.113281 260.773438 228.710938 260.539062 227.144531 C 260.320312 225.59375 260.472656 223.835938 261.007812 221.882812 C 261.433594 220.277344 262.226562 218.777344 263.378906 217.390625 C 264.546875 215.988281 265.988281 214.863281 267.714844 213.984375 C 269.429688 213.089844 271.394531 212.539062 273.601562 212.308594 C 275.796875 212.085938 278.144531 212.347656 280.628906 213.089844 C 280.902344 213.171875 281.21875 213.308594 281.617188 213.503906 C 282 213.679688 282.289062 213.875 282.492188 214.050781 C 282.683594 214.246094 282.726562 214.394531 282.617188 214.492188 C 282.492188 214.601562 282.054688 214.601562 281.3125 214.492188 C 278.886719 214.148438 276.773438 214.230469 275 214.738281 C 273.230469 215.246094 271.738281 216.003906 270.527344 217.007812 C 269.335938 218.007812 268.402344 219.164062 267.757812 220.453125 C 267.097656 221.746094 266.671875 223.011719 266.496094 224.246094 C 266.277344 225.496094 266.371094 226.761719 266.769531 228.011719 C 267.167969 229.277344 267.796875 230.402344 268.648438 231.417969 C 269.511719 232.4375 270.554688 233.273438 271.820312 233.933594 C 273.066406 234.578125 274.46875 234.921875 276.015625 234.949219 C 277.621094 234.976562 279.171875 234.773438 280.683594 234.316406 C 282.191406 233.851562 283.617188 233.21875 284.9375 232.410156 C 286.253906 231.597656 287.460938 230.621094 288.542969 229.523438 C 289.613281 228.410156 290.546875 227.214844 291.300781 225.921875 C 292.058594 224.644531 292.648438 223.3125 293.042969 221.9375 C 293.441406 220.566406 293.621094 219.203125 293.566406 217.871094 C 293.484375 215.894531 293.25 213.914062 292.867188 211.949219 C 292.480469 209.984375 292.085938 208.019531 291.6875 206.042969 C 290.507812 206.441406 289.367188 206.824219 288.285156 207.195312 C 287.1875 207.566406 286.128906 207.953125 285.113281 208.324219 C 285.222656 207.140625 285.113281 206.042969 284.8125 205.011719 C 284.511719 203.980469 284.085938 203.003906 283.535156 202.070312 C 282.988281 201.125 282.371094 200.1875 281.683594 199.253906 C 281.011719 198.320312 280.351562 197.359375 279.707031 196.367188 C 279.0625 195.378906 278.488281 194.335938 277.964844 193.222656 C 277.445312 192.109375 277.074219 190.886719 276.867188 189.554688 C 276.675781 188.371094 276.691406 187.121094 276.910156 185.777344 C 277.113281 184.441406 277.59375 183.191406 278.351562 182.023438 C 279.089844 180.871094 280.121094 179.882812 281.421875 179.058594 C 282.742188 178.246094 284.386719 177.792969 286.390625 177.722656 C 288.394531 177.613281 290.164062 177.917969 291.6875 178.617188 C 293.210938 179.332031 294.527344 180.28125 295.652344 181.488281 C 296.476562 180.609375 297.394531 179.785156 298.410156 179.015625 C 299.425781 178.261719 300.523438 177.601562 301.714844 177.039062 C 302.910156 176.472656 304.1875 176.035156 305.558594 175.71875 C 306.929688 175.386719 308.398438 175.238281 309.949219 175.238281 C 311.472656 175.238281 312.886719 175.472656 314.214844 175.953125 C 315.53125 176.433594 316.65625 177.132812 317.578125 178.039062 C 318.496094 178.945312 319.167969 180.058594 319.582031 181.367188 C 319.992188 182.683594 320.0625 184.140625 319.800781 185.734375 C 319.429688 187.933594 318.523438 189.9375 317.097656 191.738281 C 315.671875 193.539062 313.898438 195.1875 311.816406 196.671875 C 309.714844 198.15625 307.382812 199.515625 304.804688 200.738281 C 302.222656 201.976562 299.617188 203.085938 296.96875 204.105469 C 297.339844 205.367188 297.710938 206.644531 298.066406 207.964844 C 298.4375 209.269531 298.738281 210.589844 298.984375 211.9375 C 299.246094 213.269531 299.425781 214.617188 299.507812 215.960938 C 299.601562 217.308594 299.574219 218.667969 299.410156 220.027344 Z M 299.054688 196.136719 C 299.164062 194.28125 298.984375 192.605469 298.546875 191.09375 C 298.109375 189.582031 297.503906 188.222656 296.734375 187.027344 C 295.71875 188.6875 295.128906 190.460938 294.964844 192.355469 C 294.828125 193.855469 294.910156 195.394531 295.210938 196.988281 C 295.5 198.582031 295.886719 200.230469 296.363281 201.949219 C 298.394531 201.191406 300.496094 200.3125 302.664062 199.28125 C 304.816406 198.25 306.820312 197.070312 308.660156 195.75 C 310.511719 194.417969 312.0625 192.949219 313.308594 191.3125 C 314.574219 189.691406 315.3125 187.890625 315.558594 185.941406 C 315.628906 185.378906 315.601562 184.746094 315.476562 184.03125 C 315.339844 183.332031 315.039062 182.671875 314.574219 182.050781 C 314.105469 181.433594 313.421875 180.9375 312.527344 180.539062 C 311.636719 180.15625 310.457031 179.976562 308.988281 180.003906 C 306.710938 180.085938 304.652344 180.597656 302.773438 181.542969 C 300.90625 182.492188 299.328125 183.730469 298.054688 185.226562 C 298.847656 186.984375 299.34375 188.839844 299.507812 190.777344 C 299.683594 192.714844 299.535156 194.5 299.054688 196.136719 Z M 290.683594 190.640625 C 290.917969 189.511719 291.300781 188.371094 291.824219 187.203125 C 292.34375 186.035156 293.003906 184.894531 293.800781 183.769531 C 292.796875 183 291.726562 182.421875 290.617188 182.050781 C 289.519531 181.679688 288.421875 181.515625 287.351562 181.570312 C 286.800781 181.597656 286.101562 181.765625 285.277344 182.066406 C 284.441406 182.382812 283.699219 182.902344 283.027344 183.632812 C 282.371094 184.375 281.890625 185.351562 281.585938 186.585938 C 281.300781 187.808594 281.410156 189.363281 281.902344 191.230469 C 282.289062 192.632812 282.769531 193.894531 283.371094 195.050781 C 283.976562 196.191406 284.566406 197.304688 285.128906 198.375 C 285.703125 199.445312 286.210938 200.492188 286.636719 201.523438 C 287.0625 202.550781 287.296875 203.636719 287.324219 204.792969 C 287.777344 204.652344 288.324219 204.503906 288.984375 204.324219 C 289.628906 204.160156 290.371094 203.941406 291.207031 203.664062 C 290.753906 201.398438 290.4375 199.171875 290.257812 197.015625 C 290.082031 194.84375 290.230469 192.714844 290.683594 190.640625 Z M 290.683594 190.640625 " fill-opacity="1" fill-rule="nonzero"/><path fill="#000000" d="M 326.683594 211.769531 C 326.851562 213.105469 326.792969 214.492188 326.535156 215.921875 C 326.257812 217.351562 325.820312 218.75 325.203125 220.140625 C 324.597656 221.511719 323.84375 222.832031 322.964844 224.082031 C 322.089844 225.347656 321.101562 226.429688 320.015625 227.378906 C 318.933594 228.3125 317.792969 229.054688 316.601562 229.605469 C 315.394531 230.140625 314.171875 230.402344 312.910156 230.375 C 310.878906 230.375 309.09375 229.769531 307.558594 228.535156 C 306.035156 227.3125 304.992188 225.441406 304.457031 222.957031 C 304.140625 221.621094 304.113281 220.195312 304.375 218.667969 C 304.648438 217.144531 305.128906 215.644531 305.816406 214.160156 C 306.515625 212.679688 307.40625 211.261719 308.492188 209.929688 C 309.5625 208.582031 310.769531 207.429688 312.085938 206.441406 C 313.417969 205.449219 314.816406 204.695312 316.3125 204.171875 C 317.808594 203.652344 319.316406 203.472656 320.839844 203.625 C 321.664062 203.734375 322.375 203.953125 322.9375 204.296875 C 323.515625 204.625 323.980469 205.023438 324.351562 205.480469 C 324.710938 205.933594 324.96875 206.441406 325.148438 207.003906 C 325.328125 207.554688 325.421875 208.117188 325.449219 208.679688 C 325.765625 209.050781 326.027344 209.519531 326.230469 210.039062 C 326.425781 210.574219 326.589844 211.152344 326.683594 211.769531 Z M 319.921875 214.339844 C 319.785156 214.285156 319.6875 214.121094 319.617188 213.859375 C 319.550781 213.585938 319.507812 213.28125 319.496094 212.9375 C 319.480469 212.582031 319.480469 212.226562 319.480469 211.855469 C 319.480469 211.484375 319.496094 211.140625 319.523438 210.851562 C 319.550781 210.519531 319.6875 210.21875 319.933594 209.902344 C 320.195312 209.601562 320.46875 209.324219 320.757812 209.078125 C 321.058594 208.84375 321.347656 208.640625 321.621094 208.488281 C 321.910156 208.324219 322.101562 208.210938 322.199219 208.15625 C 322.652344 207.953125 323.078125 207.828125 323.445312 207.800781 C 323.390625 207.265625 323.171875 206.839844 322.789062 206.523438 C 322.402344 206.191406 321.691406 206.054688 320.675781 206.109375 C 319.824219 206.191406 318.878906 206.507812 317.820312 207.042969 C 316.765625 207.566406 315.804688 208.269531 314.953125 209.121094 C 313.992188 210.109375 313.128906 211.234375 312.375 212.5 C 311.605469 213.75 310.988281 215.027344 310.496094 216.320312 C 310 217.625 309.671875 218.902344 309.507812 220.152344 C 309.34375 221.417969 309.382812 222.542969 309.601562 223.546875 C 309.835938 224.550781 310.273438 225.375 310.933594 226.003906 C 311.578125 226.652344 312.496094 227.007812 313.679688 227.089844 C 314.609375 227.144531 315.53125 226.941406 316.464844 226.488281 C 317.382812 226.03125 318.261719 225.402344 319.097656 224.605469 C 319.933594 223.808594 320.714844 222.871094 321.445312 221.816406 C 322.15625 220.757812 322.789062 219.65625 323.308594 218.503906 C 323.832031 217.363281 324.242188 216.210938 324.542969 215.054688 C 324.859375 213.914062 324.996094 212.84375 324.96875 211.855469 C 324.96875 211.097656 324.695312 210.6875 324.160156 210.601562 C 323.789062 210.546875 323.378906 210.644531 322.898438 210.890625 C 322.429688 211.125 321.992188 211.441406 321.566406 211.828125 C 321.140625 212.226562 320.769531 212.636719 320.457031 213.089844 C 320.152344 213.542969 319.976562 213.96875 319.921875 214.339844 Z M 319.921875 214.339844 " fill-opacity="1" fill-rule="nonzero"/><path fill="#000000" d="M 348.433594 204.710938 C 348.804688 204.558594 349.269531 204.570312 349.820312 204.792969 C 350.367188 205.011719 350.863281 205.328125 351.3125 205.753906 C 351.765625 206.179688 352.125 206.675781 352.355469 207.238281 C 352.605469 207.800781 352.617188 208.335938 352.398438 208.84375 C 352.191406 209.296875 351.78125 210.039062 351.203125 211.070312 C 350.613281 212.101562 349.96875 213.269531 349.257812 214.574219 C 348.542969 215.894531 347.855469 217.238281 347.171875 218.628906 C 346.5 220.015625 345.9375 221.292969 345.496094 222.433594 C 345.058594 223.585938 344.8125 224.550781 344.753906 225.304688 C 344.699219 226.074219 344.960938 226.460938 345.550781 226.488281 L 346.195312 226.488281 C 347.335938 226.144531 348.445312 225.539062 349.503906 224.660156 C 350.546875 223.792969 351.535156 222.816406 352.46875 221.734375 C 353.386719 220.660156 354.238281 219.519531 355.046875 218.324219 C 355.84375 217.144531 356.597656 216.042969 357.28125 215.054688 C 357.421875 214.902344 357.585938 214.808594 357.789062 214.78125 C 357.984375 214.753906 358.160156 214.78125 358.3125 214.875 C 358.449219 214.972656 358.546875 215.109375 358.585938 215.300781 C 358.628906 215.480469 358.574219 215.6875 358.40625 215.90625 C 357.695312 216.921875 356.96875 217.953125 356.238281 219.011719 C 355.527344 220.070312 354.773438 221.101562 354.003906 222.105469 C 353.234375 223.105469 352.410156 224.070312 351.5625 224.988281 C 350.710938 225.910156 349.777344 226.761719 348.789062 227.53125 C 348.554688 227.722656 348.253906 227.941406 347.871094 228.191406 C 347.5 228.453125 347.074219 228.683594 346.59375 228.917969 C 346.113281 229.136719 345.59375 229.332031 345.058594 229.480469 C 344.507812 229.621094 343.933594 229.703125 343.34375 229.703125 C 342.65625 229.675781 342.082031 229.480469 341.640625 229.125 C 341.203125 228.753906 340.871094 228.285156 340.667969 227.695312 C 340.449219 227.105469 340.351562 226.429688 340.378906 225.664062 C 340.40625 224.90625 340.542969 224.097656 340.789062 223.242188 C 340.84375 222.929688 340.914062 222.597656 341.023438 222.28125 C 341.132812 221.953125 341.257812 221.621094 341.378906 221.277344 C 340.53125 222.445312 339.625 223.574219 338.664062 224.644531 C 337.703125 225.71875 336.648438 226.679688 335.496094 227.53125 C 335.261719 227.722656 334.945312 227.941406 334.574219 228.191406 C 334.203125 228.453125 333.777344 228.683594 333.3125 228.917969 C 332.847656 229.136719 332.351562 229.332031 331.816406 229.480469 C 331.28125 229.621094 330.71875 229.703125 330.128906 229.703125 C 329.445312 229.675781 328.882812 229.480469 328.457031 229.125 C 328.015625 228.753906 327.714844 228.285156 327.507812 227.695312 C 327.304688 227.105469 327.21875 226.429688 327.25 225.664062 C 327.277344 224.90625 327.398438 224.097656 327.605469 223.242188 C 327.933594 222.035156 328.429688 220.632812 329.113281 219.011719 C 329.785156 217.390625 330.511719 215.726562 331.269531 214.011719 C 332.035156 212.308594 332.777344 210.632812 333.492188 209.007812 C 334.21875 207.375 334.792969 205.945312 335.21875 204.710938 C 335.589844 204.558594 336.042969 204.570312 336.578125 204.792969 C 337.113281 205.011719 337.605469 205.328125 338.058594 205.753906 C 338.511719 206.179688 338.871094 206.675781 339.101562 207.238281 C 339.351562 207.800781 339.363281 208.335938 339.144531 208.84375 C 338.925781 209.296875 338.539062 210.039062 337.964844 211.070312 C 337.386719 212.101562 336.757812 213.269531 336.058594 214.574219 C 335.371094 215.894531 334.671875 217.238281 333.972656 218.628906 C 333.285156 220.015625 332.710938 221.292969 332.269531 222.433594 C 331.832031 223.585938 331.582031 224.550781 331.527344 225.304688 C 331.472656 226.074219 331.75 226.460938 332.339844 226.488281 L 332.929688 226.488281 C 334.054688 226.171875 335.125 225.605469 336.125 224.78125 C 337.128906 223.972656 338.074219 223.039062 338.980469 221.992188 C 339.886719 220.949219 340.75 219.863281 341.546875 218.722656 C 342.339844 217.597656 343.09375 216.523438 343.796875 215.535156 C 344.21875 214.574219 344.660156 213.597656 345.113281 212.609375 C 345.566406 211.621094 345.992188 210.660156 346.386719 209.710938 C 346.785156 208.761719 347.171875 207.855469 347.527344 207.015625 C 347.898438 206.179688 348.199219 205.410156 348.433594 204.710938 Z M 348.433594 204.710938 " fill-opacity="1" fill-rule="nonzero"/><path fill="#000000" d="M 374.109375 221.113281 C 373.339844 222.105469 372.460938 223.121094 371.488281 224.152344 C 370.511719 225.167969 369.46875 226.101562 368.359375 226.914062 C 367.246094 227.722656 366.109375 228.394531 364.941406 228.917969 C 363.761719 229.441406 362.570312 229.675781 361.375 229.621094 C 360.730469 229.589844 360.179688 229.453125 359.730469 229.222656 C 359.277344 228.972656 358.917969 228.65625 358.644531 228.257812 C 358.382812 227.859375 358.191406 227.394531 358.082031 226.871094 C 357.984375 226.347656 357.972656 225.8125 358.054688 225.25 C 358.179688 224.234375 358.453125 223.273438 358.863281 222.378906 C 359.289062 221.484375 359.785156 220.621094 360.347656 219.769531 C 360.921875 218.929688 361.566406 218.089844 362.28125 217.238281 C 362.980469 216.402344 363.695312 215.523438 364.421875 214.617188 C 364.902344 214.023438 365.367188 213.449219 365.835938 212.871094 C 366.300781 212.292969 366.710938 211.785156 367.054688 211.332031 C 367.414062 210.878906 367.660156 210.519531 367.824219 210.246094 C 367.976562 209.984375 367.976562 209.863281 367.824219 209.890625 C 367.316406 209.972656 366.890625 210.054688 366.535156 210.148438 C 366.191406 210.246094 365.863281 210.328125 365.558594 210.410156 C 365.257812 210.492188 364.941406 210.546875 364.613281 210.589844 C 364.296875 210.632812 363.898438 210.644531 363.417969 210.644531 C 363.226562 210.644531 363.050781 210.644531 362.898438 210.644531 C 362.734375 210.644531 362.582031 210.632812 362.457031 210.601562 C 361.566406 211.621094 360.742188 212.679688 359.949219 213.75 C 359.164062 214.835938 358.425781 215.878906 357.726562 216.867188 C 357.589844 217.019531 357.4375 217.117188 357.246094 217.144531 C 357.066406 217.171875 356.902344 217.144531 356.765625 217.046875 C 356.628906 216.953125 356.558594 216.8125 356.53125 216.621094 C 356.503906 216.441406 356.574219 216.238281 356.722656 216.015625 C 357.476562 214.957031 358.179688 213.929688 358.851562 212.953125 C 359.523438 211.976562 360.222656 210.972656 360.976562 209.929688 C 360.59375 209.628906 360.414062 209.242188 360.414062 208.75 C 360.414062 208.253906 360.539062 207.703125 360.769531 207.113281 C 361.019531 206.535156 361.320312 205.917969 361.71875 205.300781 C 362.101562 204.667969 362.5 204.0625 362.910156 203.472656 C 363.324219 202.882812 363.722656 202.332031 364.078125 201.808594 C 364.433594 201.289062 364.695312 200.847656 364.859375 200.503906 C 365.257812 200.65625 365.65625 200.863281 366.039062 201.09375 C 366.425781 201.34375 366.738281 201.644531 366.988281 202.003906 C 367.21875 202.359375 367.34375 202.8125 367.355469 203.320312 C 367.371094 203.84375 367.207031 204.476562 366.863281 205.191406 L 364.503906 208.15625 C 364.339844 208.351562 364.449219 208.417969 364.820312 208.363281 C 365.1875 208.308594 365.710938 208.183594 366.382812 207.980469 C 367.042969 207.785156 367.808594 207.527344 368.660156 207.195312 C 369.511719 206.878906 370.335938 206.550781 371.128906 206.21875 C 371.914062 205.878906 372.613281 205.5625 373.203125 205.230469 C 373.804688 204.914062 374.203125 204.652344 374.394531 204.476562 C 374.492188 204.476562 374.644531 204.542969 374.835938 204.667969 C 375.011719 204.804688 375.207031 204.957031 375.398438 205.109375 C 375.574219 205.273438 375.742188 205.4375 375.890625 205.589844 C 376.042969 205.753906 376.125 205.863281 376.152344 205.917969 C 376.441406 206.398438 376.386719 207.042969 375.972656 207.882812 C 375.5625 208.707031 374.929688 209.640625 374.109375 210.6875 C 373.285156 211.730469 372.324219 212.871094 371.226562 214.09375 C 370.128906 215.328125 369.046875 216.582031 367.976562 217.871094 C 367.605469 218.269531 367.207031 218.738281 366.753906 219.273438 C 366.316406 219.808594 365.890625 220.371094 365.476562 220.949219 C 365.066406 221.539062 364.695312 222.117188 364.378906 222.679688 C 364.050781 223.242188 363.84375 223.753906 363.761719 224.207031 C 363.667969 224.660156 363.707031 225.03125 363.898438 225.332031 C 364.078125 225.621094 364.488281 225.785156 365.09375 225.8125 C 365.503906 225.8125 366.027344 225.664062 366.683594 225.386719 C 367.328125 225.113281 368.03125 224.714844 368.757812 224.21875 C 369.496094 223.726562 370.238281 223.148438 371.007812 222.460938 C 371.761719 221.773438 372.449219 221.03125 373.066406 220.234375 C 373.820312 219.246094 374.492188 218.296875 375.109375 217.390625 C 375.726562 216.46875 376.261719 215.699219 376.714844 215.054688 C 376.851562 214.902344 377.003906 214.808594 377.195312 214.78125 C 377.386719 214.753906 377.550781 214.78125 377.6875 214.875 C 377.839844 214.972656 377.921875 215.109375 377.949219 215.300781 C 377.976562 215.480469 377.894531 215.6875 377.714844 215.90625 C 377.125 216.757812 376.535156 217.636719 375.933594 218.53125 C 375.328125 219.425781 374.726562 220.289062 374.109375 221.113281 Z M 374.109375 221.113281 " fill-opacity="1" fill-rule="nonzero"/><path fill="#000000" d="M 398.261719 215.90625 C 397.726562 216.621094 397.175781 217.40625 396.601562 218.242188 C 396.023438 219.09375 395.394531 219.945312 394.679688 220.8125 C 393.980469 221.675781 393.199219 222.570312 392.359375 223.464844 C 391.523438 224.355469 390.578125 225.234375 389.535156 226.089844 C 388.148438 227.214844 386.914062 228.066406 385.828125 228.65625 C 384.746094 229.25 383.800781 229.660156 382.960938 229.894531 C 382.140625 230.140625 381.4375 230.265625 380.863281 230.277344 C 380.285156 230.292969 379.820312 230.304688 379.4375 230.304688 C 378.324219 230.304688 377.363281 230.113281 376.582031 229.742188 C 375.785156 229.371094 375.15625 228.863281 374.660156 228.21875 C 374.167969 227.570312 373.808594 226.816406 373.589844 225.949219 C 373.386719 225.085938 373.300781 224.136719 373.359375 223.121094 C 373.480469 221.222656 373.988281 219.34375 374.878906 217.460938 C 375.757812 215.589844 377.117188 213.558594 378.957031 211.371094 C 379.546875 210.671875 380.328125 209.917969 381.289062 209.105469 C 382.25 208.28125 383.304688 207.539062 384.472656 206.851562 C 385.625 206.179688 386.84375 205.617188 388.132812 205.175781 C 389.410156 204.738281 390.671875 204.53125 391.894531 204.558594 C 392.675781 204.570312 393.320312 204.777344 393.84375 205.136719 C 394.363281 205.492188 394.71875 205.972656 394.898438 206.578125 C 395.089844 207.183594 395.089844 207.871094 394.898438 208.640625 C 394.71875 209.421875 394.324219 210.234375 393.746094 211.085938 C 393.445312 211.386719 393.15625 211.441406 392.855469 211.261719 C 392.566406 211.097656 392.46875 210.796875 392.582031 210.371094 C 392.894531 209.890625 393.117188 209.421875 393.226562 208.980469 C 393.320312 208.542969 393.335938 208.171875 393.265625 207.855469 C 393.183594 207.554688 393.003906 207.332031 392.71875 207.195312 C 392.441406 207.058594 392.058594 207.042969 391.578125 207.113281 C 390.617188 207.304688 389.683594 207.648438 388.78125 208.15625 C 387.859375 208.667969 386.996094 209.285156 386.171875 210.011719 C 385.347656 210.726562 384.566406 211.523438 383.855469 212.417969 C 383.125 213.296875 382.46875 214.191406 381.878906 215.082031 C 381.300781 215.976562 380.792969 216.855469 380.382812 217.707031 C 379.972656 218.558594 379.640625 219.34375 379.394531 220.027344 C 379.1875 220.648438 379.011719 221.375 378.859375 222.199219 C 378.707031 223.023438 378.679688 223.835938 378.761719 224.632812 C 378.847656 225.414062 379.078125 226.101562 379.476562 226.691406 C 379.886719 227.285156 380.507812 227.640625 381.371094 227.777344 C 382.082031 227.886719 382.976562 227.738281 384.03125 227.339844 C 385.089844 226.925781 386.199219 226.347656 387.367188 225.566406 C 388.546875 224.796875 389.726562 223.875 390.890625 222.804688 C 392.074219 221.734375 393.15625 220.59375 394.144531 219.398438 C 394.761719 218.640625 395.296875 217.898438 395.761719 217.171875 C 396.230469 216.429688 396.683594 215.726562 397.109375 215.054688 C 397.257812 214.902344 397.449219 214.808594 397.644531 214.78125 C 397.847656 214.753906 398.011719 214.78125 398.152344 214.875 C 398.273438 214.972656 398.371094 215.109375 398.425781 215.300781 C 398.480469 215.480469 398.425781 215.6875 398.261719 215.90625 Z M 398.261719 215.90625 " fill-opacity="1" fill-rule="nonzero"/><g clip-path="url(#e66d9681c9)"><path fill="#000000" d="M 400.460938 220.027344 C 400.417969 220.167969 400.390625 220.25 400.390625 220.277344 C 403.105469 219.492188 405.632812 218.285156 407.9375 216.621094 C 410.242188 214.972656 412.164062 212.855469 413.6875 210.289062 C 413.972656 209.804688 414.179688 209.351562 414.289062 208.941406 C 414.386719 208.527344 414.398438 208.171875 414.304688 207.855469 C 414.207031 207.554688 414.027344 207.332031 413.742188 207.195312 C 413.464844 207.058594 413.097656 207.042969 412.644531 207.113281 C 411.683594 207.304688 410.75 207.648438 409.84375 208.15625 C 408.925781 208.667969 408.058594 209.285156 407.238281 210.011719 C 406.414062 210.726562 405.632812 211.523438 404.917969 212.417969 C 404.191406 213.296875 403.53125 214.191406 402.941406 215.082031 C 402.367188 215.976562 401.859375 216.855469 401.445312 217.707031 C 401.035156 218.558594 400.707031 219.34375 400.460938 220.027344 Z M 394.421875 223.121094 C 394.546875 221.222656 395.054688 219.34375 395.945312 217.460938 C 396.824219 215.589844 398.179688 213.558594 400.019531 211.371094 C 400.609375 210.671875 401.390625 209.917969 402.351562 209.105469 C 403.3125 208.28125 404.371094 207.539062 405.535156 206.851562 C 406.6875 206.179688 407.910156 205.617188 409.199219 205.175781 C 410.476562 204.738281 411.738281 204.53125 412.957031 204.558594 C 413.742188 204.570312 414.398438 204.777344 414.949219 205.136719 C 415.496094 205.492188 415.867188 205.972656 416.074219 206.578125 C 416.265625 207.183594 416.277344 207.882812 416.085938 208.707031 C 415.894531 209.519531 415.457031 210.382812 414.769531 211.289062 C 413.054688 214.011719 410.914062 216.265625 408.363281 218.023438 C 405.796875 219.796875 403.011719 221.085938 400.019531 221.925781 L 399.953125 222.035156 C 399.839844 222.652344 399.785156 223.273438 399.785156 223.902344 C 399.785156 224.535156 399.867188 225.125 400.046875 225.664062 C 400.210938 226.210938 400.488281 226.679688 400.871094 227.050781 C 401.242188 227.421875 401.761719 227.667969 402.433594 227.777344 C 403.148438 227.886719 404.039062 227.738281 405.097656 227.339844 C 406.152344 226.925781 407.265625 226.347656 408.429688 225.566406 C 409.609375 224.796875 410.789062 223.875 411.957031 222.804688 C 413.136719 221.734375 414.222656 220.59375 415.207031 219.398438 C 415.828125 218.640625 416.363281 217.898438 416.828125 217.171875 C 417.292969 216.429688 417.746094 215.726562 418.171875 215.054688 C 418.324219 214.902344 418.515625 214.808594 418.707031 214.78125 C 418.914062 214.753906 419.078125 214.78125 419.214844 214.875 C 419.339844 214.972656 419.433594 215.109375 419.488281 215.300781 C 419.542969 215.480469 419.488281 215.6875 419.324219 215.90625 C 418.789062 216.621094 418.242188 217.40625 417.664062 218.242188 C 417.089844 219.09375 416.457031 219.945312 415.742188 220.8125 C 415.042969 221.675781 414.261719 222.570312 413.425781 223.464844 C 412.589844 224.355469 411.640625 225.234375 410.597656 226.089844 C 409.214844 227.214844 407.976562 228.066406 406.894531 228.65625 C 405.808594 229.25 404.863281 229.660156 404.027344 229.894531 C 403.203125 230.140625 402.503906 230.265625 401.925781 230.277344 C 401.351562 230.292969 400.882812 230.304688 400.5 230.304688 C 399.390625 230.304688 398.429688 230.113281 397.644531 229.742188 C 396.851562 229.371094 396.21875 228.863281 395.726562 228.21875 C 395.230469 227.570312 394.875 226.816406 394.65625 225.949219 C 394.449219 225.085938 394.367188 224.136719 394.421875 223.121094 Z M 394.421875 223.121094 " fill-opacity="1" fill-rule="nonzero"/></g></svg>