<svg xmlns="http://www.w3.org/2000/svg" xmlns:xlink="http://www.w3.org/1999/xlink" width="1920" zoomAndPan="magnify" viewBox="0 0 1440 337.499995" height="450" preserveAspectRatio="xMidYMid meet" version="1.0"><defs><filter x="0%" y="0%" width="100%" height="100%" id="3bbceb57f7"><feColorMatrix values="0 0 0 0 1 0 0 0 0 1 0 0 0 0 1 0 0 0 1 0" color-interpolation-filters="sRGB"/></filter><g/><mask id="5f3c5d7e32"><g filter="url(#3bbceb57f7)"><rect x="-144" width="1728" fill="#000000" y="-33.75" height="404.999994" fill-opacity="0.898"/></g></mask><clipPath id="73951c4ce0"><path d="M 0.246094 0.238281 L 186.71875 0.238281 L 186.71875 288.5625 L 0.246094 288.5625 Z M 0.246094 0.238281 " clip-rule="nonzero"/></clipPath><clipPath id="67940669d8"><rect x="0" width="188" y="0" height="290"/></clipPath><mask id="8da2e0848a"><g filter="url(#3bbceb57f7)"><rect x="-144" width="1728" fill="#000000" y="-33.75" height="404.999994" fill-opacity="0.898"/></g></mask><clipPath id="bd3f68f7c4"><path d="M 0.0078125 3 L 11 3 L 11 15 L 0.0078125 15 Z M 0.0078125 3 " clip-rule="nonzero"/></clipPath><clipPath id="271a871054"><rect x="0" width="188" y="0" height="20"/></clipPath><clipPath id="7f76bcab7c"><path d="M 893.519531 145.566406 L 1000 145.566406 L 1000 211.46875 L 893.519531 211.46875 Z M 893.519531 145.566406 " clip-rule="nonzero"/></clipPath><mask id="e26a578683"><g filter="url(#3bbceb57f7)"><rect x="-144" width="1728" fill="#000000" y="-33.75" height="404.999994" fill-opacity="0.898"/></g></mask><clipPath id="e8a90d3ab7"><path d="M 86 36 L 95 36 L 95 45 L 86 45 Z M 86 36 " clip-rule="nonzero"/></clipPath><clipPath id="e09d1b1fe9"><path d="M 0.636719 57.605469 L 35.28125 0.667969 L 95.417969 37.257812 L 60.773438 94.199219 Z M 0.636719 57.605469 " clip-rule="nonzero"/></clipPath><clipPath id="cf42413208"><path d="M 0.636719 57.605469 L 35.28125 0.667969 L 95.417969 37.257812 L 60.773438 94.199219 Z M 0.636719 57.605469 " clip-rule="nonzero"/></clipPath><clipPath id="b7925bf5ed"><path d="M 0.636719 57.605469 L 35.28125 0.667969 L 95.417969 37.257812 L 60.773438 94.199219 Z M 0.636719 57.605469 " clip-rule="nonzero"/></clipPath><clipPath id="9aaa831cc0"><path d="M 5 30 L 89 30 L 89 71 L 5 71 Z M 5 30 " clip-rule="nonzero"/></clipPath><clipPath id="2b3e537656"><path d="M 0.636719 57.605469 L 35.28125 0.667969 L 95.417969 37.257812 L 60.773438 94.199219 Z M 0.636719 57.605469 " clip-rule="nonzero"/></clipPath><clipPath id="2dfb5afda3"><path d="M 0.636719 57.605469 L 35.28125 0.667969 L 95.417969 37.257812 L 60.773438 94.199219 Z M 0.636719 57.605469 " clip-rule="nonzero"/></clipPath><clipPath id="47a7d338d8"><path d="M 0.636719 57.605469 L 35.28125 0.667969 L 95.417969 37.257812 L 60.773438 94.199219 Z M 0.636719 57.605469 " clip-rule="nonzero"/></clipPath><clipPath id="9a59942b67"><rect x="0" width="96" y="0" height="95"/></clipPath></defs><g mask="url(#5f3c5d7e32)"><g transform="matrix(1, 0, 0, 1, 1025, 24)"><g clip-path="url(#67940669d8)"><g clip-path="url(#73951c4ce0)"><path fill="#000000" d="M 4.21875 286.476562 C 4.21875 286.476562 5.5 285.917969 6.058594 286.476562 C 6.585938 287.003906 8.523438 288.515625 8.523438 288.515625 L 9.9375 286.476562 L 11.773438 285.523438 C 11.773438 285.523438 12.53125 284.535156 12.433594 284.238281 C 12.332031 283.910156 10.921875 280.886719 10.921875 280.886719 C 10.921875 280.886719 10.492188 279.472656 10.921875 279.144531 C 11.347656 278.8125 12.433594 278.289062 12.433594 278.289062 L 13.613281 278.8125 L 14.371094 279.898438 C 14.371094 279.898438 14.601562 281.511719 15.355469 281.640625 C 16.109375 281.742188 18.378906 282.070312 18.378906 282.070312 L 20.742188 280.328125 C 20.742188 280.328125 22.679688 280.328125 23.007812 280.328125 C 23.335938 280.328125 24.847656 279.898438 24.847656 279.898438 L 24.847656 280.65625 L 23.765625 282.398438 L 23.765625 284.339844 C 23.765625 284.339844 23.535156 284.863281 24.289062 285.09375 C 25.046875 285.324219 26.328125 285.195312 26.886719 285.195312 C 27.441406 285.195312 27.738281 284.863281 28.164062 284.4375 C 28.59375 284.007812 29.347656 282.496094 29.347656 282.496094 C 29.347656 282.496094 29.777344 281.742188 29.875 281.410156 C 29.972656 281.082031 29.445312 280.226562 29.445312 280.226562 L 28.363281 278.8125 L 27.835938 278.289062 L 28.265625 276.546875 L 29.445312 274.277344 C 29.445312 274.277344 30.300781 275.886719 30.433594 276.445312 C 30.53125 276.972656 31.417969 278.289062 31.417969 278.289062 C 31.417969 278.289062 32.601562 279.042969 33.355469 279.144531 C 34.109375 279.242188 34.011719 279.042969 35.195312 278.8125 C 36.378906 278.582031 37.789062 277.070312 38.21875 276.972656 C 38.644531 276.875 38.445312 276.546875 39.300781 276.875 C 40.15625 277.203125 41.765625 277.859375 41.765625 277.859375 L 47.578125 281.410156 L 50.601562 284.339844 C 50.601562 284.339844 53.292969 284.339844 53.621094 284.667969 C 53.949219 284.996094 55.363281 287.792969 55.363281 287.792969 C 55.363281 287.792969 56.972656 288.21875 57.398438 288.023438 C 57.828125 287.792969 59.339844 286.179688 59.4375 285.554688 C 59.535156 284.898438 59.4375 282.628906 59.4375 282.628906 L 60.617188 280.457031 L 61.898438 279.273438 C 61.898438 279.273438 64.921875 278.1875 65.347656 278.089844 C 65.777344 277.992188 68.273438 276.808594 68.273438 276.808594 C 68.273438 276.808594 69.554688 274.339844 70.636719 274.339844 C 71.722656 274.339844 72.804688 273.257812 73.332031 273.585938 C 73.855469 273.914062 74.316406 274.570312 74.511719 275.527344 C 74.742188 276.511719 75.792969 279.078125 75.792969 279.078125 C 75.792969 279.078125 78.390625 281.542969 78.816406 281.542969 C 79.242188 281.542969 79.671875 279.175781 80.753906 279.503906 C 81.839844 279.832031 82.265625 279.832031 82.265625 280.359375 C 82.265625 280.886719 81.738281 282.398438 81.738281 282.398438 L 81.511719 283.8125 C 81.511719 283.8125 82.167969 284.996094 82.921875 284.800781 C 83.675781 284.570312 84.203125 284.042969 84.664062 283.515625 C 85.089844 282.992188 84.992188 281.082031 84.992188 281.050781 C 84.992188 281.015625 84.992188 279.40625 84.992188 279.40625 L 86.601562 278.878906 C 86.601562 278.878906 88.636719 279.734375 89.625 279.308594 C 90.609375 278.878906 90.902344 278.125 90.902344 277.5625 C 90.902344 277.039062 89.722656 275.527344 89.722656 274.867188 C 89.722656 274.210938 89.953125 272.269531 89.953125 271.941406 C 89.953125 271.613281 89.953125 270 89.953125 270 L 92.546875 270 C 92.546875 270 94.714844 268.816406 94.582031 268.0625 C 94.453125 267.304688 94.8125 267.304688 93.925781 266.449219 C 93.070312 265.59375 92.085938 265.035156 92.84375 264.609375 C 93.597656 264.179688 93.695312 263.753906 94.582031 264.179688 C 95.4375 264.609375 96.292969 265.363281 96.292969 265.363281 C 96.292969 265.363281 97.277344 264.839844 97.570312 264.507812 C 97.902344 264.179688 98.230469 263.820312 98.984375 264.015625 C 99.738281 264.179688 99.96875 264.609375 100.496094 263.984375 C 101.019531 263.359375 101.679688 263.65625 101.019531 262.800781 C 100.363281 261.945312 99.609375 261.617188 99.609375 261.617188 L 98.523438 261.617188 C 98.523438 261.617188 97.769531 259.871094 98 259.578125 C 98.230469 259.28125 99.609375 258.492188 100.167969 259.578125 C 100.726562 260.660156 103.089844 262.503906 103.089844 262.503906 C 103.089844 262.503906 102.859375 263.6875 103.089844 264.671875 C 103.320312 265.660156 102.664062 267.46875 103.089844 268.027344 C 103.515625 268.554688 105.191406 270.296875 105.191406 270.296875 C 105.191406 270.296875 108.804688 272.992188 109.132812 272.992188 C 109.460938 272.992188 111.300781 272.335938 112.253906 272.335938 C 113.207031 272.335938 113.996094 273.71875 114.191406 273.847656 C 114.390625 273.980469 116.359375 276.546875 116.359375 276.546875 L 117.347656 273.847656 L 121.78125 272.761719 C 121.78125 272.761719 123.621094 270.59375 123.621094 270.296875 C 123.621094 270 124.375 266.417969 124.375 266.417969 L 124.375 263.0625 C 124.375 263.0625 123.851562 261.78125 124.375 261.121094 C 124.902344 260.464844 125.132812 259.246094 125.65625 259.050781 C 126.183594 258.851562 127.167969 257.570312 127.167969 257.570312 C 127.167969 257.570312 128.023438 256.8125 128.023438 256.484375 C 128.023438 256.15625 128.023438 254.875 128.023438 254.875 L 128.546875 253.691406 C 128.546875 253.691406 128.546875 253.261719 129.632812 253.03125 C 130.714844 252.800781 130.714844 252.800781 130.714844 252.800781 C 130.714844 252.800781 131.570312 252.144531 131.800781 252.800781 C 132.027344 253.460938 131.140625 254.085938 132.324219 254.085938 C 133.507812 254.085938 134.917969 253.230469 134.917969 253.230469 L 136.957031 251.71875 C 136.957031 251.71875 138.992188 249.546875 139.222656 249.019531 C 139.453125 248.496094 139.648438 247.277344 139.878906 246.75 C 140.109375 246.226562 140.535156 242.871094 140.535156 242.871094 C 140.535156 242.871094 140.964844 241.6875 141.292969 241.359375 C 141.621094 241.03125 141.0625 240.503906 142.902344 240.273438 C 144.742188 240.042969 145.265625 239.847656 145.265625 239.847656 C 145.265625 239.847656 146.351562 240.503906 146.777344 239.847656 C 147.203125 239.1875 147.761719 238.003906 147.761719 238.003906 L 148.617188 236.164062 C 148.617188 236.164062 148.945312 236.589844 149.472656 236.164062 C 149.996094 235.734375 150.457031 235.503906 150.457031 235.503906 L 151.539062 232.480469 L 150.6875 230.015625 L 150.160156 226.890625 C 150.160156 226.890625 150.390625 225.476562 150.160156 225.148438 C 149.929688 224.816406 149.40625 223.207031 149.40625 223.207031 C 149.40625 223.207031 149.304688 221.695312 149.636719 221.464844 C 149.964844 221.234375 151.574219 220.050781 151.574219 220.050781 L 154.035156 220.050781 C 154.035156 220.050781 154.464844 220.148438 155.644531 220.050781 C 156.828125 219.953125 157.253906 220.476562 158.4375 220.050781 C 159.621094 219.621094 161.132812 221.035156 161.558594 221.660156 C 161.984375 222.320312 163.300781 223.273438 163.824219 223.273438 C 164.351562 223.273438 164.910156 222.945312 165.992188 222.515625 C 167.078125 222.089844 167.929688 221.101562 168.257812 221.003906 C 168.585938 220.90625 170.625 219.820312 171.28125 219.390625 C 171.9375 218.964844 173.546875 217.878906 173.546875 217.878906 L 175.914062 216.894531 L 177.753906 216.894531 C 177.753906 216.894531 179.164062 215.808594 179.589844 215.710938 C 180.019531 215.609375 181.003906 215.609375 181.757812 215.710938 C 182.515625 215.808594 184.027344 215.644531 184.027344 215.644531 C 184.027344 215.644531 185.011719 216.332031 184.878906 215.644531 C 184.78125 214.953125 184.125 212.816406 184.125 212.816406 L 185.964844 210.972656 L 186.71875 209.230469 L 185.636719 208.046875 C 185.636719 208.046875 184.550781 208.277344 183.894531 208.046875 C 183.238281 207.816406 181.628906 207.289062 181.628906 207.289062 C 181.628906 207.289062 181.300781 206.304688 182.382812 205.023438 C 183.46875 203.738281 183.992188 203.179688 183.992188 203.179688 C 183.992188 203.179688 183.140625 201.765625 183.007812 201.140625 C 182.910156 200.484375 181.070312 198.214844 180.972656 197.6875 C 180.871094 197.164062 180.214844 196.933594 180.3125 196.40625 C 180.414062 195.878906 180.839844 194.992188 181.496094 194.664062 C 182.152344 194.335938 183.535156 192.921875 183.535156 192.921875 L 184.058594 192.261719 L 183.960938 155.039062 L 183.796875 124.585938 L 183.46875 76.015625 L 183.238281 45.367188 L 182.710938 22.710938 L 182.480469 2.222656 L 182.382812 0.285156 L 143.359375 0.941406 L 95.632812 0.710938 L 75.269531 0.710938 L 69.980469 3.933594 C 69.980469 3.933594 62.558594 7.519531 61.898438 7.714844 C 61.242188 7.914062 54.015625 10.3125 53.589844 10.3125 C 53.164062 10.3125 49.613281 10.640625 49.285156 10.640625 C 48.957031 10.640625 45.082031 9.789062 44.65625 9.457031 C 44.226562 9.128906 42.71875 8.375 42.71875 8.375 L 41.304688 7.945312 L 39.890625 6.105469 L 39.039062 6.003906 L 37.332031 3.933594 L 36.738281 50.136719 L 35.554688 109.359375 L 34.539062 173.75 L 33.519531 174.273438 C 33.519531 174.273438 33.09375 175.128906 32.664062 175.394531 C 32.238281 175.65625 30.957031 175.558594 30.792969 176.082031 C 30.628906 176.609375 29.777344 177.433594 29.777344 177.433594 L 29.777344 178.449219 L 30.203125 181.507812 C 30.203125 181.507812 30.890625 181.34375 31.484375 181.507812 C 32.074219 181.671875 32.074219 182.429688 32.074219 182.429688 L 31.746094 184.796875 L 30.300781 185.71875 L 29.777344 186.476562 L 29.183594 187.757812 L 28.429688 187.757812 L 29.183594 188.941406 L 27.738281 189.367188 L 28.59375 191.078125 L 27.738281 191.605469 C 27.738281 191.605469 29.183594 192.359375 29.445312 192.359375 C 29.710938 192.359375 29.546875 193.808594 29.546875 193.808594 L 30.464844 193.808594 L 31.582031 195.582031 L 31.84375 197.457031 L 32.042969 198.578125 L 31.1875 199.695312 L 32.042969 200.285156 L 31.121094 200.976562 L 33.75 201.898438 C 33.75 201.898438 34.667969 202.488281 34.667969 202.753906 C 34.667969 203.015625 34.503906 204.035156 34.503906 204.035156 L 34.605469 205.054688 L 34.078125 206.402344 L 34.667969 207.257812 L 33.554688 207.257812 L 33.652344 208.703125 L 32.5 210.152344 L 33.71875 210.90625 L 34.144531 212.519531 L 34.898438 214.65625 L 35.589844 215.578125 L 35.425781 216.5 L 34.667969 216.828125 C 34.667969 216.828125 35.097656 217.15625 35.359375 217.351562 C 35.621094 217.519531 35.621094 218.703125 35.621094 218.703125 L 34.933594 219.820312 L 34.242188 221.59375 L 33.652344 222.613281 L 32.5 223.371094 L 30.167969 224.226562 L 28.886719 225.671875 C 28.886719 225.671875 28.363281 226 28.460938 226.265625 C 28.558594 226.527344 28.199219 227.976562 28.199219 227.976562 L 28.460938 228.996094 C 28.460938 228.996094 29.644531 229.847656 29.152344 229.75 C 28.625 229.652344 27.707031 229.75 27.707031 229.75 C 27.707031 229.75 27.441406 231.261719 27.179688 231.363281 C 26.917969 231.460938 25.570312 232.710938 25.570312 232.710938 L 26.164062 234.15625 L 27.082031 234.75 L 26.917969 235.933594 L 25.570312 235.933594 C 25.570312 235.933594 25.570312 236.195312 24.816406 236.6875 C 24.058594 237.183594 23.632812 237.445312 23.632812 237.445312 C 23.632812 237.445312 22.515625 237.117188 22.089844 237.445312 C 21.664062 237.773438 21.070312 238.300781 21.070312 238.300781 L 21.070312 239.058594 L 22.089844 239.648438 L 21.5625 240.765625 L 21.5625 242.3125 L 21.039062 243.234375 L 20.609375 244.351562 L 19.265625 245.535156 L 17.65625 246.457031 L 16.308594 248.066406 C 16.308594 248.066406 16.210938 250.203125 16.308594 250.433594 C 16.40625 250.699219 15.550781 251.71875 15.550781 251.71875 L 14.699219 251.71875 L 14.699219 249.777344 L 13.089844 251.058594 L 12.5625 251.75 L 12.136719 252.605469 L 11.609375 251.421875 L 12.039062 250.730469 L 11.183594 250.46875 L 10.066406 251.222656 L 9.476562 251.914062 L 9.050781 253.527344 L 8.128906 253.097656 L 7.109375 253.527344 L 7.109375 257.175781 C 7.109375 257.175781 8.71875 260.070312 9.3125 260.070312 C 9.902344 260.070312 10.429688 260.992188 10.429688 260.992188 L 9.902344 262.109375 C 9.902344 262.109375 8.457031 262.207031 7.964844 262.699219 C 7.472656 263.195312 7.109375 263.820312 7.109375 263.820312 L 5.664062 264.507812 L 5.140625 265.265625 C 5.140625 265.265625 5.730469 266.023438 5.992188 266.023438 C 6.257812 266.023438 6.75 266.023438 6.75 266.023438 L 7.933594 265.429688 L 8.785156 265.332031 L 8.882812 266.023438 C 8.882812 266.023438 8.71875 266.285156 8.195312 266.546875 C 7.667969 266.8125 7.667969 267.566406 6.75 267.46875 C 5.828125 267.371094 4.613281 267.996094 4.613281 267.996094 C 4.613281 267.996094 2.90625 269.277344 3.761719 269.703125 C 4.613281 270.132812 4.941406 269.703125 4.941406 269.703125 L 4.777344 270.722656 L 4.777344 271.84375 C 4.777344 271.84375 4.941406 271.941406 5.105469 272.433594 C 5.269531 272.960938 5.371094 273.71875 5.371094 273.71875 L 4.84375 274.472656 L 4.320312 275 L 4.15625 276.875 L 2.675781 276.875 C 2.675781 276.875 1.921875 277.300781 1.988281 277.628906 C 2.085938 277.957031 3.101562 278.320312 3.101562 278.320312 L 5.304688 278.320312 L 5.042969 279.175781 C 5.042969 279.175781 4.613281 279.078125 4.351562 279.175781 C 4.089844 279.273438 3.332031 279.339844 3.003906 279.175781 C 2.675781 279.011719 3.269531 279.273438 2.675781 279.011719 C 2.085938 278.75 1.132812 278.683594 1.132812 279.273438 C 1.132812 279.867188 1.722656 281.640625 1.988281 281.972656 C 2.25 282.300781 3.101562 283.089844 3.101562 283.089844 L 4.648438 283.613281 L 4.21875 284.304688 L 2.9375 283.878906 L 1.59375 283.78125 C 1.59375 283.78125 0.246094 284.699219 1.164062 285.816406 C 2.085938 286.9375 3.464844 286.410156 3.464844 286.410156 L 4.351562 286.542969 " fill-opacity="1" fill-rule="nonzero"/></g></g></g></g><g fill="#ffffff" fill-opacity="1"><g transform="translate(1105.522012, 182.661607)"><g><path d="M 0.390625 -7.875 L 4.234375 -7.875 L 4.234375 -6.78125 L 3.890625 -6.78125 C 3.679688 -6.78125 3.539062 -6.757812 3.46875 -6.71875 C 3.40625 -6.6875 3.359375 -6.632812 3.328125 -6.5625 C 3.296875 -6.488281 3.28125 -6.34375 3.28125 -6.125 L 3.28125 -1.765625 C 3.28125 -1.523438 3.289062 -1.367188 3.3125 -1.296875 C 3.34375 -1.234375 3.390625 -1.1875 3.453125 -1.15625 C 3.535156 -1.113281 3.65625 -1.09375 3.8125 -1.09375 L 4.234375 -1.09375 L 4.234375 0 L 0.390625 0 L 0.390625 -1.09375 L 0.703125 -1.09375 C 0.921875 -1.09375 1.0625 -1.109375 1.125 -1.140625 C 1.195312 -1.171875 1.25 -1.21875 1.28125 -1.28125 C 1.320312 -1.351562 1.34375 -1.492188 1.34375 -1.703125 L 1.34375 -6.078125 C 1.34375 -6.328125 1.320312 -6.488281 1.28125 -6.5625 C 1.25 -6.632812 1.195312 -6.691406 1.125 -6.734375 C 1.070312 -6.765625 0.945312 -6.78125 0.75 -6.78125 L 0.390625 -6.78125 Z M 0.390625 -7.875 "/></g></g></g><g fill="#ffffff" fill-opacity="1"><g transform="translate(1111.00938, 182.661607)"><g><path d="M 0.4375 -7.875 L 3.640625 -7.875 L 5.953125 -3.28125 L 5.953125 -6.09375 C 5.953125 -6.332031 5.9375 -6.484375 5.90625 -6.546875 C 5.875 -6.628906 5.820312 -6.6875 5.75 -6.71875 C 5.6875 -6.757812 5.566406 -6.78125 5.390625 -6.78125 L 5 -6.78125 L 5 -7.875 L 8.25 -7.875 L 8.25 -6.78125 L 7.890625 -6.78125 C 7.710938 -6.78125 7.582031 -6.757812 7.5 -6.71875 C 7.425781 -6.675781 7.375 -6.617188 7.34375 -6.546875 C 7.3125 -6.484375 7.296875 -6.332031 7.296875 -6.09375 L 7.296875 0 L 5.671875 0 L 2.75 -5.796875 L 2.75 -1.75 C 2.75 -1.507812 2.765625 -1.359375 2.796875 -1.296875 C 2.828125 -1.234375 2.878906 -1.179688 2.953125 -1.140625 C 3.023438 -1.109375 3.148438 -1.09375 3.328125 -1.09375 L 3.703125 -1.09375 L 3.703125 0 L 0.4375 0 L 0.4375 -1.09375 L 0.78125 -1.09375 C 0.96875 -1.09375 1.09375 -1.109375 1.15625 -1.140625 C 1.226562 -1.171875 1.285156 -1.222656 1.328125 -1.296875 C 1.367188 -1.378906 1.390625 -1.5 1.390625 -1.65625 L 1.390625 -6.171875 C 1.390625 -6.347656 1.367188 -6.472656 1.328125 -6.546875 C 1.296875 -6.628906 1.25 -6.6875 1.1875 -6.71875 C 1.125 -6.757812 1.015625 -6.78125 0.859375 -6.78125 L 0.4375 -6.78125 Z M 0.4375 -7.875 "/></g></g></g><g fill="#ffffff" fill-opacity="1"><g transform="translate(1120.42355, 182.661607)"><g><path d="M 0.421875 -7.875 L 4.5625 -7.875 C 5.5 -7.875 6.242188 -7.722656 6.796875 -7.421875 C 7.347656 -7.128906 7.785156 -6.691406 8.109375 -6.109375 C 8.441406 -5.523438 8.609375 -4.828125 8.609375 -4.015625 C 8.609375 -3.441406 8.523438 -2.929688 8.359375 -2.484375 C 8.191406 -2.035156 7.941406 -1.628906 7.609375 -1.265625 C 7.273438 -0.910156 6.921875 -0.644531 6.546875 -0.46875 C 6.253906 -0.332031 5.847656 -0.21875 5.328125 -0.125 C 4.804688 -0.0390625 4.382812 0 4.0625 0 L 0.421875 0 L 0.421875 -1.09375 L 0.703125 -1.09375 C 0.929688 -1.09375 1.082031 -1.109375 1.15625 -1.140625 C 1.226562 -1.179688 1.285156 -1.25 1.328125 -1.34375 C 1.359375 -1.414062 1.375 -1.570312 1.375 -1.8125 L 1.375 -6.109375 C 1.375 -6.347656 1.359375 -6.5 1.328125 -6.5625 C 1.296875 -6.632812 1.242188 -6.6875 1.171875 -6.71875 C 1.097656 -6.757812 0.941406 -6.78125 0.703125 -6.78125 L 0.421875 -6.78125 Z M 3.3125 -6.609375 L 3.3125 -1.71875 C 3.3125 -1.550781 3.320312 -1.445312 3.34375 -1.40625 C 3.363281 -1.351562 3.40625 -1.316406 3.46875 -1.296875 C 3.53125 -1.273438 3.671875 -1.265625 3.890625 -1.265625 C 4.503906 -1.265625 4.984375 -1.359375 5.328125 -1.546875 C 5.679688 -1.734375 5.960938 -2.035156 6.171875 -2.453125 C 6.390625 -2.878906 6.5 -3.382812 6.5 -3.96875 C 6.5 -4.539062 6.398438 -5.035156 6.203125 -5.453125 C 6.003906 -5.878906 5.753906 -6.175781 5.453125 -6.34375 C 5.148438 -6.519531 4.722656 -6.609375 4.171875 -6.609375 Z M 3.3125 -6.609375 "/></g></g></g><g fill="#ffffff" fill-opacity="1"><g transform="translate(1130.300362, 182.661607)"><g><path d="M 0.390625 -7.875 L 4.234375 -7.875 L 4.234375 -6.78125 L 3.890625 -6.78125 C 3.679688 -6.78125 3.539062 -6.757812 3.46875 -6.71875 C 3.40625 -6.6875 3.359375 -6.632812 3.328125 -6.5625 C 3.296875 -6.488281 3.28125 -6.34375 3.28125 -6.125 L 3.28125 -1.765625 C 3.28125 -1.523438 3.289062 -1.367188 3.3125 -1.296875 C 3.34375 -1.234375 3.390625 -1.1875 3.453125 -1.15625 C 3.535156 -1.113281 3.65625 -1.09375 3.8125 -1.09375 L 4.234375 -1.09375 L 4.234375 0 L 0.390625 0 L 0.390625 -1.09375 L 0.703125 -1.09375 C 0.921875 -1.09375 1.0625 -1.109375 1.125 -1.140625 C 1.195312 -1.171875 1.25 -1.21875 1.28125 -1.28125 C 1.320312 -1.351562 1.34375 -1.492188 1.34375 -1.703125 L 1.34375 -6.078125 C 1.34375 -6.328125 1.320312 -6.488281 1.28125 -6.5625 C 1.25 -6.632812 1.195312 -6.691406 1.125 -6.734375 C 1.070312 -6.765625 0.945312 -6.78125 0.75 -6.78125 L 0.390625 -6.78125 Z M 0.390625 -7.875 "/></g></g></g><g fill="#ffffff" fill-opacity="1"><g transform="translate(1135.787729, 182.661607)"><g><path d="M 3.296875 -7.875 L 5.0625 -7.875 L 7.421875 -1.796875 C 7.546875 -1.472656 7.660156 -1.269531 7.765625 -1.1875 C 7.867188 -1.113281 8.050781 -1.082031 8.3125 -1.09375 L 8.3125 0 L 4.59375 0 L 4.59375 -1.09375 L 4.8125 -1.09375 C 5.019531 -1.09375 5.164062 -1.117188 5.25 -1.171875 C 5.332031 -1.234375 5.375 -1.300781 5.375 -1.375 C 5.375 -1.445312 5.335938 -1.585938 5.265625 -1.796875 L 5.03125 -2.515625 L 2.640625 -2.515625 L 2.34375 -1.71875 C 2.28125 -1.550781 2.25 -1.441406 2.25 -1.390625 C 2.25 -1.328125 2.269531 -1.269531 2.3125 -1.21875 C 2.351562 -1.164062 2.425781 -1.128906 2.53125 -1.109375 C 2.59375 -1.097656 2.769531 -1.09375 3.0625 -1.09375 L 3.0625 0 L 0.015625 0 L 0.015625 -1.09375 C 0.210938 -1.09375 0.351562 -1.109375 0.4375 -1.140625 C 0.53125 -1.171875 0.601562 -1.21875 0.65625 -1.28125 C 0.71875 -1.351562 0.785156 -1.484375 0.859375 -1.671875 Z M 3.046875 -3.640625 L 4.625 -3.640625 L 3.859375 -5.796875 Z M 3.046875 -3.640625 "/></g></g></g><g fill="#ffffff" fill-opacity="1"><g transform="translate(1144.97622, 182.661607)"><g><path d="M 0.4375 -7.875 L 3.640625 -7.875 L 5.953125 -3.28125 L 5.953125 -6.09375 C 5.953125 -6.332031 5.9375 -6.484375 5.90625 -6.546875 C 5.875 -6.628906 5.820312 -6.6875 5.75 -6.71875 C 5.6875 -6.757812 5.566406 -6.78125 5.390625 -6.78125 L 5 -6.78125 L 5 -7.875 L 8.25 -7.875 L 8.25 -6.78125 L 7.890625 -6.78125 C 7.710938 -6.78125 7.582031 -6.757812 7.5 -6.71875 C 7.425781 -6.675781 7.375 -6.617188 7.34375 -6.546875 C 7.3125 -6.484375 7.296875 -6.332031 7.296875 -6.09375 L 7.296875 0 L 5.671875 0 L 2.75 -5.796875 L 2.75 -1.75 C 2.75 -1.507812 2.765625 -1.359375 2.796875 -1.296875 C 2.828125 -1.234375 2.878906 -1.179688 2.953125 -1.140625 C 3.023438 -1.109375 3.148438 -1.09375 3.328125 -1.09375 L 3.703125 -1.09375 L 3.703125 0 L 0.4375 0 L 0.4375 -1.09375 L 0.78125 -1.09375 C 0.96875 -1.09375 1.09375 -1.109375 1.15625 -1.140625 C 1.226562 -1.171875 1.285156 -1.222656 1.328125 -1.296875 C 1.367188 -1.378906 1.390625 -1.5 1.390625 -1.65625 L 1.390625 -6.171875 C 1.390625 -6.347656 1.367188 -6.472656 1.328125 -6.546875 C 1.296875 -6.628906 1.25 -6.6875 1.1875 -6.71875 C 1.125 -6.757812 1.015625 -6.78125 0.859375 -6.78125 L 0.4375 -6.78125 Z M 0.4375 -7.875 "/></g></g></g><g fill="#ffffff" fill-opacity="1"><g transform="translate(1154.390389, 182.661607)"><g><path d="M 3.296875 -7.875 L 5.0625 -7.875 L 7.421875 -1.796875 C 7.546875 -1.472656 7.660156 -1.269531 7.765625 -1.1875 C 7.867188 -1.113281 8.050781 -1.082031 8.3125 -1.09375 L 8.3125 0 L 4.59375 0 L 4.59375 -1.09375 L 4.8125 -1.09375 C 5.019531 -1.09375 5.164062 -1.117188 5.25 -1.171875 C 5.332031 -1.234375 5.375 -1.300781 5.375 -1.375 C 5.375 -1.445312 5.335938 -1.585938 5.265625 -1.796875 L 5.03125 -2.515625 L 2.640625 -2.515625 L 2.34375 -1.71875 C 2.28125 -1.550781 2.25 -1.441406 2.25 -1.390625 C 2.25 -1.328125 2.269531 -1.269531 2.3125 -1.21875 C 2.351562 -1.164062 2.425781 -1.128906 2.53125 -1.109375 C 2.59375 -1.097656 2.769531 -1.09375 3.0625 -1.09375 L 3.0625 0 L 0.015625 0 L 0.015625 -1.09375 C 0.210938 -1.09375 0.351562 -1.109375 0.4375 -1.140625 C 0.53125 -1.171875 0.601562 -1.21875 0.65625 -1.28125 C 0.71875 -1.351562 0.785156 -1.484375 0.859375 -1.671875 Z M 3.046875 -3.640625 L 4.625 -3.640625 L 3.859375 -5.796875 Z M 3.046875 -3.640625 "/></g></g></g><g fill="#ffffff" fill-opacity="1"><g transform="translate(1105.682336, 169.197513)"><g><path d="M 0.453125 0 L 0.453125 -4.015625 L 3.1875 -4.015625 L 3.1875 -3.515625 L 1.265625 -3.515625 L 1.265625 -2.265625 L 2.9375 -2.265625 L 2.9375 -1.75 L 1.265625 -1.75 L 1.265625 -0.515625 L 3.1875 -0.515625 L 3.1875 0 Z M 0.453125 0 "/></g></g></g><g fill="#ffffff" fill-opacity="1"><g transform="translate(1114.082854, 169.197513)"><g><path d="M 3.671875 -4.015625 L 2.46875 -2.1875 L 3.734375 0 L 2.796875 0 L 1.96875 -1.421875 L 1.046875 0 L 0.453125 0 L 1.6875 -1.90625 L 0.46875 -4.015625 L 1.390625 -4.015625 L 2.1875 -2.65625 L 3.078125 -4.015625 Z M 3.671875 -4.015625 "/></g></g></g><g fill="#ffffff" fill-opacity="1"><g transform="translate(1123.023917, 169.197513)"><g><path d="M 1.796875 -2.015625 C 2.015625 -2.015625 2.164062 -2.078125 2.25 -2.203125 C 2.34375 -2.335938 2.390625 -2.523438 2.390625 -2.765625 C 2.390625 -3.015625 2.34375 -3.203125 2.25 -3.328125 C 2.164062 -3.453125 2.015625 -3.515625 1.796875 -3.515625 L 1.265625 -3.515625 L 1.265625 -2.015625 Z M 1.796875 -4.015625 C 1.984375 -4.015625 2.160156 -3.992188 2.328125 -3.953125 C 2.492188 -3.910156 2.640625 -3.84375 2.765625 -3.75 C 2.898438 -3.65625 3.003906 -3.523438 3.078125 -3.359375 C 3.160156 -3.203125 3.203125 -3.003906 3.203125 -2.765625 C 3.203125 -2.421875 3.128906 -2.160156 2.984375 -1.984375 C 2.835938 -1.804688 2.65625 -1.679688 2.4375 -1.609375 C 2.332031 -1.578125 2.222656 -1.554688 2.109375 -1.546875 C 1.992188 -1.535156 1.878906 -1.523438 1.765625 -1.515625 C 1.679688 -1.515625 1.597656 -1.515625 1.515625 -1.515625 C 1.429688 -1.515625 1.347656 -1.515625 1.265625 -1.515625 L 1.265625 0 L 0.453125 0 L 0.453125 -4.015625 Z M 1.796875 -4.015625 "/></g></g></g><g fill="#ffffff" fill-opacity="1"><g transform="translate(1131.437299, 169.197513)"><g><path d="M 1.265625 -4.015625 L 1.265625 -0.515625 L 2.9375 -0.515625 L 2.9375 0 L 0.453125 0 L 0.453125 -4.015625 Z M 1.265625 -4.015625 "/></g></g></g><g fill="#ffffff" fill-opacity="1"><g transform="translate(1139.393797, 169.197513)"><g><path d="M 3.0625 -1.796875 L 3.0625 -2.0625 C 3.0625 -2.25 3.046875 -2.425781 3.015625 -2.59375 C 2.984375 -2.769531 2.929688 -2.925781 2.859375 -3.0625 C 2.796875 -3.195312 2.707031 -3.304688 2.59375 -3.390625 C 2.476562 -3.472656 2.332031 -3.515625 2.15625 -3.515625 C 1.976562 -3.515625 1.832031 -3.472656 1.71875 -3.390625 C 1.601562 -3.304688 1.507812 -3.195312 1.4375 -3.0625 C 1.375 -2.925781 1.328125 -2.769531 1.296875 -2.59375 C 1.273438 -2.425781 1.265625 -2.25 1.265625 -2.0625 L 1.265625 -1.796875 C 1.265625 -1.609375 1.273438 -1.425781 1.296875 -1.25 C 1.328125 -1.082031 1.375 -0.929688 1.4375 -0.796875 C 1.507812 -0.660156 1.601562 -0.550781 1.71875 -0.46875 C 1.832031 -0.394531 1.976562 -0.359375 2.15625 -0.359375 C 2.332031 -0.359375 2.476562 -0.394531 2.59375 -0.46875 C 2.707031 -0.550781 2.796875 -0.660156 2.859375 -0.796875 C 2.929688 -0.929688 2.984375 -1.082031 3.015625 -1.25 C 3.046875 -1.425781 3.0625 -1.609375 3.0625 -1.796875 Z M 3.875 -2.0625 L 3.875 -1.796875 C 3.875 -1.515625 3.835938 -1.253906 3.765625 -1.015625 C 3.703125 -0.773438 3.597656 -0.566406 3.453125 -0.390625 C 3.316406 -0.222656 3.140625 -0.09375 2.921875 0 C 2.710938 0.09375 2.457031 0.140625 2.15625 0.140625 C 1.851562 0.140625 1.59375 0.09375 1.375 0 C 1.164062 -0.09375 0.988281 -0.222656 0.84375 -0.390625 C 0.707031 -0.566406 0.609375 -0.773438 0.546875 -1.015625 C 0.484375 -1.253906 0.453125 -1.515625 0.453125 -1.796875 L 0.453125 -2.0625 C 0.453125 -2.351562 0.484375 -2.617188 0.546875 -2.859375 C 0.609375 -3.097656 0.707031 -3.300781 0.84375 -3.46875 C 0.988281 -3.644531 1.164062 -3.78125 1.375 -3.875 C 1.59375 -3.96875 1.851562 -4.015625 2.15625 -4.015625 C 2.457031 -4.015625 2.710938 -3.96875 2.921875 -3.875 C 3.140625 -3.78125 3.316406 -3.644531 3.453125 -3.46875 C 3.597656 -3.300781 3.703125 -3.097656 3.765625 -2.859375 C 3.835938 -2.617188 3.875 -2.351562 3.875 -2.0625 Z M 3.875 -2.0625 "/></g></g></g><g fill="#ffffff" fill-opacity="1"><g transform="translate(1148.469996, 169.197513)"><g><path d="M 1.796875 -2.015625 C 2.015625 -2.015625 2.164062 -2.078125 2.25 -2.203125 C 2.34375 -2.335938 2.390625 -2.523438 2.390625 -2.765625 C 2.390625 -3.015625 2.34375 -3.203125 2.25 -3.328125 C 2.164062 -3.453125 2.015625 -3.515625 1.796875 -3.515625 L 1.265625 -3.515625 L 1.265625 -2.015625 Z M 2.484375 -1.625 L 3.4375 0 L 2.5 0 L 1.609375 -1.515625 L 1.265625 -1.515625 L 1.265625 0 L 0.453125 0 L 0.453125 -4.015625 L 1.796875 -4.015625 C 1.984375 -4.015625 2.160156 -3.992188 2.328125 -3.953125 C 2.492188 -3.910156 2.640625 -3.84375 2.765625 -3.75 C 2.898438 -3.65625 3.003906 -3.523438 3.078125 -3.359375 C 3.160156 -3.203125 3.203125 -3.003906 3.203125 -2.765625 C 3.203125 -2.484375 3.140625 -2.242188 3.015625 -2.046875 C 2.898438 -1.847656 2.722656 -1.707031 2.484375 -1.625 Z M 2.484375 -1.625 "/></g></g></g><g fill="#ffffff" fill-opacity="1"><g transform="translate(1157.121481, 169.197513)"><g><path d="M 0.453125 0 L 0.453125 -4.015625 L 3.1875 -4.015625 L 3.1875 -3.515625 L 1.265625 -3.515625 L 1.265625 -2.265625 L 2.9375 -2.265625 L 2.9375 -1.75 L 1.265625 -1.75 L 1.265625 -0.515625 L 3.1875 -0.515625 L 3.1875 0 Z M 0.453125 0 "/></g></g></g><g mask="url(#8da2e0848a)"><g transform="matrix(1, 0, 0, 1, 257, 287)"><g clip-path="url(#271a871054)"><g clip-path="url(#bd3f68f7c4)"><g fill="#000000" fill-opacity="1"><g transform="translate(0.0701249, 14.45165)"><g><path d="M 10.515625 -11.359375 L 9.234375 -3.875 C 9.054688 -2.613281 8.535156 -1.617188 7.671875 -0.890625 C 6.816406 -0.171875 5.75 0.175781 4.46875 0.15625 C 3.664062 0.144531 2.96875 -0.0234375 2.375 -0.359375 C 1.789062 -0.691406 1.359375 -1.164062 1.078125 -1.78125 C 0.796875 -2.394531 0.695312 -3.085938 0.78125 -3.859375 L 2.0625 -11.359375 L 4.34375 -11.359375 L 3.078125 -3.859375 C 3.035156 -3.566406 3.03125 -3.289062 3.0625 -3.03125 C 3.164062 -2.1875 3.664062 -1.75 4.5625 -1.71875 C 5.207031 -1.695312 5.734375 -1.875 6.140625 -2.25 C 6.554688 -2.625 6.828125 -3.160156 6.953125 -3.859375 L 8.21875 -11.359375 Z M 10.515625 -11.359375 "/></g></g></g></g><g fill="#000000" fill-opacity="1"><g transform="translate(10.349257, 14.45165)"><g><path d="M 3.5 -8.4375 L 3.3125 -7.453125 C 3.988281 -8.234375 4.804688 -8.613281 5.765625 -8.59375 C 6.566406 -8.570312 7.15625 -8.28125 7.53125 -7.71875 C 7.90625 -7.15625 8.046875 -6.367188 7.953125 -5.359375 L 7.0625 0 L 4.859375 0 L 5.765625 -5.390625 C 5.785156 -5.585938 5.789062 -5.769531 5.78125 -5.9375 C 5.707031 -6.46875 5.375 -6.742188 4.78125 -6.765625 C 4.207031 -6.785156 3.691406 -6.515625 3.234375 -5.953125 L 2.171875 0 L -0.015625 0 L 1.4375 -8.4375 Z M 3.5 -8.4375 "/></g></g></g><g fill="#000000" fill-opacity="1"><g transform="translate(19.107583, 14.45165)"><g><path d="M 2.34375 0 L 0.125 0 L 1.59375 -8.4375 L 3.8125 -8.4375 Z M 1.859375 -10.578125 C 1.847656 -10.929688 1.960938 -11.222656 2.203125 -11.453125 C 2.441406 -11.679688 2.726562 -11.796875 3.0625 -11.796875 C 3.394531 -11.804688 3.679688 -11.703125 3.921875 -11.484375 C 4.171875 -11.273438 4.300781 -11 4.3125 -10.65625 C 4.320312 -10.332031 4.210938 -10.050781 3.984375 -9.8125 C 3.765625 -9.570312 3.472656 -9.445312 3.109375 -9.4375 C 2.773438 -9.425781 2.484375 -9.523438 2.234375 -9.734375 C 1.992188 -9.941406 1.867188 -10.222656 1.859375 -10.578125 Z M 1.859375 -10.578125 "/></g></g></g><g fill="#000000" fill-opacity="1"><g transform="translate(23.295672, 14.45165)"><g><path d="M 0.15625 0 L 2.140625 -11.359375 L 5.390625 -11.34375 C 6.160156 -11.332031 6.847656 -11.160156 7.453125 -10.828125 C 8.066406 -10.492188 8.5625 -10.015625 8.9375 -9.390625 C 9.320312 -8.773438 9.550781 -8.082031 9.625 -7.3125 C 9.664062 -6.863281 9.660156 -6.398438 9.609375 -5.921875 L 9.5625 -5.515625 C 9.332031 -3.847656 8.675781 -2.507812 7.59375 -1.5 C 6.519531 -0.5 5.210938 0 3.671875 0 Z M 4.09375 -9.453125 L 2.78125 -1.875 L 3.734375 -1.875 C 4.773438 -1.875 5.613281 -2.253906 6.25 -3.015625 C 6.894531 -3.785156 7.265625 -4.953125 7.359375 -6.515625 L 7.375 -6.765625 C 7.382812 -7.617188 7.21875 -8.273438 6.875 -8.734375 C 6.53125 -9.191406 6.019531 -9.429688 5.34375 -9.453125 Z M 4.09375 -9.453125 "/></g></g></g><g fill="#000000" fill-opacity="1"><g transform="translate(33.442226, 14.45165)"><g><path d="M 2.34375 0 L 0.125 0 L 1.59375 -8.4375 L 3.8125 -8.4375 Z M 1.859375 -10.578125 C 1.847656 -10.929688 1.960938 -11.222656 2.203125 -11.453125 C 2.441406 -11.679688 2.726562 -11.796875 3.0625 -11.796875 C 3.394531 -11.804688 3.679688 -11.703125 3.921875 -11.484375 C 4.171875 -11.273438 4.300781 -11 4.3125 -10.65625 C 4.320312 -10.332031 4.210938 -10.050781 3.984375 -9.8125 C 3.765625 -9.570312 3.472656 -9.445312 3.109375 -9.4375 C 2.773438 -9.425781 2.484375 -9.523438 2.234375 -9.734375 C 1.992188 -9.941406 1.867188 -10.222656 1.859375 -10.578125 Z M 1.859375 -10.578125 "/></g></g></g><g fill="#000000" fill-opacity="1"><g transform="translate(37.630315, 14.45165)"><g><path d="M 3.578125 -2.78125 L 5.96875 -8.4375 L 8.34375 -8.4375 L 4.265625 0 L 2.15625 0 L 0.71875 -8.4375 L 2.953125 -8.4375 Z M 3.578125 -2.78125 "/></g></g></g><g fill="#000000" fill-opacity="1"><g transform="translate(45.53854, 14.45165)"><g><path d="M 4.03125 0.15625 C 3.289062 0.144531 2.632812 -0.0351562 2.0625 -0.390625 C 1.5 -0.742188 1.078125 -1.226562 0.796875 -1.84375 C 0.515625 -2.46875 0.40625 -3.15625 0.46875 -3.90625 L 0.484375 -4.21875 C 0.566406 -5.039062 0.804688 -5.796875 1.203125 -6.484375 C 1.609375 -7.171875 2.125 -7.695312 2.75 -8.0625 C 3.382812 -8.4375 4.082031 -8.613281 4.84375 -8.59375 C 5.925781 -8.570312 6.742188 -8.171875 7.296875 -7.390625 C 7.859375 -6.617188 8.078125 -5.632812 7.953125 -4.4375 L 7.828125 -3.484375 L 2.65625 -3.484375 C 2.632812 -2.941406 2.765625 -2.503906 3.046875 -2.171875 C 3.335938 -1.847656 3.726562 -1.679688 4.21875 -1.671875 C 5.019531 -1.648438 5.722656 -1.957031 6.328125 -2.59375 L 7.328125 -1.34375 C 7.015625 -0.863281 6.554688 -0.488281 5.953125 -0.21875 C 5.359375 0.0390625 4.71875 0.164062 4.03125 0.15625 Z M 4.734375 -6.78125 C 4.328125 -6.789062 3.96875 -6.660156 3.65625 -6.390625 C 3.34375 -6.128906 3.0625 -5.671875 2.8125 -5.015625 L 5.828125 -5.015625 L 5.875 -5.21875 C 5.90625 -5.425781 5.910156 -5.625 5.890625 -5.8125 C 5.835938 -6.113281 5.707031 -6.347656 5.5 -6.515625 C 5.300781 -6.679688 5.046875 -6.769531 4.734375 -6.78125 Z M 4.734375 -6.78125 "/></g></g></g><g fill="#000000" fill-opacity="1"><g transform="translate(53.992697, 14.45165)"><g/></g></g><g fill="#000000" fill-opacity="1"><g transform="translate(57.931217, 14.45165)"><g><path d="M 4.078125 -5.9375 L 5.859375 -8.4375 L 8.328125 -8.4375 L 5.265625 -4.1875 L 6.984375 0 L 4.75 0 L 3.71875 -2.640625 L 1.84375 0 L -0.640625 0 L 2.546875 -4.40625 L 0.90625 -8.4375 L 3.140625 -8.4375 Z M 4.078125 -5.9375 "/></g></g></g><g fill="#000000" fill-opacity="1"><g transform="translate(65.894041, 14.45165)"><g/></g></g><g fill="#000000" fill-opacity="1"><g transform="translate(69.822253, 14.45165)"><g><path d="M 7.609375 -5.25 L 2.84375 -5.25 L 2.140625 -1.21875 L 7.6875 -1.21875 L 7.46875 0 L 0.453125 0 L 2.4375 -11.359375 L 9.359375 -11.359375 L 9.140625 -10.125 L 3.6875 -10.125 L 3.046875 -6.46875 L 7.828125 -6.46875 Z M 7.609375 -5.25 "/></g></g></g><g fill="#000000" fill-opacity="1"><g transform="translate(78.705363, 14.45165)"><g><path d="M 3.875 -5.359375 L 6.15625 -8.4375 L 7.890625 -8.4375 L 4.5 -4.1875 L 6.5625 0 L 5.03125 0 L 3.640625 -3.15625 L 1.25 0 L -0.46875 0 L 3.015625 -4.328125 L 1.015625 -8.4375 L 2.5625 -8.4375 Z M 3.875 -5.359375 "/></g></g></g><g fill="#000000" fill-opacity="1"><g transform="translate(86.465412, 14.45165)"><g><path d="M 7.890625 -4.171875 C 7.785156 -3.316406 7.550781 -2.546875 7.1875 -1.859375 C 6.832031 -1.171875 6.390625 -0.65625 5.859375 -0.3125 C 5.328125 0.0195312 4.738281 0.175781 4.09375 0.15625 C 3.113281 0.132812 2.363281 -0.191406 1.84375 -0.828125 L 1.09375 3.25 L -0.3125 3.25 L 1.703125 -8.4375 L 2.984375 -8.4375 L 2.828125 -7.5 C 3.523438 -8.25 4.359375 -8.613281 5.328125 -8.59375 C 6.140625 -8.570312 6.769531 -8.269531 7.21875 -7.6875 C 7.675781 -7.113281 7.921875 -6.320312 7.953125 -5.3125 C 7.953125 -4.976562 7.9375 -4.65625 7.90625 -4.34375 Z M 6.5 -4.34375 L 6.53125 -5 C 6.53125 -5.757812 6.382812 -6.335938 6.09375 -6.734375 C 5.8125 -7.140625 5.394531 -7.351562 4.84375 -7.375 C 4.03125 -7.394531 3.328125 -7.007812 2.734375 -6.21875 L 2.03125 -2.171875 C 2.34375 -1.421875 2.910156 -1.035156 3.734375 -1.015625 C 4.429688 -0.992188 5.023438 -1.265625 5.515625 -1.828125 C 6.015625 -2.398438 6.34375 -3.238281 6.5 -4.34375 Z M 6.5 -4.34375 "/></g></g></g><g fill="#000000" fill-opacity="1"><g transform="translate(95.239335, 14.45165)"><g><path d="M 1.765625 0 L 0.359375 0 L 2.4375 -11.984375 L 3.859375 -11.984375 Z M 1.765625 0 "/></g></g></g><g fill="#000000" fill-opacity="1"><g transform="translate(99.076462, 14.45165)"><g><path d="M 4.921875 -8.59375 C 5.628906 -8.582031 6.234375 -8.390625 6.734375 -8.015625 C 7.242188 -7.640625 7.617188 -7.125 7.859375 -6.46875 C 8.097656 -5.8125 8.179688 -5.09375 8.109375 -4.3125 L 8.09375 -4.140625 C 8 -3.316406 7.753906 -2.570312 7.359375 -1.90625 C 6.972656 -1.25 6.46875 -0.734375 5.84375 -0.359375 C 5.226562 0.00390625 4.550781 0.175781 3.8125 0.15625 C 3.113281 0.144531 2.507812 -0.046875 2 -0.421875 C 1.488281 -0.796875 1.113281 -1.304688 0.875 -1.953125 C 0.644531 -2.597656 0.566406 -3.304688 0.640625 -4.078125 C 0.710938 -4.953125 0.945312 -5.738281 1.34375 -6.4375 C 1.738281 -7.132812 2.25 -7.671875 2.875 -8.046875 C 3.5 -8.429688 4.179688 -8.613281 4.921875 -8.59375 Z M 2.0625 -4.0625 C 2.019531 -3.738281 2.019531 -3.398438 2.0625 -3.046875 C 2.113281 -2.429688 2.296875 -1.941406 2.609375 -1.578125 C 2.921875 -1.210938 3.34375 -1.023438 3.875 -1.015625 C 4.332031 -0.992188 4.757812 -1.109375 5.15625 -1.359375 C 5.550781 -1.609375 5.882812 -1.984375 6.15625 -2.484375 C 6.425781 -2.984375 6.601562 -3.535156 6.6875 -4.140625 C 6.726562 -4.617188 6.734375 -5.019531 6.703125 -5.34375 C 6.640625 -5.976562 6.445312 -6.476562 6.125 -6.84375 C 5.8125 -7.207031 5.394531 -7.398438 4.875 -7.421875 C 4.144531 -7.429688 3.523438 -7.140625 3.015625 -6.546875 C 2.503906 -5.960938 2.191406 -5.195312 2.078125 -4.25 Z M 2.0625 -4.0625 "/></g></g></g><g fill="#000000" fill-opacity="1"><g transform="translate(107.990768, 14.45165)"><g><path d="M 5.484375 -7.15625 L 4.828125 -7.21875 C 3.921875 -7.21875 3.207031 -6.8125 2.6875 -6 L 1.65625 0 L 0.234375 0 L 1.703125 -8.4375 L 3.078125 -8.4375 L 2.859375 -7.46875 C 3.460938 -8.25 4.164062 -8.628906 4.96875 -8.609375 C 5.144531 -8.609375 5.367188 -8.566406 5.640625 -8.484375 Z M 5.484375 -7.15625 "/></g></g></g><g fill="#000000" fill-opacity="1"><g transform="translate(113.309712, 14.45165)"><g><path d="M 3.890625 0.15625 C 2.835938 0.132812 2.015625 -0.25 1.421875 -1 C 0.828125 -1.757812 0.578125 -2.726562 0.671875 -3.90625 L 0.71875 -4.234375 C 0.800781 -5.066406 1.046875 -5.828125 1.453125 -6.515625 C 1.867188 -7.210938 2.367188 -7.734375 2.953125 -8.078125 C 3.546875 -8.429688 4.179688 -8.601562 4.859375 -8.59375 C 5.722656 -8.570312 6.398438 -8.28125 6.890625 -7.71875 C 7.390625 -7.164062 7.664062 -6.414062 7.71875 -5.46875 C 7.726562 -5.125 7.71875 -4.785156 7.6875 -4.453125 L 7.59375 -3.8125 L 2.078125 -3.8125 C 1.984375 -3.039062 2.109375 -2.382812 2.453125 -1.84375 C 2.804688 -1.3125 3.320312 -1.035156 4 -1.015625 C 4.832031 -0.992188 5.601562 -1.367188 6.3125 -2.140625 L 7.125 -1.453125 C 6.769531 -0.941406 6.3125 -0.539062 5.75 -0.25 C 5.195312 0.03125 4.578125 0.164062 3.890625 0.15625 Z M 4.78125 -7.421875 C 4.207031 -7.429688 3.703125 -7.226562 3.265625 -6.8125 C 2.828125 -6.40625 2.484375 -5.796875 2.234375 -4.984375 L 6.328125 -4.984375 L 6.359375 -5.109375 C 6.441406 -5.765625 6.335938 -6.304688 6.046875 -6.734375 C 5.753906 -7.171875 5.332031 -7.398438 4.78125 -7.421875 Z M 4.78125 -7.421875 "/></g></g></g><g fill="#000000" fill-opacity="1"><g transform="translate(121.592291, 14.45165)"><g/></g></g><g fill="#000000" fill-opacity="1"><g transform="translate(125.507408, 14.45165)"><g><path d="M 2.03125 0 L 0.5625 0 L 2.546875 -11.359375 L 4 -11.359375 Z M 2.03125 0 "/></g></g></g><g fill="#000000" fill-opacity="1"><g transform="translate(129.796879, 14.45165)"><g><path d="M 8.9375 0 L 7.515625 0 L 3.46875 -8.8125 L 1.9375 0 L 0.453125 0 L 2.4375 -11.359375 L 3.859375 -11.359375 L 7.921875 -2.5 L 9.453125 -11.359375 L 10.90625 -11.359375 Z M 8.9375 0 "/></g></g></g><g fill="#000000" fill-opacity="1"><g transform="translate(140.918307, 14.45165)"><g><path d="M 0.453125 0 L 2.4375 -11.359375 L 5.375 -11.34375 C 6.300781 -11.34375 7.097656 -11.109375 7.765625 -10.640625 C 8.429688 -10.179688 8.910156 -9.546875 9.203125 -8.734375 C 9.492188 -7.921875 9.582031 -7.007812 9.46875 -6 L 9.390625 -5.4375 C 9.160156 -3.78125 8.515625 -2.457031 7.453125 -1.46875 C 6.398438 -0.488281 5.078125 0 3.484375 0 Z M 3.6875 -10.125 L 2.140625 -1.21875 L 3.578125 -1.21875 C 4.679688 -1.21875 5.613281 -1.5625 6.375 -2.25 C 7.144531 -2.9375 7.644531 -3.875 7.875 -5.0625 C 8.050781 -6.019531 8.113281 -6.835938 8.0625 -7.515625 C 7.988281 -8.316406 7.722656 -8.941406 7.265625 -9.390625 C 6.804688 -9.847656 6.191406 -10.085938 5.421875 -10.109375 Z M 3.6875 -10.125 "/></g></g></g><g fill="#000000" fill-opacity="1"><g transform="translate(151.15845, 14.45165)"><g><path d="M 2.03125 0 L 0.5625 0 L 2.546875 -11.359375 L 4 -11.359375 Z M 2.03125 0 "/></g></g></g><g fill="#000000" fill-opacity="1"><g transform="translate(155.447921, 14.45165)"><g><path d="M 7.09375 -2.96875 L 2.484375 -2.96875 L 0.9375 0 L -0.625 0 L 5.53125 -11.359375 L 6.828125 -11.359375 L 9.0625 0 L 7.625 0 Z M 3.140625 -4.1875 L 6.875 -4.1875 L 5.921875 -9.484375 Z M 3.140625 -4.1875 "/></g></g></g><g fill="#000000" fill-opacity="1"><g transform="translate(165.633464, 14.45165)"><g><path d="M 8.9375 0 L 7.515625 0 L 3.46875 -8.8125 L 1.9375 0 L 0.453125 0 L 2.4375 -11.359375 L 3.859375 -11.359375 L 7.921875 -2.5 L 9.453125 -11.359375 L 10.90625 -11.359375 Z M 8.9375 0 "/></g></g></g><g fill="#000000" fill-opacity="1"><g transform="translate(176.754893, 14.45165)"><g><path d="M 7.09375 -2.96875 L 2.484375 -2.96875 L 0.9375 0 L -0.625 0 L 5.53125 -11.359375 L 6.828125 -11.359375 L 9.0625 0 L 7.625 0 Z M 3.140625 -4.1875 L 6.875 -4.1875 L 5.921875 -9.484375 Z M 3.140625 -4.1875 "/></g></g></g></g></g></g><path fill="#000000" d="M 946.742188 205.261719 C 946.800781 205.214844 946.855469 205.164062 946.90625 205.109375 C 946.835938 205.160156 946.777344 205.210938 946.742188 205.261719 " fill-opacity="1" fill-rule="nonzero"/><path fill="#000000" d="M 972.15625 199.742188 C 972.097656 199.714844 972.042969 199.679688 971.992188 199.632812 C 971.992188 199.628906 972.15625 199.808594 972.15625 199.742188 " fill-opacity="1" fill-rule="nonzero"/><g clip-path="url(#7f76bcab7c)"><path fill="#000000" d="M 895.019531 160.0625 C 894.503906 162.464844 893.871094 165.382812 893.695312 167.847656 C 893.617188 168.933594 893.671875 170.0625 893.933594 171.121094 C 894.222656 172.277344 895.214844 173.039062 895.476562 174.226562 C 895.710938 175.296875 895.644531 176.425781 895.871094 177.503906 C 896.140625 178.792969 896.65625 180.027344 896.828125 181.339844 C 896.910156 181.957031 896.800781 182.464844 897.160156 182.914062 C 898.058594 184.027344 900.65625 184.171875 900.949219 185.859375 C 900.984375 186.058594 902.644531 188.890625 902.9375 189.179688 C 903.777344 190.023438 905.058594 190.027344 906.164062 190.089844 C 908.527344 190.226562 910.460938 192.5 912.503906 193.488281 C 914.75 194.574219 917.246094 195.890625 919.808594 195.917969 C 920.632812 195.929688 921.667969 195.730469 921.941406 194.777344 C 922.089844 194.253906 925.589844 195.703125 925.894531 195.890625 C 927.296875 196.761719 928.277344 198.164062 929.027344 199.605469 C 929.683594 200.867188 930.183594 202.585938 931.976562 202.460938 C 932.683594 202.410156 933.199219 201.535156 933.84375 201.289062 C 936.875 200.144531 938.996094 204.527344 940.171875 206.753906 C 940.785156 207.917969 941 209.457031 942.117188 210.269531 C 943.015625 210.925781 944.621094 211.464844 945.703125 210.972656 C 945.300781 209.890625 945.566406 208.605469 944.820312 207.644531 C 944.816406 207.644531 945.351562 207.738281 945.316406 207.828125 C 945.707031 206.824219 945.777344 205.125 947.027344 204.957031 C 946.988281 205.011719 946.949219 205.0625 946.90625 205.109375 C 947.085938 204.980469 947.335938 204.863281 947.460938 204.78125 C 948.527344 204.03125 950.703125 203.722656 951.074219 202.269531 C 951.242188 202.164062 953.039062 200.875 953.195312 200.953125 C 954.324219 201.5 955.804688 201.117188 957.070312 201.191406 C 957.964844 201.242188 961.753906 203.878906 961.601562 201.296875 C 961.65625 202.207031 963.492188 202.515625 963.980469 202.09375 C 963.597656 201.710938 963.121094 201.351562 962.636719 201.085938 C 962.140625 200.8125 962.996094 199.269531 961.40625 199.484375 C 962.570312 199.152344 964.410156 198.679688 965.609375 199.074219 C 965.746094 198.882812 965.839844 198.613281 965.933594 198.398438 C 966.992188 199.550781 969.449219 197.839844 969.746094 198.152344 C 969.929688 198.347656 972.132812 198.96875 972.15625 199.742188 C 972.722656 200.03125 973.53125 199.402344 974.324219 199.109375 C 974.335938 198.902344 974.316406 198.824219 974.351562 198.578125 C 975.449219 198.390625 977.160156 199.792969 977.769531 200.582031 C 978.542969 201.589844 977.964844 203.03125 978.726562 204.03125 C 978.734375 204.019531 978.859375 203.878906 978.871094 203.875 C 978.738281 204.421875 979.078125 205.011719 979.421875 205.40625 C 979.542969 205.542969 980.40625 206.066406 980.402344 206.054688 C 980.894531 207.460938 983.464844 208.929688 983.480469 209.910156 C 983.640625 209.945312 984.976562 209.972656 984.988281 209.738281 C 985.023438 208.820312 985.296875 207.65625 985.425781 206.71875 C 985.433594 206.664062 985.414062 206.605469 985.410156 206.546875 C 985.402344 206.507812 985.398438 206.464844 985.394531 206.421875 C 985.394531 204.484375 983.769531 203.03125 982.941406 201.441406 C 983.050781 201.566406 983.160156 201.691406 983.261719 201.824219 C 983.019531 201.492188 982.984375 200.585938 982.765625 200.140625 C 982.480469 199.566406 982.078125 199.058594 981.726562 198.523438 C 981 197.414062 980.328125 196.292969 980.488281 194.90625 C 980.816406 192.003906 989.277344 185.121094 988.058594 182.960938 C 988.046875 182.941406 989.167969 181.191406 989.175781 180.796875 C 989.179688 180.601562 988.527344 179.238281 988.398438 178.949219 C 987.785156 177.609375 986.890625 175.28125 985.511719 174.527344 C 986.09375 174.847656 986.722656 175.09375 987.371094 175.25 C 986.933594 174.214844 987.003906 173.507812 986.984375 172.4375 C 987.015625 174.304688 988.660156 174.910156 988.609375 177.113281 C 988.621094 176.667969 989.304688 175.8125 989.375 175.199219 C 989.507812 174.003906 988.9375 172.769531 988.621094 171.644531 C 988.726562 171.644531 989.53125 171.707031 989.578125 171.878906 C 989.628906 172.097656 989.558594 172.289062 989.640625 172.488281 C 990.066406 171.867188 990.5 171.070312 990.648438 170.332031 C 990.777344 169.667969 990.339844 168.582031 990.386719 168.304688 C 990.675781 166.503906 993.417969 165.914062 994.726562 165.171875 C 995.265625 164.867188 996.679688 164.25 996.792969 163.515625 C 997 162.164062 994.820312 162.339844 995.140625 160.996094 C 994.820312 160.035156 995.339844 158.925781 995.367188 158.019531 C 995.734375 157.8125 995.808594 157.574219 996.085938 157.347656 C 996.257812 157.339844 996.355469 157.40625 996.527344 157.390625 C 997.007812 157.34375 997.15625 155.839844 997.164062 155.511719 C 997.15625 155.792969 997.894531 155.632812 998.011719 155.390625 C 998.097656 155.3125 998.058594 155.480469 998.085938 155.59375 C 1000.53125 154.050781 999.242188 153.464844 998.09375 151.667969 C 997.671875 151.003906 997.785156 150.007812 997.347656 149.308594 C 996.542969 148.027344 995.582031 148.734375 994.332031 148.386719 C 992.59375 151.484375 993.867188 155.183594 989.460938 156.25 C 986.984375 156.851562 984.828125 157.273438 984.042969 160.035156 C 984.09375 159.84375 984.933594 161.390625 984.378906 161.3125 C 984.34375 161.308594 984.300781 161.300781 984.269531 161.320312 C 984.238281 161.339844 984.21875 161.371094 984.183594 161.390625 C 984.160156 161.402344 984.148438 161.390625 984.132812 161.414062 C 984.113281 161.4375 984.125 161.480469 984.097656 161.496094 C 984.078125 161.507812 984.054688 161.496094 984.035156 161.5 C 984.035156 161.5 984.015625 161.503906 984 161.542969 C 983.984375 161.582031 983.96875 161.59375 983.953125 161.609375 C 983.175781 162.34375 980.621094 162.34375 979.535156 163.011719 C 979.746094 163.363281 979.671875 163.644531 979.972656 163.964844 C 979.988281 166.628906 974.242188 168.808594 972.152344 168.140625 C 972.230469 167.347656 972.582031 166.527344 972.996094 165.820312 C 973.175781 165.808594 973.210938 165.988281 973.335938 165.980469 C 973.1875 165.273438 972.902344 162.871094 972.164062 162.511719 C 971.738281 162.304688 970.542969 162.464844 970.757812 163.25 C 970.777344 163.320312 970.804688 163.386719 970.835938 163.449219 C 970.796875 163.378906 970.773438 163.3125 970.757812 163.25 C 970.480469 162.3125 971.175781 160.726562 971.070312 159.613281 C 970.875 157.46875 967.558594 158.609375 967.269531 160.289062 C 967.113281 160.242188 966.949219 160.125 966.789062 160.089844 C 965.191406 161.589844 967.214844 170.253906 964.375 169.289062 C 961.359375 168.265625 963.632812 162.113281 964.167969 160.128906 C 963.851562 160.632812 962.8125 161.425781 962.644531 161.890625 C 963.054688 160.757812 963.660156 159.636719 964.125 158.488281 C 964.222656 158.574219 964.300781 158.675781 964.355469 158.792969 C 964.5625 158.835938 964.59375 158.421875 964.808594 158.398438 C 964.824219 158.550781 964.730469 158.734375 964.75 158.898438 C 965.691406 158.046875 966.824219 157.230469 968.035156 158.0625 C 968.320312 157.429688 969.378906 157.332031 969.964844 157.292969 C 969.816406 157.238281 967.488281 156.195312 967.5 156.449219 C 967.488281 156.222656 967.46875 156 967.445312 155.785156 C 966.398438 155.941406 964.976562 156.800781 964.136719 156.785156 C 963.195312 156.765625 962.4375 155.515625 961.296875 156.15625 C 961.460938 155.496094 961.964844 155.050781 962.382812 154.570312 C 962.390625 154.558594 961.402344 154.734375 961.238281 154.8125 C 960.789062 155.027344 960.402344 155.433594 960.007812 155.730469 C 959.203125 156.339844 958.265625 157.140625 957.179688 156.949219 C 957.226562 156.769531 957.3125 156.605469 957.425781 156.453125 C 956.792969 156.273438 955.816406 156.550781 955.277344 156.566406 C 955.640625 156.226562 958.425781 153.386719 958.675781 153.421875 C 955.214844 152.972656 951.65625 152.972656 949.324219 150.4375 C 949.246094 153.546875 929.75 150.585938 927.410156 150.339844 C 923.039062 149.886719 918.695312 149.152344 914.390625 148.261719 C 912.25 147.820312 910.132812 147.238281 907.996094 146.777344 C 906.757812 146.507812 905.320312 145.941406 904.046875 145.972656 C 903.667969 145.980469 903.042969 145.5625 902.726562 145.789062 C 902.320312 146.078125 902.363281 147.359375 902.375 147.796875 C 902.371094 147.855469 902.074219 147.761719 902.042969 147.78125 C 902.675781 148.667969 902.113281 149.332031 901.257812 149.804688 C 901.679688 149.355469 901.65625 149.058594 901.882812 148.59375 C 901.628906 148.78125 901.261719 148.960938 900.980469 149.144531 C 901.445312 148.71875 901.507812 148.195312 901.785156 147.671875 C 901.761719 147.660156 901.738281 147.644531 901.71875 147.632812 C 900.851562 147.128906 899.808594 146.703125 898.804688 146.613281 C 898.476562 147.769531 898.429688 151.621094 899.027344 151.894531 C 897.539062 151.222656 895.1875 159.292969 895.019531 160.0625 " fill-opacity="1" fill-rule="nonzero"/></g><path fill="#000000" d="M 970.835938 163.449219 C 970.804688 163.386719 970.777344 163.320312 970.757812 163.25 C 970.773438 163.3125 970.796875 163.378906 970.835938 163.449219 " fill-opacity="1" fill-rule="nonzero"/><g mask="url(#e26a578683)"><g transform="matrix(1, 0, 0, 1, 953, 131)"><g clip-path="url(#9a59942b67)"><g clip-path="url(#e8a90d3ab7)"><g clip-path="url(#e09d1b1fe9)"><g clip-path="url(#cf42413208)"><g clip-path="url(#b7925bf5ed)"><path fill="#000000" d="M 90.84375 44.683594 L 88.488281 40.925781 L 86.128906 37.160156 L 90.539062 37.050781 L 94.949219 36.9375 L 92.890625 40.808594 Z M 90.84375 44.683594 " fill-opacity="1" fill-rule="nonzero"/></g></g></g></g><g clip-path="url(#9aaa831cc0)"><g clip-path="url(#2b3e537656)"><g clip-path="url(#2dfb5afda3)"><g clip-path="url(#47a7d338d8)"><path fill="#000000" d="M 87.953125 42.386719 C 87.925781 42.429688 87.894531 42.464844 87.859375 42.503906 C 87.109375 43.175781 86.246094 43.734375 85.296875 44.171875 C 85.058594 44.289062 84.769531 44.179688 84.65625 43.941406 C 84.539062 43.699219 84.648438 43.410156 84.886719 43.292969 C 85.746094 42.894531 86.523438 42.382812 87.203125 41.785156 C 87.402344 41.609375 87.710938 41.625 87.894531 41.828125 C 88.042969 41.976562 88.058594 42.210938 87.953125 42.386719 Z M 82.730469 44.84375 C 82.65625 44.960938 82.539062 45.046875 82.394531 45.074219 C 81.390625 45.25 80.367188 45.289062 79.363281 45.203125 C 79.09375 45.175781 78.894531 44.941406 78.921875 44.671875 C 78.949219 44.402344 79.183594 44.203125 79.453125 44.230469 C 80.371094 44.308594 81.316406 44.269531 82.242188 44.113281 C 82.507812 44.070312 82.753906 44.242188 82.804688 44.511719 C 82.8125 44.632812 82.789062 44.742188 82.730469 44.84375 Z M 76.988281 44.316406 C 76.867188 44.515625 76.621094 44.605469 76.402344 44.519531 C 75.816406 44.300781 75.25 44.023438 74.726562 43.703125 C 74.550781 43.597656 74.375 43.480469 74.203125 43.363281 C 74.042969 43.253906 73.894531 43.140625 73.75 43.03125 C 73.53125 42.863281 73.5 42.558594 73.664062 42.351562 C 73.824219 42.140625 74.132812 42.101562 74.339844 42.261719 C 74.480469 42.367188 74.621094 42.476562 74.765625 42.574219 C 74.917969 42.679688 75.070312 42.785156 75.226562 42.878906 C 75.699219 43.167969 76.214844 43.425781 76.742188 43.621094 C 76.992188 43.714844 77.117188 43.996094 77.023438 44.246094 C 77.019531 44.269531 77.003906 44.292969 76.988281 44.316406 Z M 72.335938 40.90625 C 72.316406 40.9375 72.28125 40.972656 72.253906 41.003906 C 72.058594 41.191406 71.75 41.175781 71.5625 40.980469 C 71.316406 40.714844 71.0625 40.4375 70.816406 40.171875 C 70.429688 39.742188 70.027344 39.316406 69.625 38.898438 L 69.925781 38.515625 L 70.304688 38.207031 C 70.726562 38.636719 71.128906 39.074219 71.527344 39.511719 C 71.773438 39.773438 72.015625 40.046875 72.265625 40.3125 C 72.433594 40.484375 72.449219 40.722656 72.335938 40.90625 Z M 68.199219 36.8125 C 68.1875 36.828125 68.171875 36.855469 68.164062 36.871094 C 67.992188 37.074219 67.691406 37.109375 67.476562 36.933594 C 66.753906 36.332031 65.972656 35.765625 65.179688 35.238281 C 64.953125 35.085938 64.902344 34.832031 65.042969 34.5625 C 65.195312 34.335938 65.492188 34.277344 65.71875 34.425781 C 66.542969 34.972656 67.34375 35.5625 68.105469 36.183594 C 68.28125 36.339844 68.324219 36.605469 68.199219 36.8125 Z M 47.582031 66.378906 C 47.464844 66.570312 47.226562 66.664062 47 66.585938 C 46.746094 66.5 46.613281 66.214844 46.703125 65.972656 C 46.992188 65.164062 47.125 64.253906 47.125 63.261719 C 47.132812 62.992188 47.339844 62.777344 47.617188 62.773438 C 47.886719 62.777344 48.097656 62.988281 48.101562 63.265625 C 48.101562 64.371094 47.945312 65.390625 47.617188 66.300781 C 47.617188 66.320312 47.601562 66.347656 47.582031 66.378906 Z M 46.007812 68.800781 C 45.984375 68.839844 45.949219 68.878906 45.914062 68.914062 C 45.769531 69.042969 45.613281 69.164062 45.445312 69.289062 C 44.742188 69.796875 43.945312 70.132812 43.078125 70.289062 C 42.8125 70.332031 42.566406 70.160156 42.515625 69.902344 C 42.46875 69.644531 42.640625 69.382812 42.910156 69.332031 C 43.628906 69.199219 44.296875 68.921875 44.882812 68.5 C 45.019531 68.402344 45.152344 68.300781 45.265625 68.1875 C 45.464844 68.011719 45.773438 68.027344 45.957031 68.230469 C 46.097656 68.386719 46.113281 68.625 46.007812 68.800781 Z M 47.667969 60.617188 C 47.601562 60.722656 47.5 60.796875 47.375 60.835938 C 47.117188 60.90625 46.851562 60.746094 46.78125 60.484375 C 46.730469 60.273438 46.667969 60.074219 46.609375 59.867188 C 46.417969 59.25 46.171875 58.589844 45.84375 57.804688 C 45.742188 57.5625 45.863281 57.269531 46.105469 57.167969 C 46.351562 57.066406 46.640625 57.183594 46.742188 57.429688 C 47.082031 58.25 47.332031 58.925781 47.539062 59.578125 C 47.605469 59.800781 47.664062 60.019531 47.730469 60.253906 C 47.757812 60.375 47.734375 60.507812 47.667969 60.617188 Z M 63.347656 33.609375 C 63.21875 33.828125 62.941406 33.910156 62.707031 33.789062 C 61.855469 33.351562 60.976562 32.953125 60.101562 32.617188 C 59.851562 32.519531 59.726562 32.238281 59.828125 31.980469 C 59.917969 31.738281 60.203125 31.605469 60.460938 31.707031 C 61.375 32.054688 62.28125 32.46875 63.164062 32.925781 C 63.40625 33.050781 63.488281 33.34375 63.371094 33.578125 C 63.359375 33.59375 63.355469 33.601562 63.347656 33.609375 Z M 40.53125 69.9375 C 40.421875 70.113281 40.214844 70.210938 40.003906 70.164062 C 39.089844 69.949219 38.128906 69.582031 37.167969 69.089844 C 36.925781 68.964844 36.839844 68.675781 36.96875 68.429688 C 37.082031 68.203125 37.382812 68.101562 37.625 68.226562 C 38.515625 68.6875 39.382812 69.023438 40.226562 69.21875 C 40.488281 69.273438 40.644531 69.539062 40.589844 69.800781 C 40.570312 69.847656 40.554688 69.894531 40.53125 69.9375 Z M 45.550781 55.1875 C 45.5 55.269531 45.421875 55.335938 45.328125 55.382812 C 45.082031 55.484375 44.796875 55.378906 44.6875 55.128906 C 44.363281 54.371094 43.953125 53.382812 43.632812 52.355469 C 43.550781 52.097656 43.695312 51.824219 43.960938 51.742188 C 44.214844 51.660156 44.492188 51.804688 44.570312 52.070312 C 44.875 53.042969 45.253906 53.96875 45.585938 54.75 C 45.648438 54.890625 45.628906 55.050781 45.550781 55.1875 Z M 57.921875 31.527344 C 57.8125 31.703125 57.605469 31.804688 57.394531 31.757812 C 56.410156 31.523438 55.480469 31.410156 54.625 31.414062 C 54.355469 31.425781 54.140625 31.203125 54.132812 30.933594 C 54.132812 30.671875 54.347656 30.449219 54.613281 30.441406 C 55.539062 30.433594 56.558594 30.550781 57.609375 30.804688 C 57.867188 30.867188 58.027344 31.125 57.972656 31.386719 C 57.960938 31.441406 57.945312 31.488281 57.921875 31.527344 Z M 35.367188 67.320312 C 35.359375 67.339844 35.347656 67.355469 35.339844 67.371094 C 35.175781 67.582031 34.867188 67.621094 34.660156 67.460938 L 34.398438 67.253906 C 33.636719 66.632812 33.007812 66.042969 32.445312 65.453125 C 32.257812 65.257812 32.269531 64.957031 32.464844 64.769531 C 32.660156 64.578125 32.96875 64.59375 33.148438 64.785156 C 33.671875 65.34375 34.289062 65.898438 35.015625 66.5 L 35.25 66.691406 C 35.449219 66.835938 35.496094 67.113281 35.367188 67.320312 Z M 43.945312 49.601562 C 43.867188 49.726562 43.734375 49.816406 43.578125 49.832031 C 43.3125 49.855469 43.066406 49.660156 43.050781 49.386719 C 42.972656 48.417969 42.996094 47.40625 43.121094 46.375 C 43.148438 46.105469 43.402344 45.917969 43.664062 45.953125 C 43.925781 45.988281 44.121094 46.230469 44.085938 46.492188 C 43.964844 47.457031 43.945312 48.40625 44.023438 49.304688 C 44.019531 49.417969 43.996094 49.519531 43.945312 49.601562 Z M 52.1875 31.722656 C 52.136719 31.804688 52.058594 31.875 51.957031 31.914062 C 51.640625 32.042969 51.332031 32.207031 51.050781 32.390625 C 50.613281 32.683594 50.199219 33.046875 49.796875 33.5 C 49.621094 33.699219 49.3125 33.714844 49.113281 33.539062 C 48.914062 33.359375 48.894531 33.0625 49.078125 32.855469 C 49.539062 32.335938 50.003906 31.925781 50.523438 31.578125 C 50.859375 31.359375 51.214844 31.167969 51.582031 31.015625 C 51.828125 30.910156 52.117188 31.03125 52.21875 31.277344 C 52.28125 31.4375 52.261719 31.597656 52.1875 31.722656 Z M 44.621094 43.839844 C 44.507812 44.023438 44.28125 44.113281 44.070312 44.054688 C 43.808594 43.976562 43.667969 43.707031 43.742188 43.453125 C 44 42.5625 44.328125 41.644531 44.742188 40.652344 C 44.84375 40.40625 45.132812 40.285156 45.378906 40.390625 C 45.621094 40.492188 45.742188 40.78125 45.636719 41.027344 C 45.238281 41.980469 44.921875 42.875 44.667969 43.722656 C 44.65625 43.761719 44.644531 43.800781 44.621094 43.839844 Z M 46.839844 38.4375 C 46.707031 38.65625 46.429688 38.738281 46.203125 38.621094 C 45.960938 38.496094 45.863281 38.210938 45.988281 37.96875 C 46.3125 37.320312 46.648438 36.691406 46.988281 36.066406 C 47.113281 35.835938 47.238281 35.59375 47.367188 35.363281 C 47.5 35.144531 47.792969 35.039062 48.03125 35.171875 C 48.265625 35.304688 48.347656 35.605469 48.21875 35.832031 C 48.089844 36.0625 47.960938 36.292969 47.839844 36.527344 C 47.511719 37.148438 47.179688 37.765625 46.859375 38.40625 C 46.851562 38.414062 46.84375 38.429688 46.839844 38.4375 Z M 31.441406 63.050781 C 31.402344 63.117188 31.34375 63.171875 31.269531 63.21875 C 31.042969 63.355469 30.746094 63.277344 30.605469 63.042969 C 30.53125 62.90625 30.449219 62.777344 30.382812 62.644531 C 30.015625 61.953125 29.703125 61.183594 29.414062 60.277344 C 29.328125 60.019531 29.476562 59.742188 29.730469 59.660156 C 29.988281 59.574219 30.261719 59.71875 30.34375 59.976562 C 30.609375 60.832031 30.910156 61.550781 31.242188 62.1875 C 31.3125 62.308594 31.371094 62.4375 31.449219 62.550781 C 31.542969 62.714844 31.53125 62.898438 31.441406 63.050781 Z M 29.554688 57.554688 C 29.488281 57.664062 29.386719 57.738281 29.261719 57.777344 C 29.003906 57.847656 28.738281 57.6875 28.671875 57.417969 C 28.488281 56.691406 28.28125 55.855469 28.007812 55.054688 C 27.964844 54.921875 27.917969 54.792969 27.871094 54.660156 C 27.777344 54.410156 27.914062 54.128906 28.160156 54.039062 C 28.414062 53.941406 28.695312 54.078125 28.78125 54.324219 C 28.835938 54.460938 28.875 54.597656 28.925781 54.742188 C 29.203125 55.574219 29.417969 56.433594 29.601562 57.183594 C 29.644531 57.316406 29.621094 57.449219 29.554688 57.554688 Z M 27.523438 52.113281 C 27.484375 52.179688 27.421875 52.242188 27.355469 52.28125 C 27.125 52.414062 26.820312 52.335938 26.6875 52.105469 C 26.222656 51.285156 25.683594 50.503906 25.089844 49.761719 C 24.917969 49.558594 24.957031 49.25 25.164062 49.078125 C 25.371094 48.90625 25.675781 48.945312 25.847656 49.152344 C 26.476562 49.933594 27.042969 50.757812 27.527344 51.621094 C 27.628906 51.773438 27.617188 51.960938 27.523438 52.113281 Z M 23.890625 47.585938 C 23.875 47.609375 23.859375 47.636719 23.835938 47.65625 C 23.660156 47.855469 23.351562 47.875 23.144531 47.691406 C 22.449219 47.0625 21.691406 46.472656 20.902344 45.960938 C 20.671875 45.808594 20.621094 45.539062 20.765625 45.285156 C 20.917969 45.054688 21.214844 44.996094 21.441406 45.148438 C 22.273438 45.6875 23.066406 46.308594 23.808594 46.976562 C 23.972656 47.132812 24.007812 47.394531 23.890625 47.585938 Z M 12.023438 63.929688 C 12.015625 63.945312 12.007812 63.957031 12 63.972656 C 11.835938 64.179688 11.53125 64.234375 11.324219 64.074219 C 10.746094 63.640625 10.324219 63.363281 9.953125 63.128906 C 9.601562 62.886719 9.289062 62.6875 8.933594 62.414062 C 8.722656 62.253906 8.683594 61.945312 8.847656 61.734375 C 9.007812 61.523438 9.316406 61.484375 9.527344 61.644531 C 9.859375 61.90625 10.160156 62.101562 10.496094 62.316406 C 10.875 62.570312 11.3125 62.859375 11.90625 63.300781 C 12.101562 63.429688 12.15625 63.714844 12.023438 63.929688 Z M 19.019531 44.417969 C 18.894531 44.625 18.636719 44.707031 18.402344 44.609375 C 17.53125 44.230469 16.632812 43.910156 15.730469 43.679688 C 15.472656 43.613281 15.316406 43.347656 15.382812 43.09375 C 15.4375 42.832031 15.714844 42.679688 15.96875 42.742188 C 16.925781 42.980469 17.875 43.308594 18.796875 43.722656 C 19.039062 43.824219 19.144531 44.117188 19.042969 44.363281 C 19.046875 44.375 19.03125 44.398438 19.019531 44.417969 Z M 7.503906 60.300781 C 7.476562 60.34375 7.4375 60.386719 7.398438 60.417969 C 7.191406 60.589844 6.886719 60.566406 6.710938 60.367188 C 6.078125 59.617188 5.605469 58.691406 5.316406 57.601562 C 5.246094 57.339844 5.398438 57.070312 5.65625 57 C 5.917969 56.929688 6.1875 57.082031 6.257812 57.339844 C 6.515625 58.296875 6.914062 59.097656 7.457031 59.738281 C 7.601562 59.894531 7.609375 60.125 7.503906 60.300781 Z M 13.4375 43.484375 C 13.382812 43.574219 13.292969 43.648438 13.191406 43.6875 C 13.027344 43.746094 12.824219 43.816406 12.609375 43.890625 C 12.0625 44.082031 10.933594 44.480469 10.734375 44.65625 C 10.539062 44.832031 10.203125 44.859375 10.015625 44.664062 C 9.835938 44.472656 9.816406 44.1875 10.003906 44.007812 L 10.335938 44.355469 L 10.070312 43.957031 C 10.386719 43.65625 11.195312 43.359375 12.289062 42.980469 C 12.496094 42.898438 12.695312 42.835938 12.855469 42.777344 C 13.109375 42.679688 13.390625 42.816406 13.476562 43.0625 C 13.527344 43.207031 13.515625 43.359375 13.4375 43.484375 Z M 5.902344 54.820312 C 5.8125 54.972656 5.652344 55.066406 5.464844 55.058594 C 5.199219 55.042969 4.988281 54.8125 5 54.546875 C 5.050781 53.492188 5.261719 52.457031 5.613281 51.542969 C 5.707031 51.292969 5.988281 51.167969 6.238281 51.261719 C 6.488281 51.355469 6.613281 51.636719 6.515625 51.886719 C 6.199219 52.710938 6.015625 53.648438 5.972656 54.589844 C 5.972656 54.671875 5.941406 54.753906 5.902344 54.820312 Z M 7.4375 49.253906 C 7.351562 49.394531 7.195312 49.484375 7.019531 49.492188 C 6.75 49.484375 6.539062 49.277344 6.535156 49 C 6.535156 48.570312 6.582031 48.082031 7.042969 47.324219 C 7.253906 46.976562 7.550781 46.585938 7.9375 46.136719 C 8.105469 45.929688 8.417969 45.902344 8.625 46.085938 C 8.824219 46.265625 8.855469 46.570312 8.671875 46.777344 C 8.324219 47.179688 8.0625 47.535156 7.878906 47.835938 C 7.546875 48.382812 7.519531 48.6875 7.519531 49.007812 C 7.511719 49.09375 7.484375 49.179688 7.4375 49.253906 Z M 7.4375 49.253906 " fill-opacity="1" fill-rule="nonzero"/></g></g></g></g></g></g></g></svg>